<mxfile host="app.diagrams.net" modified="2021-04-24T07:55:01.427Z" agent="5.0 (Macintosh; Intel Mac OS X 10_15_7) AppleWebKit/537.36 (KHTML, like Gecko) Chrome/90.0.4430.85 Safari/537.36" etag="FX_UBnbsDNZV3-JVBbvF" version="14.6.6" type="github" pages="2">
  <diagram id="uff_eeTxeY3QAWquk6gK" name="封面">
    <mxGraphModel dx="1773" dy="589" grid="1" gridSize="10" guides="1" tooltips="1" connect="1" arrows="1" fold="1" page="1" pageScale="1" pageWidth="827" pageHeight="1169" math="0" shadow="0">
      <root>
        <mxCell id="0" />
        <mxCell id="1" parent="0" />
        <mxCell id="D7CyiCbgNfwCUPgvzWG9-1" value="x" style="shape=image;verticalLabelPosition=bottom;labelBackgroundColor=#ffffff;verticalAlign=top;aspect=fixed;imageAspect=0;image=data:image/jpeg,/9j/4AAQSkZJRgABAQEAAAAAAAD/4QAuRXhpZgAATU0AKgAAAAgAAkAAAAMAAAABAAAAAEABAAEAAAABAAAAAAAAAAD/2wBDAAoHBwkHBgoJCAkLCwoMDxkQDw4ODx4WFxIZJCAmJSMgIyIoLTkwKCo2KyIjMkQyNjs9QEBAJjBGS0U+Sjk/QD3/2wBDAQsLCw8NDx0QEB09KSMpPT09PT09PT09PT09PT09PT09PT09PT09PT09PT09PT09PT09PT09PT09PT09PT09PT3/wAARCAFTAdoDASIAAhEBAxEB/8QAHwAAAQUBAQEBAQEAAAAAAAAAAAECAwQFBgcICQoL/8QAtRAAAgEDAwIEAwUFBAQAAAF9AQIDAAQRBRIhMUEGE1FhByJxFDKBkaEII0KxwRVS0fAkM2JyggkKFhcYGRolJicoKSo0NTY3ODk6Q0RFRkdISUpTVFVWV1hZWmNkZWZnaGlqc3R1dnd4eXqDhIWGh4iJipKTlJWWl5iZmqKjpKWmp6ipqrKztLW2t7i5usLDxMXGx8jJytLT1NXW19jZ2uHi4+Tl5ufo6erx8vP09fb3+Pn6/8QAHwEAAwEBAQEBAQEBAQAAAAAAAAECAwQFBgcICQoL/8QAtREAAgECBAQDBAcFBAQAAQJ3AAECAxEEBSExBhJBUQdhcRMiMoEIFEKRobHBCSMzUvAVYnLRChYkNOEl8RcYGRomJygpKjU2Nzg5OkNERUZHSElKU1RVVldYWVpjZGVmZ2hpanN0dXZ3eHl6goOEhYaHiImKkpOUlZaXmJmaoqOkpaanqKmqsrO0tba3uLm6wsPExcbHyMnK0tPU1dbX2Nna4uPk5ebn6Onq8vP09fb3+Pn6/9oADAMBAAIRAxEAPwD1p3OTzUA1eyhZkkuEDA8gdvyputO9vp7vCCzsQuAPWuD1nUbiwtjcCMxwQDfLsj+Z+wUAn8c1y1q7g1FLU3pUlNXZ351qxIOJwTjjCmof7XtR/wAtj/3ya4/R9bh1ISfumG0K65HIDdj7itHzVPRR+JFc312fZG31aPdnRR65YqmGn5z/AHTRJr2nlCBPz/umueB9l/8AHaMr32D8j/Sj67Psg+rR7s3BrVkek/6Gp01uxCAGbn/dNc3vX+Fl/Bc/0pd5/vN+CGj67Psg+rw7s6KTW7IrgTHP+6ai/tm0/wCex/75NYg3H+JvxUily3Q8/VM0vrs+yD6vHuzfGv6eAAZzkDn5TTZdesCoxOev9w1gkD0X/v3ShI+6r/3xT+uT7IPq0fM2f7bs/wDnsf8Avg1YGuWR6SOf+AGuaeO3P8aj8KjdIOzR/oaX1yfZB9Wh3Z00usWjEbXbgf3DTRq9tkHe+M/88zXOxG3iAX922O5NP86LswA9A2P6UfXZ9kH1ePmdL/bdn/ff/vg1FJrFqXyHfGP+eZrnzLEer5/4ET/SjfB3I/M/4UfXJ9kH1aPmby61aq4Jd8Dr+7NS/wBvWX9+T/v2a54G1P8AEv50uy29Fo+uT7IPq8fM221u1ZyQ0mP+uZpY9ZtlfJaTGP8AnmaxMW46bfzpd/8AddB9eaPrk+yD6vHzN7+3bL+9J/37NRHWrYkkGTGf+eZrBKSk8XKj2C0eTIfvT5+i0fXKnZB9Xh3ZvprlohJZpMHp+7NO/wCEisP70v8A36b/AArBEK/xOx+lBiiHUt+eaPrlTsg+rw7s1/7dtP703/fo1JF4gswOfO56fumrD2Qf7X4U3ZEPuhz9SaPrlTyH9Xh5nQnX7Ug4E3/fs1D/AG3bDtN/37NY/mP2Ax7qTS/MeuwfVP8A69H1yfkL6vA201+0UYPnZz/zzNK2v2hQgedk/wDTOsPaf70f/fH/ANenBEx8wUn1AxR9cqeQfV4eZrf21bf9Nf8AvipF1+0CgHzsjr+7rDIj7HFJ8v8Az0H6UfXKnkH1eHmbj6/alcDzc5/uVH/blt/01/74rH3n/nt/L/CgOe8ufxo+uVPIf1eBuDxDZqAD5ucf3DTH8Q2bAAGTr/crH35/iX9aaY2fpJj6Zo+uVPIPq8DX/t619ZP++an/AOEhs/8Ab/Kue+zMf+W7D6Cj7OR/y2kNH1yp5B9XgbkviGzOMGTjr8tRjxDZgg5l4P8AcrHw6dCT6EuBSebL32/hIKX1up5B9Xgb/wDwk1j/ANNv+/dMbxDaOcqJsY/551h/aHHVX/BhR9p9fN/MGj65UD6tA3k1y33A7Zv++Km/t23/AOec3/fI/wAa5rzcnIBb/eYCmOZnP/LJV7ANR9cqeQfVoHRvrUJckJNj/dFIuu26NkrLjHoP8a59DIP4lPsST/SpPtLIPmTJ9Qpo+uVPIPq0DcPiW0H8En5D/GoT4jtSSQJOT6D/ABrHN4p6xP8AypPtK/8APF/zNL63U8h/VoG3H4jtVJJWXn2H+NSjxHanpHN/3yP8a57zlP8AywelG1+kbD6kCj63U8hfV4G4dcg/uy/kKcniC3XOY5Tnp0/xrB8pe+B+Kn+lGI06sf8AvgH+lH1up5B9XgdAfEVvg/upenqv+NQf8JBD/wA8pvwANY29R0MZ+seP6Un2lhwPI/Ij+lP63UD6vA3k8SW6jDRTZz/dFPHiK2fK7JUz3KcCuS1KWWWzaNXihVvvSpkMB1wPc9PxrI0PW7i/uEhls/KcKQ6OS+0Dox9z0prF1N9A+rwPT0k3gMrAqwyCOc1PvPrWT4fAlsnXoEbgBcYzz3rZ8oepr0ac+eKkcc1yyaMnxPJs0aV1XzGQhggPLew9T7V59caityAs2jaku05BEe08/j3rvdf/AOPA/wDXRf51z11F+8HH8Kn8q4MXbn1XQ6qCfLdM56HW7Pw7ahDp17DHK27dKu4sT759v0p48eaeekM3/fFVvHUYGn2h/wBoD9DXIxgYoo0YTjdmNavOnKyO4/4Tux/54zf98Uf8J3Yf88Z/++K4rAowK1+qw8zL63PyO2/4Tuw/54z/AIJSHx1Yn/lncj/gA/xrisCjAo+qw8w+tz8js/8AhN7H+7c/98Ck/wCE2sj/AAzn6oK43AowKPqsPMPrc/I7H/hNbD/nlN/37FH/AAm1j/zym/79iuOwKMCj6rT8w+uT8jsh43sf+eEp/wCAClHjqzHS3m/BQK4zAowKPqsPMPrdTyOz/wCE8tP+eE//AHyP8aP+E7tf+eM//fA/xrjMUYFH1an5h9bqeR2X/Cd23/PGf/vkf40n/CdWv/PGf/vkf41x2B6UYFH1WHmH1up5HZf8JzZ/88rgfRRSf8Jvaf3Lr/vkVx2BRgUfVafmH1yp5HY/8Jza/wDPO5P1UUv/AAnVp/zxnP8AwAf41xuBRgUfVafmH1up5HZ/8J1Zj/lhP+QH9aQ+OrM9be4P4D/GuNxRgelH1WAfW5nXnxvZ/wDPnOfwH+NNPjaz/wCfKX8QK5LA9KMCj6rAPrdQ6v8A4TW27Wkn5Cj/AITeAdLWT8h/jXKYFGBR9VgH1uodcPHcQ/5dpfyH+NL/AMJ3b97af8AP8a5DAowKPq0BfW6h13/CcW3/AD7XH6f40n/CcW3/AD7XP6f41yWBRij6rAf1uodZ/wAJzb/8+tx+Y/xpD45i7Wk/4kf41ymKMUfVafYPrdTudX/wnUf/AD6Tf99D/GnDx3F3tZ/wI/xrksUYHpR9WgL63U7nXf8ACdwH/l1n/T/Gk/4Ti3/59bj81rksCjAo+rQ7B9bqHW/8Jxb/APPrc/mtNPjeD/n0n/ErXKYoxT+rU+wfW6nc6r/hNoO1lL+JWk/4TaLtZP8A+O1y2KMUfVodg+tVO51SeOkXpZP+YFO/4T5f+fJ/++hXJ4oxR9Wh2D61U7nWf8J6v/Pk/wCYpP8AhPV/58n/ADFcpijFH1aHYPrVTudV/wAJ2v8Az5P/AN9Un/CdD/nyf/vuuWxRij6tDsL61U7nU/8ACdD/AJ8n/wC/lJ/wnH/Tk/8A38rl8UYo+rU+wfWqnc6r/hPG6fYmP1cGk/4Ts/8APif++hXLYoxR9Wh2D61U7nUf8J03/Pl/48KP+E7f/ny/UVy+KMUfVodg+tVO51P/AAnkv/Pmf++hS/8ACfMF/wCPN/8AvoVytIehp/Vodg+s1O52Vn4pudb8yCDTlcKAGWWUKDn8Pap4hqFk8r22i2cbuFaRluQN2eBn5axvBIzeXX0U/wA67UJ5kchPeOM/rXFUShNpI7qLc4Jtm54UkdrGUXCpHOHxJGhyFP8AvfxeueK38j1Fc9oYw177yg/pW3Xp4d3po5auk2Z/iBFTTC3PDqf1rAugMBvUYFb/AIkYHR5MHJDLXP3T4gHsuf0rgxvx/I68N8PzOV8fcabbj/pqP5GuOj6V2Hj8/wCgW3/XQH9K4+LpW+F/h/M4sX/EHUUUV0nKFFFFABRRRQAUUUUAFFFFABRRRQAUUUUAFFFFABRRRQAUUUUAFFFFABRRRQAUUUUAFFFFABRRRQAUUUUAFFFFABRRRQAUUUUAFFFFABRRRQAUUUUAFFFFABRRRQAUUUUAFB+7RQfu0AdB4FGb+6Hqo/rXcW4xCc/881H61xHgX/kI3P8Aur/Wu6jGLVj/ALP9a8rEfxGevhv4aNnQUD/as5++P5VteUvvWN4fZRHOc9XB/StrevrXp4f+GjlrfGzE8Qf8gmb8Kwbn50kH91P6V0fiRQNGmIHOR/Ouf2bjP9AP0rhxv8T5HVhvh+Zyfjs50y0P+2P5VyEfSut8bj/iU2/tNj9K5KLpW+F/h/M4sX/E+Q6iiiuk5QooooAKKKKACiiigAooooAKKKKACiiigAooooAKKKKACiiigAooooAKKKKACiiigAooooAKKKKACiiigAooooAKKKKACiiigAooooAKKKKACiiigAooooAKKKKACiiigAoP3aKD0NAHQeBf+Qjc/wC6P613w/49WX/ZNcB4G/4/7n/dH9a9AHKOP9g15WI/iM9bDfw0X9A/49pMdMrj8q2qyfDKq1pJkZxt/lW5sX0r08N/CRy1/jZleInVtHmXnOV/nWChAmkB/iK/yra1/wD5BU34Viy/IQ3qQP0rhxnxr0OrDfA/U5Hx1/yDIf8Ar4P9a4+PoK7Dxz/yDIv+vg/1rj4ulb4X4PmceL+P5D6KKK6TlCiiigAooooAKKKKACiiigAooooAKKKKACiiigAooooAKKKKACil5pKACiijmgAoo5o5oAKMGlxSjigBMH1ox70+mnNADfxoxTgKCRQA2ilApcCgBtFKaSgAooooAKKKKACiiigAooooAKKKKACiiigAooooAKD0NFB6GgDf8Ef8f9z/ALo/rXfQ8ySD/ZxXAeCf+P8Auf8AdH9a7+2/18n+6K8vE/xGethv4SNTw0wjt5g2eCB+lbvmrXP6H9y5/wB8fyrar0sN/DRzVvjZS8RqP7GmwBnjt71zdy/EYyeqjFdHr8obSpVx3X+dc1ckmSEY4YqR+dcOM+Neh04b4fmcv46/5BsP/Xcn+dcfH92uv8c86bF/13P9a5GLpW+F+D5nHi/4g6iiiuk5QooooAKKKKACiiigAooooAKKKKACiiigAopQM0+gCOlwaUkUmTQAuKdTRTqAGnpSDFPpuBQAUYFOooAaRmgDFOpueaAHUUUUAFFFFADCaUCjAoyOgoAdTD1p9FADMGkqSmHrQAlFFFABRRRQAUUUUAFFFFABRRRQAUUUUAFFFFABQehooPQ0Ab/gj/kIXJ9FH9a761IM0hHQqprgvAwBv7v2RSP1ruUDJCWVsMwTkdq8vEfxGethv4SNvw6Bi6BAOHHX6Vt4HoKwtAcR/a+MguMflW35o9DXpYb+GjlrfGzJ1sE6fIMdWX+dc+TvFsPU5/Wup1r/AJBrf7y/zrloxzB/sqT+tcON+Neh14b4Gcp4250yM/8ATwf61yMfSuu8a/8AIJj9RP8A41yMfSt8L8HzOLF/H8h1FFFdJyhRRRQAUUUUAFFFFABRRRQAUUUUAFFFFADhxTqKZn0oAXAowPU0CnUAJ0paKbuFADqKZk0lAElFMHFGc0ALnrQBikAp9ABRTScUmTQA+mk02loAME0vSk30ZNAD6KjyfWlBoAfTD1p9MPWgBKKKKACiiigAooooAKKKKACiiigAooooAKKKKACg9DRQehoA6DwL/wAhC7/65r/Ou+Qf6GT/ALFcB4G/5CF17ov8679B+5C+2DXl4j+Iz1sN/DRo6IDi4/3x/Ktqsvw792593/xrbr0sN/CRzV/jZl6xKWsHXH8S/wA65uE4eMf3kb+ddFqwYWTkg43L/OubHE1v7lxXDjPjXodOH+H5nL+NxjSkH/TVT/OuPi6V2Xjv/kGp/wBdE/rXGRdK3wvwfM48X8fyH0UUV0nKFFFFABRRRQAUUUUAFFFFABRRRQAUopKXrQAdfpTsAUCloAbwKTPpSkZoxQAnJo4HXrTulNoAOTQR60lGTQAUoHrRRk0AKSKTJpKKACiiigAooooAKKKKACiiigBc8UlFFABRRRQAUUUUAFFFFABRRRQAUUUUAFFFFABRRRQAUH7tFB+7QBveCTjUrj3Vf/Qq7+M4GewNef8Agn/kJXH+6v8AOu8TJUgdyR+leXif4jPXwv8ACRsaAzRfawefnGPyrb80+grD0XJa6wCfmXp9K2cH0P5V6WG/hI5K/wAbK2tf8g1/95f5iuVuOI7dvSRh/Ouk1qUmwcHGNy/zrm7wj7DG3pJmuLG/GvQ6sN8PzOa8ef8AIPi95F/rXGRdK7Px5j+zYfaQZrjI+lbYX+H8zjxfx/IdRRRXScoUUUUALSUUUAFFFFABRRRQAtJRSgUAAGafRRQAUUUUAFISBSE4ptACk5pKKKACiiigAooooAKKKKAFpKKKAFopKKAFpKKKAClpKKAFpKKKACiiigBaSiigBaKSigApaSigApaSigBaSiigAooooAKD0NFB6GgDe8E/8hO4/wB1f513kP32+p/lXB+Bv+QrP/uD+dd/EMSH3Ga8vE/xGethf4aNbw0ci5P+0v8AKt2ue8PSFY5yMcla2/NPtXo4b+EjmrfGzO1pWGnuSONy/wA65q5ObBR6yDFdXrf/ACC5P95f5iuTvAqRxRr0Bz+dceN+Neh04b4X6nN+O/8AkGp7Sr/KuOj6V2Xjv/kGj/rsP5VxsXStsL8HzOPF/H8h1FFFdJyhRRRQAUUUUAFFFFABRS0vFACDBp9MJ9KMmgB9N9c0A0j0AGTRnikooAKKKKACiiigAooooAKKKKACiiigAooooAKKKKACiiigAoopcE0AJRSkEUgoAKKXNJQAUUUUAFFFFABRRRQAUUUUAFFFFABRRRQAUHoaKD0NAG74JONTuD6Rg16BCckn1rz3wd/x/wB3/wBcq9CiGMfT+teXif4jPWw38NGj4fUmOfAzgjP61ueW3p+tZPhsYW4How/rW5Xo4b+Ejmr/ABsydXZjYSAk4yv865q5QlwfRkH5iun1eIiwkJxjI/nXPAK8jbvVSPrg1x4z416HThvhZy3jv/kG/wDbZa4uPpXa+Ox/xLP+2y1xUfStsL/D+ZyYz4/kOoopa6TkEopaSgAopaSgApaMUUAB60lFFABRRRQAtB60lFABRRRQAUUUUAFFFFABRRRQAUUUUAFFFFABRRRQAUUUUAFLjNJS5NAC4A60hPpSUUAFFFFABRRRQAUUUUAFFFFABRRRQAUUUUAFFFFABRRRQAUHoaWkPQ0AbXg7P9oXQ9YsV6LH2+grzzwV/wAhWYeqAfrXoEP3M+gFeXif4jPWw38NGrorFTc7Tj5hWzvb1NY2hqZWuSMdV/lW15Te1elhv4aOet8bKus/8g2X8P5iuY6TH/gP8yK39YcjTZjk8Y7+9YB7n/ZU/wDjxrixvxr0OjDfCzmfHf8AyCR7yrXEx9K7Xx1/yB4/eVf61xMXStsL8HzOTF/H8h9FFFdJyBRRRQAUUUUAKeaSiigAooooAKKKKACiiigAooooAKKKKACiiigAooooAKKWjBoASlwaMetLgUAGKMCnUwnNABkDoKTrRRQAUUUUAFFFFABRRRQAUUUUAFFFFABRRRQAUUUoFABg0bTS5xTqAI6KcRTaACiiigAoPQ0UH7tAG54J/wCQxL/uj+degwf6s/7prz3wT/yGJf8AdH869Ah+4foa8vE/xGethv4aNfwwcx3B91/lW9XNeGyRDNgkcr0+lb2W/vH869HC/wAJHNX+NlDXYiukXDZ6AfzrEdB9mJ77cVv+IP8AkCXX+6P51g9YXHocVx4z416HRh/hZyHjn/kCw/8AXQf1ri4uldn42/5A8f8A10H8zXGRdK1wvwfM5cX8fyH0UUV1HIFFFFABRRRQAUUUUAFFFFABRRRQAUUUUAFFFFABRRRQAUUtGAOtABRx9aM+gpKAHZozScUZ9BQAZNLnHvTaKAFOaSiigAooooAKKKKACiilAFABgmjAp9FADM+1H4UEYpKACiiigAoopeaAAUu4UYpeKAE69qdTc0mfagB9MNGfakoAKKKKACg/dooPQ0AbXgr/AJC83/XMfzr0GI4z9cV594M/5C0//XMfzrv4zwfrXl4n+Iz1sL/DRqeGoi0c3OMFetb3k+9Y3hn/AFc30X+tb1ejhf4SOav8bMbXP+QVcfQVjRvjzR/tcflW9rcQGlTnJ6D+dc3nMxA/iYn/AMdrjxvxr0OnD/C/U5bxnzoyn0lH/oRrjYuldp4yH/EhH/XVf/QjXFxdK1wvwfM5MX8fyH0UUV1HIFFFFABRRRQAUUUUAFFFFABRRRQAUUUUAFFFFABRRRQAtJRRQAUUUUAFFFFABRRRQAUUUUAFFFKOaAEop2BScdqAEpQcUlFADtwo3Cm0UAKTRSUUAFFFLmgAwaXIHSm9e9FAC5NJRRQAUUUUAFFFFABRRRQAUHoaKD0NAGz4M/5Ctx/1y/rXfA4DexrgvBgzqtwfSIfzrvthCSg/xE4/KvLxPxs9bC/w0a2hjAmHoAP51t1j6BGH8/kjG3+tbnlD1Nejhf4SOet8bKWtEHTJhkZ47+9ctFzOh9QT/wCOiui1b/jwm/D+dYEI+eM/7J/pXHjfjXodGG+FnNeNwBoj46eYn8zXERdK7fxt/wAgRv8Aron864eLpWuE+B+pyYv4/kPooorqOQKKKKACiiigAooooAKKKKACiiigAooooAKKKKACiiigAooooAKKKKACiiloASilwaXFADaKXBpcUANp1FB9zQAhOaMGjPpRk0ALgetJxSUUALn2pKUClwPWgBtFLxRkelACUUUUAFFFFABRRRQAUUUUAFFFFABRRRQAUH7tFB6GgDd8EDOrXA/6ZD/0Ku+7E+gJrgvBH/IXuP8ArkP/AEKu9TPmL6d68vE/Gz1sL/DRseHiA1xkgZI6/jW5uHqPzrntE/5a/Rc/rW3Xo4X+Ejmr/GyrrEajTZiM5AHf3rnkGI4z/s4rodYkU6ZOAecD+dc9JKIoEGMlsD6VyYz416HThvhfqcv4340Yj1dP51w0XSu68dj/AIk//A1/nXCx/drXC/B8zkxfxr0H0UUV0nIFFFFABRRRQAUUUUAFFFFABRRRQAUUUoGaAEpcH0p9FADMGjml3CjNACYNL8opM5pKAFpKKUYoAUCnUwn0pKAHZpMmkowaAFzRk0YNGKADk0YPpRil49aAEwfSil3Ckz7UAJRS0lABRRRQAUUUUAFFFFABRRRQAUUUUAFFFFABRRRQAUUUUAFB+7RQfu0Abvgg41if3i/9mrvRL+7kI6oK8+8FH/idye8eP1rvcf60D+JSf0ry8T/EZ62F/ho3NBUO9xnOBjGD9a3PKX3/ADrD8PkRmYMcHapNbnmL616OF/hI563xsytX/wCQfP8AQfzFYFz98egU10mtoo0i4IAyFHP4iufcB3kX/ZyK5Mb8a9Dow3wv1OY8df8AIG/4GtcLH0Fd146/5Ah/30rhYugrXC/B8zkxfxr0H0UUV0nIFFFFABRRRQAUUUUAFFFFABRzRS5NABj1pdwpAPal4oATJpKUn2pKACiiigAoopaAEpcGjI7UZNABj1peBTaKAHbhSZpKKAFzRk0lFABRRRQAUUUUAFFFFABRRRQAUUUUAFFFFABRRRQAUUUUAFFFFABRRRQAUUUUAFB+7RQfu0AbPgz/AJDcn/XMfzrv4hmf8f6VwHgz/kNyf9cx/Ou/Q4uT7Mf5V5eJ+NnrYT+GjW0d1e5uVB5ULn9a2/xrF8PRg3F2GAJ4J/M10GxfSvRwv8JHPW+NmbrcoOk3IGc7f61gIczn/dP862ta/wCQZc/7v9awov8AXMfY/wA65MZ8a9Dow3ws5vx1/wAgY/8AXRf51wsXSu68df8AIGb/AK6L/OuFi6VphfgfqcmL+P5D6KKK6jkClpKKAF/Cj8KSigBePQ0vA9abRQA7NJSUUAFLSUUALSUUUAFFFFABRRRQAUUUUAFFFFABRRRQAUUUUAFFFFABRRRQAUUUUAFFFFABRRRQAUUUUAFFFFABRRRQAUUUUAFFFFABRRRQAUUUUAFB+7RQfu0AbPgz/kNyf9c/616BsxJn1Oa8/wDBn/Idf/rn/WvQzy49sV5eJ+Nnq4X4Ea2hyBbm4znBVMfrW55q+/5Vz2if66c/7K/1ra/z0r0cL/CRhW+NlfXQP7GujgZ2+nvXPQgfOc85PH41va5JnR7lcdVHf3Fc/b9ZPoP61yY3416G+G+F+pzXjr/kCN/11X+dcLF0ruvHX/IDb/rov864WLpWmF+B+py4v416D6KKK6jkCiiigAooooAKKKKACiiigAooooAKKKKACiiigAooooAKKKKACiiigAooooAKKKKACiiigAooooAKKKKACiiigAooooAKKKKACiiigAooooAKKKKACiiigAooooAKKKKACg9DRQehoA2PBv8AyG5P+uf9a9Dj5A+iV554N/5DMn/XL+tehwH7v+6p/KvLxP8AEZ6uF/ho1vDoBefIB+VOv41vYHoK5/QJBHNOMZ+RD/Ot3zR6V6GG/hIwrfGzL1n/AJBlx/uj+YrFiGHcf7IP866LXMf2RcknGFz9cHp9T0rhIvEbbyTpGqYKgD90vbP+171zYuLc0/I2w7STuUvHP/IDP/XRf51wkXQV2PiWa71rTzBaaXfB9wP7xVA/9Crm4/D2tAc6dN+Y/wAarDSUYtN21OfExcpppX0KtFXf+Ef1r/oHTfmP8aP+Ef1r/oHTfmP8a6PaQ7o5/Zz7MpUVe/4R7Wv+gdN+Y/xpP+Ef1n/oHy/iQP60vaQ7oPZT7MpUVe/4R7Wf+fF/++1/xo/4R7Wf+fFv++1/xo9pDug9lPsyjRV7/hHNZP8Ay4t/32v+NH/CPawOti3/AH0v+NHtId0Hsp9mUaKvf8I9rP8Az4t/30P8aP8AhHNZ/wCfFv8Avof40e0h3Q/Yz7Mo0Vf/AOEb1r/nxb/vof407/hGta/58W/77X/Gj2kO6F7KfZmdRWj/AMI1rX/Pkf8Avtf8aP8AhGda/wCfL/yIv+NHtId0P2M+zM6itH/hGda/58v/AB9f8aP+Ea1r/nz/APIi0e0h3Qexn2ZnUVf/AOEb1j/n1H/fxaP+Ea1k/wDLoP8Av4KPaw7oPYz7MoUVpDwvrR6Wg/7+Cl/4RXXP+fMf9/BR7WHdB7GfZmZRWp/wieuf8+Y/7+Cg+E9cHW0X8ZBR7WHdB7GfZmXRWl/wi+t/8+q/9/FpP+EY1n/n2X/v6tHtYd0HsZ9mZ1FaQ8L60f8Al3T/AL+rR/wi2tf8+8f/AH9FHtYd0HsZ9mZtFaf/AAietf8APsn/AH9FO/4RHXD/AMuqf9/RR7WHdB7GfZmVRWr/AMIjrv8Az6p/39FH/CH67/z6x/8Af0Ue1h3Qexn2ZlUVrf8ACH67/wA+0f8A39FJ/wAIfrn/AD7Rf9/hR7WHdB7GfZmVRWr/AMIfrf8Az7xf9/hSHwlrI6wwj/tqKPaw7oPYz7My6K0/+EW1f/nlD/38FH/CKax/zyh/7+Ue2h3Qexn2ZmUVqf8ACJ6x/wA8of8Av5S/8IjrP/PKH/v5R7WHdB7GfZmVRWt/wiGtf88of+/lH/CIa1/zyh/7+Ue2h3Qexn2Zk0VqnwlrA6pAPrKKT/hE9W/6dv8Av8KPbQ7oPYVOzMuitUeEtX/6dv8Av8KX/hD9XPa2/wC/1L20O6D2FTszJorW/wCEQ1f0tv8Av7R/wh2sf3bf/v7R7aHdD9hU7MyaK1/+EN1g/wANv/39pf8AhDNa/u2//fyj20O6D2FTszHorY/4QzWf7tv/AN/P/rUv/CFaz6W3/fz/AOtR7aHdB7Cp2ZjUHoa2v+EJ1r0t/wDv5/8AWpD4K1jpm2/7+f8A1qPbQ7oPYVOzE8HEDWZPePH6136HYiH1iz/L/GuL0bw3rGj35uTHaS5Xbt8/b/St5rnWMKBp1p8sez/j769P9n2rirWnNtM76CcIJNHVaIQbm4A6iNM/ma3q53wf57/aZrpFinfaDEjb1UDOPm7k/QV1NehhtKaOetrNmbqkx/s+b5c4HYZrmTe9OHX/AIBmuslh8xWRkJVhgjHWsK40i8jci3jiePsTJsNc+LpSk00rmtCaSabKIuSf+Wjf9+x/jUgkJ/jb/vipRpOp/wDPJfwnFL/ZOpHrbj8ZM1x+xqdmdHtId0RnZ1aQfiMU3zrQdZU/Opf7Fve9vED7yCnDSL4dIIfoJBR7Gp2Ye0h3RVN1ajgFW9MGk+0wf88T+VXRpWo9rdB/wOj+y9R/55xD2MtHsanZh7SHdFI3UXaPb9QDUZnUtw0Y+vFaB0i/P/LGIn2lpv8AYt+ettH/AN/KPY1OzH7SHdFFPMJ4lT8DUyRS95cfTNWP7DvT/wAsYR/216U3+wr/ALRRH6S0exqdmL2kO6ESLH3pGP0OKQxMCSJGI9CcU/8AsO/7wJ/38pw0O9H8MA/7af8A1qfsZ9mHtId0VXhlPQge5OaljhUJiTazeoGKn/se/wCwiP0fP9KT+xNQPZR/wPH9KPYz7MPaQ7oj8qL+6KPKi/uj8Kk/sK9/vRf9/TSf2Ff9vLPuJDR7Gp2Ye0h3GhFHQkfQCk2f9NG/IVINE1D0jHuXP+FB0S/PB+zEe7//AFqPY1OzF7SHciwO8rfiBR+5HUqfqak/sK9/552x9wc/0pRoV53jtR7k/wD1qXsKnZj9rDuRb7f1T86YfJPQr+HNWv7Eu/S1/wC+v/rU06LqP8IhA9if8KPYVOzD2sO5TMUXUSKP+A0eWvaSM/Vat/2JqZ6tCv1Y0v8AYeo/89bf/vs0ewqdmHtYdyqFlPRoT/wGnhH7qn4AVMdC1A/eEJ/E0Dw/eH73kj6yNzR7Cp2Ye1h3Iwh74H0ApDEv95vw4qb/AIR64/6YH/to1A0C8HSOH8yaPYVOzD2sO5X8vHQsfq5phEvY/mxNXP7Dvx0a2T2JP+FH9iaj2ltifQMf8KfsJ9mL2sO5RxL3VT+dGG7on5kVe/sTU/70P5n/AApRoeod5rcH0JP+FH1ep2Ye2h3KOxf4kj/76ozCOqR/nV46HqHaWBj6An/Cj+w9R/vR/wDfR/wo+r1Owe2h3KQkt/7ifqakEsfREX8iKs/2HfkDM1t9CTxSHw/e9pLdvoTR9Xqdh+1h3KxMpP8AqwB7HNNPmjoP0xVr/hH731h/Wnf8I9dd5bb8SaX1ep2Ye2h3KP749d34MRSOshHDOp/3utXj4euextm+gJx+lOGgXg/59x+B/wAKf1ep2D20O5mIkwxudjzziSpkwOrn6eZmrx0G6P8Ay1tf1pp0C87Pbt7jcaPq9TsL20O5AZVPRVP4g0wu/wDzwTHr1q0PD953aAD1O6nf2Dd/897b82o+rVX0D20O5TyO6xD2INGfRIj9Aauf2Be9pYCPUbqP7Cve8sA9yGo+rVOwe2h3KmWH8CL7gZqMyN/eH4IP8a0P7Auv+e1r/wCPU3+wbztJAR6gNzT+rVew/bQ7mfv92/74WlTaersPqgrQGg3neW3X6g0v9g3X/PxbfkaPq1XsL20O5QxEOsp/EAf0pweAfxK31YVc/wCEfu/71uf+AGmjw7cH70lqv1QjNH1ep2D20O5W8yLsgP0INMeRcfLEfxq8PD1yvKz2wPsCKX+wrz/ntH+Ro+r1Owe2h3Mx5P8Apgp+rf8A1qqybi/+pUZ9HI/kK3hoN0etxGD6EGlXQLnPN1ER3wpJprDVOwOtDuN8MlkNydgAIUZ3E+vrXQ+YfSqltaC1hEaKxHcnnNWNp/u/pXp0Y8kEmcNRqUros1FIoyOKKK0EtxgUbxwKnoooERSKNw4pEUbhxRRT6DJqhdRvPFFFJCCJRvPFT0UUMCuyjceKfEAM8UUUASVX2j0FFFAEsQGDx3px6H6UUUAQbR6VNF92iigp7A/3D9Kh2j0oopMSJo/uCkk+5RRQHUi2j0FTp9wfSiigQ2UDA471FtHoKKKGBZqKVRxxRRQwGBRvXgdasUUUICGRRvHFIijeOKKKoCeoHUbzxRRSAWNRu6VNRRQBXZRvPHenxAZPHaiigCWq20c8CiigB8I4b61Keh+lFFAFfaPQVNF9z8aKKYCv9w/SoNo9KKKQE0f3BSSD5DRRQBFtHoKnT7g+lFFADZAMDjvUW0egoooAs1FMBxxRRQAwKNw4HWrFFFAEMijcOO1JGo3DgUUUAT02iigD/9k=;" vertex="1" parent="1">
          <mxGeometry x="30" y="20" width="237.7" height="170" as="geometry" />
        </mxCell>
        <mxCell id="D7CyiCbgNfwCUPgvzWG9-2" value="" style="shape=image;verticalLabelPosition=bottom;labelBackgroundColor=#ffffff;verticalAlign=top;aspect=fixed;imageAspect=0;image=data:image/jpeg,/9j/4AAQSkZJRgABAQAAAQABAAD/4QBERXhpZgAASUkqAAgAAAABAJiCAgAfAAAAGgAAAAAAAADCqSBEdXRjaCBSZW5haXNzYW5jZSBQcmVzcyBMTEMAAAAA/+0AalBob3Rvc2hvcCAzLjAAOEJJTQQEAAAAAAAyHAFaAAMbJUccAgAAAgACHAJ0AB7CqSBEdXRjaCBSZW5haXNzYW5jZSBQcmVzcyBMTEM4QklNBCUAAAAAABB88hbX/zqDui7LP/dJJ38F/9sAQwACAgICAgICAgICAwICAgMEAwICAwQFBAQEBAQFBgUFBQUFBQYGBwcIBwcGCQkKCgkJDAwMDAwMDAwMDAwMDAwM/9sAQwEDAwMFBAUJBgYJDQsJCw0PDg4ODg8PDAwMDAwPDwwMDAwMDA8MDAwMDAwMDAwMDAwMDAwMDAwMDAwMDAwMDAwM/8IAEQgDnwSwAwERAAIRAQMRAf/EABwAAQEBAQEBAQEBAAAAAAAAAAAGBwgDBAUBAv/EABoBAQEBAQEBAQAAAAAAAAAAAAAFBAYBAwL/2gAMAwEAAhADEAAAAe/gAAAAAAAAAAAAAAAAAAAAAAAAAAAAAAAAAAAAAAAAAAAAAAAAAAAAAAAAAAAAAAAAAAAAAAAAAAAAAAAAAAAAAAAAAAAAAAAAAAAAAAAAAAAAAAAAAAAAAAAAAAAAAAAAAAAAAAAAAAAAAAAAAAAAAAAAAAAAAAAAAAAAAAAAAAAAAAAAAAAAAAAAAAAAAAAAAAAAAAAAAAAAAAAAAAAAAAAAAAAAAAAAAAAAAAAAAAAAAAAAAAAAAAAAAAAAAAAAAAAAAAAAAAAAAAAAAAAAAAAAAAAAAAAAAAAAAAAAAAAAAAAAAAAAAAAAAAAAAAAAAAAAAAAAAAAAAAAAAAAAAAAAAAAAAAAAAAAAAAAAAAAAAAAAAAAAAAAAAAAAAAAAAAAAAAAAAAAAAAAAAAAAAAAAAAAAAAAAAAAAAAAAAAAAAAAAAAAAAAAAAAAAAAAAAAAAAAAAAAAAAAAAAAAAAAAAAAAAAAAAAAAAAAAAAAAAAAAAAAAAAAAAAAAAAAAAAAAAAAAAAAAAAAAAAAAAAAAAAAAAAAAAAAAAAAAAAAAAAAAAAAAAAAAAAAAAAAAAAAAAAAAAAAAAAAAAAAAAAAAAAAAAAAAAAAAAAAAAAAAAAAAAAAAAAAAAAAAAAAAAAAAAAAAAAAAAAAAAAAAAAAAAAAAAAAAAAAAAAAAAAAAAAAAAAAAAAAAAAAAAAAAAAAAAAAAAAAAAAAAAAAAAAAAAAAAAAAAAAAAAAAAAAAAAAAAAAAAAAAAAAAAAAAAAAAAAAAAAAAAAAAAAAAAAAAAAAAAAAAAAAAAAAAAAAAAAAAAAAAAAAAAAAAAAAAAAAAAAAAAAAAAAAAAAAAAAAAAAAAAAAAAAAAAAAAAAAAAAAAAAAAAAAAAAAAAAAAAAAAAAAAAAAAAAAAAAAAAAAAAAAAAAAAAAAAAAAAAAAAAAAAAAAAAAAAAAAAAAAAAAAAAAAAAAAAAAAAAAAAAAAAAAAAAAAAAAAAAAAAAAAAAAAAAAAAAAAAAAAAAAAAAAAAAAAAAAAAAAAAAAAAAAAAAAAAAAAAAAAAAAAAAAAAAAAAAAAAAAAAAAAAAAAAAAAAAAAAAAAAAAAAAAAAAAAAAAAAAAAAAAAAAAAAAZn8vvzFipe3noAAAAAAAAAAAAAAAAAAAAAAAAAAAAAAAAAAAAAAAAAAAAAAAAAAAAAAAAAAAAAAAAAA8vfOnts3Svr8AAAAABgubZwhI6D3899vPQAAAAAAAAAAAAAAAAAAAAAAAAAAAAAAAAAAAAAAAAAAAAAAAAAAAAAAAAAAAAAAAAB5e+ePvneNjn920YwAAAABgubZw9G6L4f1+ffz3289AAAAAAAAAAAAAAAAAAAAAAAAAAAAAAAAAAAAAAAAAAAAAAAAAAAAAAAAAAAAAAAAHl754++fZ+f13La53dtGMAAAAAYLm2cOxuiEpsnzmyWAAAAAAAAAAAAAAAAAAAAAAAAAAAAAAAAAAAAAAAAAAAAAAAAAAAAAAAAAAAAAAAAKTFVqsm8dzWud3bRjAAAAAGC5tnDsbohHb5UhRhgAAAAAAAAAAAAAAAAAAAAAAAAAAAAAAAAAAAAAAAAAAAAAAAAAAAAAAAAAAAAAAACxm3a/DUHc1rnd20YwAAAABgubZw7G6IR2+VIUYYAAAAAAAAAAAAAAAAAAAAAAAAAAAAAAAAAAAAAAAAAAAAAAAAAAAAAAAAAAAAAAAAsZt2vw1B3Na53dtGMAAAAAYLm2cOxuiEdvlSFGGAAAAAAAAAAAAAAAAAAAAAAAAAAAAAAAAAAAAAAAAAAAAAAAAAAAAAAAAAAAAAAAALGbdr8NQdzWud3bRjAAAAAGC5tnDsbohHb5UhRhgAAAAAAAAAAAAAAAAAAAAAAAAAAAAAAAAAAAAAAAAAAAAAAAAAAAAAAAAAAAAAAACxm3a/DUHc1rnd20YwAAAABgubZw7G6IR2+VIUYYAAAAAAAAAAAAAAAAAAAAAAAAAAAAAAAAAAAAAAAAAAAAAAAAAAAAAAAAAAAAAAAAsZt2vw1B3Na53dtGMAAAAAYLm2cOxuiEdvlSFGGAAAAAAAAAAAAAAAAAAAAAAAAAAAAAAAAAAAAAAAAAAAAAAAAAAAAAAAAAAAAAAAALGbdr8NQdzWud3bRjAAAAAGC5tnDsbohHb5UhRhgAAAAAAAAAAAAAAAAAAAAAAAAAAAAAAAAAAAAAAAAAAAAAAAAAAAAAAAAAAAAAAACxm3a/DUHc1rnd20YwAAAABgubZw7G6IR2+VIUYYAAAAAAAAAAAAAAAAAAAAAAAAAAAAAAAAAAAAAAAAAAAAAAAAAAAAAAAAAAAAAAAAsZt2vw1B3Na53dtGMAAAAAYLm2cOxuiEdvlSFGGAAAAAAAAAAAAAAAAAAAAAAAAAAAAAAAAAAAAAAAAAAAAAAAAAAAAAAAAAAAAAAAALGbdr8NQdzWud3bRjAAAAAGC5tnDsbohHb5UhRhgAAAAAAAAAAAAAAAAAAAAAAAAAAAAAAAAAAAAAAAAAAAAAAAAAAAAAAAAAAAAAAACxm3a/DUHc1rnd20YwAAAABgubZw7G6IR2+VIUYYAAAAAAAAAAAAAAAAAAAAAAAAAAAAAAAAAAAAAAAAAAAAAAAAAAAAAAAAAAAAAAAAsZt2vw1B3Na53dtGMAAAAAYLm2cOxuiEdvlSFGGAAAAAAAAAAAAAAAAAAAAAAAAAAAAAAAAAAAAAAAAAAAAAAAAAAAAAAAAAAAAAAAALGbdr8NQdzWud3bRjAAAAAGC5tnDsbohHb5UhRhgAAAAAAAAAAAAAAAAAAAAAAAAAAAAAAAAAAAAAAAAAAAAAAAAAAAAAAAAAAAAAAACxm3a/DUHc1rnd20YwAAAABgubZw7G6IR2+VIUYYAAAAAAAAAAAAAAAAAAAAAAAAAAAAAAAAAAAAAAAAAAAAAAAAAAAAAAAAAAAAAAAAsZt2vw1B3Na53dtGMAAAAAYLm2cOxuiEdvlSFGGAAAAAAAAAAAAAAAAAAAAAAAAAAAAAAAAAAAAAAAAAAAAAAAAAAAAAAAAAAAAAAAALGbdr8NQdzWud3bRjAAAAAGC5tnDsbohHb5UhRhgAAAAAAAAAAAAAAAAAAAAAAAAAAAAAAAAAAAAAAAAAAAAAAAAAAAAAAAAAAAAAAACxm3a/DUHc1rnd20YwAAAABgubZw7G6IR2+VIUYYAAAAAAAAAAAAAAAAAAAAAAAAAAAAAAAAAAAAAAAAAAAAAAAAAAAAAAAAAAAAAAAAsZt2vw1B3Na53dtGMAAAAAYLm2cOxuiEdvlSFGGAAAAAAAAAAAAAAAAAAAAAAAAAAAAAAAAAAAAAAAAAAAAAAAAAAAAAAAAAAAAAAAALGbdr8NQdzWud3bRjAAAAAGC5tnDsbohHb5UhRhgAAAAAAAAAAAAAAAAAAAAAAAAAAAAAAAAAAAAAAAAAAAAAAAAAAAAAAAAAAAAAAACxm3a/DUHc1rnd20YwAAAABgubZw7G6IR2+VIUYYAAAAAAAAAAAAAAAAAAAAAAAAAAAAAAAAAAAAAAAAAAAAAAAAAAAAAAAAAAAAAAAAsZt2vw1B3Na53dtGMAAAAAYLm2cOxuiEdvlSFGGAAAAAAAAAAAAAAAAAAAAAAAAAAAAAAAAAAAAAAAAAAAAAAAAAAAAAAAAAAAAAAAALGbdr8NQdzWud3bRjAAAAAGC5tnDsbohHb5UhRhgAAAAAAAAAAAAAAAAAAAAAAAAAAAAAAAAAAAAAAAAAAAAAAAAAAAAAAAAAAAAAAACxm3a/DUHc1rnd20YwAAAABgubZw7G6IR2+VIUYYAAAAAAAAAAAAAAAAAAAAAAAAAAAAAAAAAAAAAAAAAAAAAAAAAAAAAAAAAAAAAAAAsZt2vw1B3Na53dtGMAAAAAYLm2cOxuiEdvlSFGGAAAAAAAAAAAAAAAAAAAAAAAAAAAAAAAAAAAAAAAAAAAAAAAAAAAAAAAAAAAAAAAALGbdr8NQdzWud3bRjAAAAAGC5tnDsbohHb5UhRhgAAAAAAAAAAAAAAAAAAAAAAAAAAAAAAAAAAAAAAAAAAAAAAAAAAAAAAAAAAAAAAACxm3a/DUHc1rnd20YwAAAABgubZw7G6IR2+VIUYYAAAAAAAAAAAAAAAAAAAAAAAAAAAAAAAAAAAAAAAAAAAAAAAAAAAAAAAAAAAAAAAAsZt2vw1B3Na53dtGMAAAAAYLm2cOxuiEdvlSFGGAAAAAAAAAAAAAAAAAAAAAAAAAAAAAAAAAAAAAAAAAAAAAAAAAAAAAAAAAAAAAAAALGbdr8NQdzWud3bRjAAAAAGC5tnDsbohHb5UhRhgAAAAAAAAAAAAAAAAAAAAAAAAAAAAAAAAAAAAAAAAAAAAAAAAAAAAAAAAAAAAAAACxm3a/DUHc1rnd20YwAAAABgubZw7G6IR2+VIUYYAAAAAAAAAAAAAAAAAAAAAAAAAAAAAAAAAAAAAAAAAAAAAAAAAAAAAAAAAAAAAAAAsZt2vw1B3Na53dtGMAAAAAYLm2cOxuiEdvlSFGGAAAAAAAAAAAAAAAAAAAAAAAAAAAAAAAAAAAAAAAAAAAAAAAAAAAAAAAAAAAAAAAALGbdr8NQdzWud3bRjAAAAAGC5tnDsbohHb5UhRhgAAAAAAAAAAAAAAAAAAAAAAAAAAAAAAAAAAAAAAAAAAAAAAAAAAAAAAAAAAAAAAACxm3a/DUHc1rnd20YwAAAABgubZw7G6IR2+VIUYYAAAAAAAAAAAAAAAAAAAAAAAAAAAAAAAAAAAAAAAAAAAAAAAAAAAAAAAAAAAAAAAAsZt2vw1B3Na53dtGMAAAAAYLm2cOxuiEdvlSFGGAAAAAAAAAAAAAAAAAAAAAAAAAAAAAAAAAAAAAAAAAAAAAAAAAAAAAAAAAAAAAAAALGbdr8NQdzWud3bRjAAAAAGC5tnDsbohHb5UhRhgAAAAAAAAAAAAAAAAAAAAAAAAAAAAAAAAAAAAAAAAAAAAAAAAAAAAAAAAAAAAAAACxm3a/DUHc1rnd20YwAAAABgubZw7G6IR2+VIUYYAAAAAAAAAAAAAAAAAAAAAAAAAAAAAAAAAAAAAAAAAAAAAAAAAAAAAAAAAAAAAAAAsZt2vw1B3Na53dtGMAAAAAYLm2cOxuiEdvlSFGGAAAAAAAAAAAAAAAAAAAAAAAAAAAAAAAAAAAAAAAAAAAAAAAAAAAAAAAAAAAAAAAALGbdr8NQdzWud3bRjAAAAAGC5tnDsbohHb5UhRhgAAAAAAAAAAAAAAAAAAAAAAAAAAAAAAAAAAAAAAAAAAAAAAAAAAAAAAAAAAAAAAACxm3a/DUHc1rnd20YwAAAABgubZw7G6IR2+VIUYYAAAAAAAAAAAAAAAAAAAAAAAAAAAAAAAAAAAAAAAAAAAAAAAAAAAAAAAAAAAAAAAAsZt2vw1B3Na53dtGMAAAAAYLm2cOxuiEdvlSFGGAAAAAAAAAAAAAAAAAAAAAAAAAAAAAAAAAAAAAAAAAAAAAAAAAAAAAAAAAAAAAAAALGbdr8NQdzWud3bRjAAAAAGC5tnDsbohHb5UhRhgAAAAAAAAAAAAAAAAAAAAAAAAAAAAAAAAAAAAAAAAAAAAAAAAAAAAAAAAAAAAAAACxm3a/DUHc1rnd20YwAAAABgubZw7G6IR2+VIUYYAAAAAAAAAAAAAAAAAAAAAAAAAAAAAAAAAAAAAAAAAAAAAAAAAAAAAAAAAAAAAAAAsZt2vw1B3Na53dtGMAAAAAYLm2cOxuiEdvlSFGGAAAAAAAAAAAAAAAAAAAAAAAAAAAAAAAAAAAAAAAAAAAAAAAAAAAAAAAAAAAAAAAALGbdr8NQdzWud3bRjAAAAAGC5tnDsbohHb5UhRhgAAAAAAAAAAAAAAAAAAAAAAAAAAAAAAAAAAAAAAAAAAAAAAAAAAAAAAAAAAAAAAACxm3a/DUHc1rnd20YwAAAABgubZw7G6IR2+VIUYYAAAAAAAAAAAAAAAAAAAAAAAAAAAAAAAAAAAAAAAAAAAAAAAAAAAAAAAAAAAAAAAAsZt2vw1B3Na53dtGMAAAAAYLm2cOxuiEdvlSFGGAAAAAAAAAAAAAAAAAAAAAAAAAAAAAAAAAAAAAAAAAAAAAAAAAAAAAAAAAAAAAAAALGbdr8NQdzWud3bRjAAAAAGC5tnDsbohHb5UhRhgAAAAAAAAAAAAAAAAAAAAAAAAAAAAAAAAAAAAAAAAAAAAAAAAAAAAAAAAAAAAAAACxm3a/DUHc1rnd20YwAAAABgubZw7G6IR2+VIUYYAAAAAAAAAAAAAAAAAAAAAAAAAAAAAAAAAAAAAAAAAAAAAAAAAAAAAAAAAAAAAAAAsZt2vw1B3Na53dtGMAAAAAYLm2cOxuiEdvlSFGGAAAAAAAAAAAAAAAAAAAAAAAAAAAAAAAAAAAAAAAAAAAAAAAAAAAAAAAAAAAAAAAALGbdr8NQdzWud3bRjAAAAAGC5tnDsbohHb5UhRhgAAAAAAAAAAAAAAAAAAAAAAAAAAAAAAAAAAAAAAAAAAAAAAAAAAAAAAAAAAAAAAACxm3a/DUHc1rnd20YwAAAABgubZw7G6IR2+VIUYYAAAAAAAAAAAAAAAAAAAAAAAAAAAAAAAAAAAAAAAAAAAAAAAAAAAAAAAAAAAAAAAAsZt2vw1B3Na53dtGMAAAAAYLm2cOxuiEdvlSFGGAAAAAAAAAAAAAAAAAAAAAAAAAAAAAAAAAAAAAAAAAAAAAAAAAAAAAAAAAAAAAAAALGbdr8NQdzWud3bRjAAAAAGC5tnDsbohHb5UhRhgAAAAAAAAAAAAAAAAAAAAAAAAAAAAAAAAAAAAAAAAAAAAAAAAAAAAAAAAAAAAAAACxm3a/DUHc1rnd20YwAAAABgubZw7G6IR2+VIUYYAAAAAAAAAAAAAAAAAAAAAAAAAAAAAAAAAAAAAAAAAAAAAAAAAAAAAAAAAAAAAAAAsZt2vw1B3Na53dtGMAAAAAYLm2cOxuiEdvlSFGGAAAAAAAAAAAAAAAAAAAAAAAAAAAAAAAAAAAAAAAAAAAAAAAAAAAAAAAAAAAAAAAALGbdr8NQdzWud3bRjAAAAAGC5tnDsbohHb5UhRhgAAAAAAAAAAAAAAAAAAAAAAAAAAAAAAAAAAAAAAAAAAAAAAAAAAAAAAAAAAAAAAACxm3a/DUHc1rnd20YwAAAABgubZw7G6IR2+VIUYYAAAAAAAAAAAAAAAAAAAAAAAAAAAAAAAAAAAAAAAAAAAAAAAAAAAAAAAAAAAAAAAAsZt2vw1B3Na53dtGMAAAAAYLm2cOxuiEdvlSFGGAAAAAAAAAAAAAAAAAAAAAAAAAAAAAAAAAAAAAAAAAAAAAAAAAAAAAAAAAAAAAAAALGbdr8NQdzWud3bRjAAAAAGC5tnDsbohHb5UhRhgAAAAAAAAAAAAAAAAAAAAAAAAAAAAAAAAAAAAAAAAAAAAAAAAAAAAAAAAAAAAAAACxm3a/DUHc1rnd20YwAAAABgubZw7G6IR2+VIUYYAAAAAAAAAAAAAAAAAAAAAAAAAAAAAAAAAAAAAAAAAAAAAAAAAAAAAAAAAAAAAAAAsZt2vw1B3Na53dtGMAAAAAYLm2cOxuiEdvlSFGGAAAAAAAAAAAAAAAAAAAAAAAAAAAAAAAAAAAAAAAAAAAAAAAAAAAAAAAAAAAAAAAALGbdr8NQdzWud3bRjAAAAAGC5tnDsbohHb5UhRhgAAAAAAAAAAAAAAAAAAAAAAAAAAAAAAAAAAAAAAAAAAAAAAAAAAAAAAAAAAAAAAACxm3a/DUHc1rnd20YwAAAABgubZw7G6IR2+VIUYYAAAAAAAAAAAAAAAAAAAAAAAAAAAAAAAAAAAAAAAAAAAAAAAAAAAAAAAAAAAAAAAAsZt2vw1B3Na53dtGMAAAAAYLm2cOxuiEdvlSFGGAAAAAAAAAAAAAAAAAAAAAAAAAAAAAAAAAAAAAAAAAAAAAAAAAAAAAAAAAAAAAAAALGbdr8NQdzWud3bRjAAAAAGC5tnDsbohHb5UhRhgAAAAAAAAAAAAAAAAAAAAAAAAAAAAAAAAAAAAAAAAAAAAAAAAAAAAAAAAAAAAAAACxm3a/DUHc1rnd20YwAAAABgubZw7G6IR2+VIUYYAAAAAAAAAAAAAAAAAAAAAAAAAAAAAAAAAAAAAAAAAAAAAAAAAAAAAAAAAAAAAAAAsZt2vw1B3Na53dtGMAAAAAYLm2cOxuiEdvlSFGGAAAAAAAAAAAAAAAAAAAAAAAAAAAAAAAAAAAAAAAAAAAAAAAAAAAAAAAAAAAAAAAALGbdr8NQdzWud3bRjAAAAAGC5tnDsbohHb5UhRhgAAAAAAAAAAAAAAAAAAAAAAAAAAAAAAAAAAAAAAAAAAAAAAAAAAAAAAAAAAAAAAACxm3a/DUHc1rnd20YwAAAABgubZw7G6IR2+VIUYYAAAAAAAAAAAAAAAAAAAAAAAAAAAAAAAAAAAAAAAAAAAAAAAAAAAAAAAAAAAAAAAAsZt2vw1B3Na53dtGMAAAAAYLm2cOxuiEdvlSFGGAAAAAAAAAAAAAAAAAAAAAAAAAAAAAAAAAAAAAAAAAAAAAAAAAAAAAAAAAAAAAAAALGbdr8NQdzWud3bRjAAAAAGC5tnDsbohHb5UhRhgAAAAAAAAAAAAAAAAAAAAAAAAAAAAAAAAAAAAAAAAAAAAAAAAAAAAAAAAAAAAAAACxm3a/DUHc1rnd20YwAAAABgubZw7G6IR2+VIUYYAAAAAAAAAAAAAAAAAAAAAAAAAAAAAAAAAAAAAAAAAAAAAAAAAAAAAAAAAAAAAAAAsZt2vw1B3Na53dtGMAAAAAYLm2cOxuiEdvlSFGGAAAAAAAAAAAAAAAAAAAAAAAAAAAAAAAAAAAAAAAAAAAAAAAAAAAAAAAAAAAAAAAALGbdr8NQdzWud3bRjAAAAAGC5tnDsbohHb5UhRhgAAAAAAAAAAAAAAAAAAAAAAAAAAAAAAAAAAAAAAAAAAAAAAAAAAAAAAAAAAAAAAACxm3a/DUHc1rnd20YwAAAABgubZw7G6IR2+VIUYYAAAAAAAAAAAAAAAAAAAAAAAAAAAAAAAAAAAAAAAAAAAAAAAAAAAAAAAAAAAAAAAAsZt2vw1B3Na53dtGMAAAAAYLm2cOxuiEdvlSFGGAAAAAAAAAAAAAAAAAAAAAAAAAAAAAAAAAAAAAAAAAAAAAAAAAAAAAAAAAAAAAAAALGbdr8NQdzWud3bRjAAAAAGC5tnDsbohHb5UhRhgAAAAAAAAAAAAAAAAAAAAAAAAAAAAAAAAAAAAAAAAAAAAAAAAAAAAAAAAAAAAAAACxm3a/DUHc1rnd20YwAAAABgubZw7G6IR2+VIUYYAAAAAAAAAAAAAAAAAAAAAAAAAAAAAAAAAAAAAAAAAAAAAAAAAAAAAAAAAAAAAAAAsZt2vw1B3Na53dtGMAAAAAYLm2cOxuiEdvlSFGGAAAAAAAAAAAAAAAAAAAAAAAAAAAAAAAAAAAAAAAAAAAAAAAAAAAAAAAAAAAAAAAALGbdr8NQdzWud3bRjAAAAAGC5tnDsbohHb5UhRhgAAAAAAAAAAAAAAAAAAAAAAAAAAAAAAAAAAAAAAAAAAAAAAAAAAAAAAAAAAAAAAACxm3a/DUHc1rnd20YwAAAABgubZw7G6ISmyfObJYAAAAAAAAAAAAAAAAAAAAAAAAAAAAAAAAAAAAAAAAAAAAAAAAAAAAAAAAAAAAAAAApMVWqybx3Na53dtGMAAAAAYLm2cOxui+L9/n3/Pvt56AAAAAAB/j3z8r6/H/AEAAD2/P6/Q+f1AAAAAAAAAAAAAAAAAAAAAAAAAAAAAAA+T9/j5P38wAAPs/H0+r8fsAAAAAAAAAAAAAAAAeXvnh759n5/Xc1rnd20YwAAAABgubZwhJ6D3/AD77ee2n1z6h98YAGY/DXE/LSAAAPH9fn8jRk9vP0AAH5/X6/wANIAAAAAAAAAAAAAAAAAAAAAAAAAAAAAAH5v1+Pl9PkAAB7fP6/o/L7AAAAAAAAADXtGCm+nyAH8MJyUvi8/QAAA8vfPD3zvKxz+7aMYAAAAwXLuyfNvjPx9cey7fbz0Wv1z6xpyAAZTm1xHy0AAAD/P6/Pnsm/wBegAB8dHrn1gAAAAAAAAAAAAAAAAAAAAAAAAAAAAAAef1+H804wAAP7m2+ny+wAAAAAAAAA2LThq/r8gB/nxgGOj8fn6AAAA8vfNi1YrH9/LT9GLoPXPAAAHHU23z7NugAAAAAAAAAAAAAAAAAAAAAAAAAAAAAAAAAAAAAAAAAAAAAAAAAAAAAAAAAAAAAAAAAAAADdKMTtOnCAAAHOWSjjOOkAAAAAAAAAAAAAAAAAAAAAAAAAAAAAAAAAAAAAAAAAAAAAAAAAAAAAAAAAAAAAAAAAAAAANb1zumNk0AAAAAAAAAAAAAAAAAAAAAAAAAAAAAAAAAAAAAAAAAAAAAAAAAAAAAAAAAAAAAAAAAAAAAAAAAAAAAAAAAAAAAAAAAAAAAAAAAAAAAAAAAAAAAAAAAAAAAAAAAAAAAAAAAAAAAAAAAAAAAAAAAAAAAAAAAAAAAAAAAAAAAAAAAAAAAAAAAAAAAAAAAAAAAAAAAAAAAAAAAAAAAAAAAAAAAAAAAAAAAAAAAAAAAAAAAAAAAAAAAAAAAAAAAAAAAAAAAAAAAAAAAAAAAAAAAAAAAAAAAAAAAAAAAAAAAAAAAAAAAAAAAAAAAAAAAAAAAAAAAAAAAAAAAAAAAAAAAAAAAAAAAAAAAAAAAAAAAAAAAAAAAAAAAAAAAAAAAAAAAAAAAAAAAAAAAAAAAAAAAAAAAAAAAAAAAAAAAAAAAAAAAAAAAAAAAAAAAAAAAAAAAAAAAAAAAAAAAAAAAAAAAAAAAAAAAAAAAAAAAAAAAAAAAAAAAAAAAAAAAAAAAAAAAAAAAAAAAAAAAAAAAAAAAAAAAAAAAAAAAAAAAAAAAAAAAAAAAAAAAAAAAAAAAAAAAAAAAAAAAAAAAAAAAAAAAAAAAAAAAAAAAAAAAAAAAAAAAAAAAAAAAAAAAAAAAAAAAAAAAAAAAAAAAAAAAAAAAAAAAAAAAAAAAAAAAAAAAAAAAAAAAAAAAAAAAAAAAAAAAAAAAAAAAAAAAAAAAAAAAAAAAAAAAAAAAAAAAAAAAAAAAAAAAAAAAAAAAAAAAAAAAAAAAAAAAAAAAAAAAAAAAAAAAAAAAAAAAAAAAAAAAAAAAAAAAAAAAAAAAAAAAAAAAAAAAAAAAAAAAAAAAAAAAAAAAAAAAAAAAAAAAAAAAAAAAAAAAAAAAAAAAAAAAAAAAAAAAAAAAf/8QALhAAAQEHBAMAAAYCAwAAAAAAAAQFBgcQFBc2ExYwcAECAxESIDM1UDEyQKCw/9oACAEBAAEFAv8Aw0HtbSlgMb0iY8H08XIeIuQ8Rch4i5DxFyHiLkPEXIeIuQ8Rch4i5DxFyHiLkPEXIeIuQ8Rch4i5DxFyHiLkPEXIeIuQ8Rch4i5DxFyHiLkPEXIeIuQ8Rch4i5DxFyHiLkPEXIeIuQ8Rch4i5DxFyHiLkPEXIeIuQ8Rch4i5DxFyHiLkPEXIeIuQ8Rch4i5DxFyHiLkPEXIeIuQ8Rch4i5DxFyHiLkPEXIeIuQ8Rch4i5DxFyHiLkPEXIeIuQ8Rch4i5DxFyHiLkPEXIeIuQ8Rch4i5DxFyHiLkPEXIeIuQ8Rch4i5DxFyHiLkPEXIeIuQ8Rch4i5DxFyHiLkPEXIeIuQ8Rch4i5DxFyHiLkPEXIeIuQ8Rch4i5DxFyHiLkPEXIeIuQ8Rch4i5DxFyHiLkPEXIeIuQ8Rch4i5DxFyHiLkPEXIeIuQ8Rch4i5DxFyHiLkPEXIeIuQ8Rch4i5DxFyHiLkPEXIeIuQ8Rch4i5DxFyHiLkPEXIeIuQ8Rch4i5DxFyHiLkPEXIeIuQ8R7xLeD08Om2VLeY3JEfGvf08/m9Pfx9PHQnv7+PTx6enn8Yc4xyRHxo9/Tz+Pp7+Pp46C9/fx6ePT08/iQ5xjkiPjUmh7+3y9qtQVagq1BVqCrUFWoKtQVagq1BVqCrUFWoKtQVagq1BVqCrUFWoKtQVagq1BVqCrUFWoKtQVagq1BVqCrUFWoKtQVagq1BVqCrUFWoKtQVagq1BVqCrUFWoKtQVagq1BVqCrUFWoKtQVagq1BVqCrUFWoKtQVagq1BVqCrUFWoKtQVagq1BVqCrUFWoKtQVagq1BVqCrUFWoKtQVagq1BVqCrUFWoKtQVagq1BVqCrUFWoKtQVagq1BVqCrUFWoKtQVagq1BVqCrUFWoKtQVagq1BVqCrUFWoKtQVagq1BVqCrUFWoKtQVagq1BVqCrUFWoKtQVagq1BVqCrUFWoKtQVagq1BVqCrUFWoKtQVagq1BVqBn+/t9fMoc4xyRHxqTV6DZU4c4xyRHxqTV6DZU4c4xyRHxqTV6DZU4c4xyRHxqTV6DZU4c4xyRHxqTV6DZU4c4xyRHxqTV6DZU4c4xyRHxqTV6DZU4c4xyRHxqTV6DZU4c4xyRHxqTV6DZU4c4xyRHxqTV6DZU4c4xyRHxqTV6DZU4c4xyRHxqTV6DZU4c4xyRHxqTV6DZU4c4xyRHxqTV6DZU4c4xyRHxqTV6DZU4c4xyRHxqTV6DZU4c4xyRHxqTV6DZU4c4xyRHxqTV6DZU4c4xyRHxqTV6DZU4c4xyRHxqTV6DZU4c4xyRHxqTV6DZU4c4xyRHxqTV6DZU4c4xyRHxqTV6DZU4c4xyRHxqTV6DZU4c4xyRHxqTV6DZU4c4xyRHxqTV6DZU4c4xyRHxqTV6DZU4c4xyRHxqTV6DZU4c4xyRHxqTV6DZU4c4xyRHxqTV6DZU4c4xyRHxqTV6DZU4c4xyRHxqTV6DZU4c4xyRHxqTV6DZU4c4xyRHxqTV6DZU4c4xyRHxqTV6DZU4c4xyRHxqTV6DZU4c4xyRHxqTV6DZU4c4xyRHxqTV6DZU4c4xyRHxqTV6DZU4c4xyRHxqTV6DZU4c4xyRHxqTV6DZU4c4xyRHxqTV6DZU4c4xyRHxqTV6DZU4c4xyRHxqTV6DZU4c4xyRHxqTV6DZU4c4xyRHxqTV6DZU4c4xyRHxqTV6DZU4c4xyRHxqTV6DZU4c4xyRHxqTV6DZU4c4xyRHxqTV6DZU4c4xyRHxqTV6DZU4c4xyRHxqTV6DZU4c4xyRHxqTV6DZU4c4xyRHxqTV6DZU4c4xyRHxqTV6DZU4c4xyRHxqTV6DZU4c4xyRHxqTV6DZU4c4xyRHxqTV6DZU4c4xyRHxqTV6DZU4c4xyRHxqTV6DZU4c4xyRHxqTV6DZU4c4xyRHxqTV6DZU4c4xyRHxqTV6DZU4c4xyRHxqTV6DZU4c4xyRHxqTV6DZU4c4xyRHxqTV6DZU4c4xyRHxqTV6DZU4c4xyRHxqTV6DZU4c4xyRHxqTV6DZU4c4xyRHxqTV6DZU4c4xyRHxqTV6DZU4c4xyRHxqTV6DZU4c4xyRHxqTV6DZU4c4xyRHxqTV6DZU4c4xyRHxqTV6DZU4c4xyRHxqTV6DZU4c4xyRHxqTV6DZU4c4xyRHxqTV6DZU4c4xyRHxqTV6DZU4c4xyRHxqTQ9Pb7e1IoKRQUigpFBSKCkUFIoKRQUigpFBSKCkUFIoKRQUigpFBSKCkUFIoKRQUigpFBSKCkUFIoKRQUigpFBSKCkUFIoKRQUigpFBSKCkUFIoKRQUigpFBSKCkUFIoKRQUigpFBSKCkUFIoKRQUigpFBSKCkUFIoKRQUigpFBSKCkUFIoKRQUigpFBSKCkUFIoKRQUigpFBSKCkUFIoKRQUigpFBSKCkUFIoKRQUigpFBSKCkUFIoKRQUigpFBSKCkUFIoKRQUigpFBSKCkUFIoKRQUigpFBSKCkUFIoKRQUigpFBSKCkUFIoKRQUigpFBSKCkUFIoKRQUigpFBSKCkUFIoKRQUigpFBSKCkUFIoKRQUigpFAz/T2+PmUOcY5Ij40e/v58+fT08fPxz+3n8vr4Ufbz41/sa/2Nf7Gv8AY1/sa/2Pl9vb39/7/wC308/Pxr/Y1/sa/wBjX+xr/Y1/sa32Pj9PP09P6L39PHv49Pfz48kOcY5Ij417+/nz7enp4+fgYjE+7cUW5axblrFuWsW5axblrDbYf3YX34Pp+36f6fq+X7/9+p/x+tN+3/xGQ5y5sIrctYty1i3LWLctY8w6avjwo+PlMo4Pf08e/j09/PjzDnGOJ73qXsBVcZvDeexrt9n+nw+/z8aak01Iw2w0WCpuM3i4zeLjN4uM3i4zeG62Gi3lGmpNNSaak01JpqTTUmmpNNSefkp8+Kf7Gh9jQ+xofY0PsaH2ND7Hj4KPHnTUmmpNNSaak01JpqTTUmmpNNSaak01JpqTTUmmpNNSaak01JpqTTUmmpNNSaak01JpqTTUmmpNNSaak01JpqTTUmmpNNSaak01JpqTTUmmpNNSaak01JpqTTUmmpNNSaak01JpqTTUmmpNNSaak01JpqTTUmmpNNSaak01JpqTTUmmpNNSe3xUexofY0PsaH2ND7Gh9jQ+xofY9fio9TTUmmpNNSaak01JpqTTUmmpNNSaak01JpqTTUmmpNNSaak01JpqTTUmmpGM97YYqK4zeLjN4uM3i4zePMRW958KPZWo++mpNNSaak01JpqTTUmmpNNSaak9/go9/DCexrsBn3Gbw6T2tBvNDgiT/K9GQ5/nuB9nca7ZWbGeo2M9RsZ6jYz1GxnqNjPUbGeo2M9RsZ6jYz1GxnqNjPUbGeo2M9RsZ6jYz1GxnqNjPUbGeo2M9RsZ6jYz1GxnqNjPUbGeo2M9RsZ6jYz1GxnqNjPUbGeo2M9RsZ6jYz1GxnqNjPUbGeo2M9RsZ6jYz1GxnqNjPUbGeo2M9RsZ6jYz1GxnqNjPUbGeo2M9RsZ6jYz1GxnqNjPUbGeo2M9RsZ6jYz1GxnqNjPUbGeo2M9RsZ6jYz1GxnqNjPUbGeo2M9RsZ6jYz1GxnqNjPUbGeo2M9RsZ6jYz1GxnqNjPUbGeo2M9RsZ6jYz1GxnqNjPUbGeo2M9RsZ6jYz1GxnqNjPUbGeo2M9RsZ6jYz1GxnqNjPUbGeo2M9RsZ6jYz1GxnqNjPUbGeo2M9RsZ6jYz1GxnqNjPUbGeo2M9RsZ6jYz1GxnqNjPUbGeo2M9RsZ6jYz1GxnqNjPUbGeo2M9RsZ6jYz1GxnqNjPUbGeo2M9RsZ6jYz1GxnqNjPUbGeo2M9RsZ6jYz1GxnqNjPUbGeo2M9Q5btNljtP8A7hn/xAAtEQAABQIHAQACAgICAwAAAAAAAQMVUQIEBRATMDIzcXAREkFSITFAYFCgsP/aAAgBAwEBPwH/AOGhbpEpX+pgsNoP+Q2UyGymQ2UyGymQ2UyGymQ2UyGymQ2UyGymQ2UyGymQ2UyGymQ2UyGymQ2UyGymQ2UyGymQ2UyGymQ2UyGymQ2UyGymQ2UyGymQ2UyGymQ2UyGymQ2UyGymQ2UyGymQ2UyGymQ2UyGymQ2UyGymQ2UyGymQ2UyGymQ2UyGymQ2UyGymQ2UyGymQ2UyGymQ2UyGymQ2UyGymQ2UyGymQ2UyGymQ2UyGymQ2UyGymQ2UyGymQ2UyGymQ2UyGymQ2UyGymQ2UyGymQ2UyGymQ2UyGymQ2UyGymQ2UyGymQ2UyGymQ2UyGymQ2UyGymQ2UyGymQ2UyGymQ2UyGymQ2UyGymQ2UyGymQ2UyGymQ2UyGymQ2UyGymQ2UyGymQ2UyGymQ2UyGymQ2UyGymQ2UyGymQ2UyGymQ2UyGymQ2UyGymQ2UyGymQ2UyGymQ2UyGymQ2UyGymQ2UyGymQ2UyGymQeG0F/IuEiTr/Ut2w7SBl/JAj/AD8FM/wCIX3ae7YdpZGX8kCP8/AzP8Aiyvu092w7Szv1qkiI6Q4LSHBaQ4LSHBaQ4LSHBaQ4LSHBaQ4LSHBaQ4LSHBaQ4LSHBaQ4LSHBaQ4LSHBaQ4LSHBaQ4LSHBaQ4LSHBaQ4LSHBaQ4LSHBaQ4LSHBaQ4LSHBaQ4LSHBaQ4LSHBaQ4LSHBaQ4LSHBaQ4LSHBaQ4LSHBaQ4LSHBaQ4LSHBaQ4LSHBaQ4LSHBaQ4LSHBaQ4LSHBaQ4LSHBaQ4LSHBaQ4LSHBaQ4LSHBaQ4LSHBaQ4LSHBaQ4LSHBaQ4LSHBaQ4LSHBaQ4LSHBaQ4LSHBaQ4LSHBaQ4LSHBaQ4LSHBaQ4LSHBaQ4LSHBaQ4LSHBaQ4LSHBaQ4LSHBaQ4LSHBaQ4LSHBaQ4LSHBaQ4LSHBaQ4LSHBaQ4LSHBaQ4LSHBaQ4LSHBaQ4LSHBaQ4LSHBaQ4LSHBaQ4LSHBaQ4LSHBaQ4LSHBaQ4LSHBaQ4LSHBaQ4LSHBaQ4LSHBaRYLVK0/mrO+7T3bDtLPFeBe/A8K4H7nfdp7th2lnivAvfgeFcD9zvu092w7SzxXgXvwPCuB+533ae7YdpZ4rwL34HhXA/c77tPdsO0s8V4F78Dwrgfud92nu2HaWeK8C9+B4VwP3O+7T3bDtLPFeBe/A8K4H7nfdp7th2lnivAvfgeFcD9zvu092w7SzxXgXvwPCuB+533ae7YdpZ4rwL34HhXA/c77tPdsO0s8V4F78Dwrgfud92nu2HaWeK8C9+B4VwP3O+7T3bDtLPFeBe/A8K4H7nfdp7th2lnivAvfgeFcD9zvu092w7SzxXgXvwPCuB+533ae7YdpZ4rwL34HhXA/c77tPdsO0s8V4F78Dwrgfud92nu2HaWeK8C9+B4VwP3O+7T3bDtLPFeBe/A8K4H7nfdp7th2lnivAvfgeFcD9zvu092w7SzxXgXvwPCuB+533ae7YdpZ4rwL34HhXA/c77tPdsO0s8V4F78Dwrgfud92nu2HaWeK8C9+B4VwP3O+7T3bDtLPFeBe/A8K4H7nfdp7th2lnivAvfgeFcD9zvu092w7SzxXgXvwPCuB+533ae7YdpZ4rwL34HhXA/c77tPdsO0s8V4F78Dwrgfud92nu2HaWeK8C9+B4VwP3O+7T3bDtLPFeBe/A8K4H7nfdp7th2lnivAvfgeFcD9zvu092w7SzxXgXvwPCuB+533ae7YdpZ4rwL34HhXA/c77tPdsO0s8V4F78Dwrgfud92nu2HaWeK8C9+B4VwP3O+7T3bDtLPFeBe/A8K4H7nfdp7th2lnivAvfgeFcD9zvu092w7SzxXgXvwPCuB+533ae7YdpZ4rwL34HhXA/c77tPdsO0s8V4F78Dwrgfud92nu2HaWeK8C9+B4VwP3O+7T3bDtLPFeBe/A8K4H7nfdp7th2lnivAvfgeFcD9zvu092w7SzxXgXvwPCuB+533ae7YdpZ4rwL34HhXA/c77tPdsO0s8V4F78Dwrgfud92nu2HaWeK8C9+B4VwP3O+7T3bDtLPFeBe/A8K4H7nfdp7th2lnivAvfgeFcD9zvu092w7SzxXgXvwPCuB+533ae7YdpZ4rwL34HhXA/c77tPdsO0s8V4F78Dwrgfud92nu2HaWeK8C9+B4VwP3O+7T3bDtLPFeBe/A8K4H7nfdp7th2lnivAvfgeFcD9zvu092w7SzxXgXvwPCuB+533ae7YdpZ4rwL34HhXA/c77tPdsO0s8V4F78Dwrgfud92nu2HaWeK8C9+B4VwP3O+7T3bDtLPFeBe/A8K4H7nfdp7th2lnivAvfgeFcD9zvu092w7SzxXgXvwPCuB+533ae7YdpZ4rwL34HhXA/c77tPdsO0s8V4F78Dwrgfud92nu2HaWeK8C9+B4VwP3O+7T3bDtLPFeBe/A8K4H7nfdp7th2lnivAvfgeFcD9zvu092w7SzxXgXvwPCuB+533ae7YdpZ4rwL34HhXA/c77tPdsO0s8V4F78Dwrgfud92nu2HaWeK8C9+B4VwP3O+7T3bDtLPFeBe/A8K4H7nfdp7th2lnivAvfgeFcD9zvu092w7SzxXgXvwPCuB+533ae7YdpZ4rwL34HhXA/c77tPdsO0s8V4F78Dwrgfud92nu2HaWeK8C9+B4VwP3O+7T3bDtLPFeBe/A8K4H7nfdp7th2lnfo1KkRUhvWgN60BvWgN60BvWgN60BvWgN60BvWgN60BvWgN60BvWgN60BvWgN60BvWgN60BvWgN60BvWgN60BvWgN60BvWgN60BvWgN60BvWgN60BvWgN60BvWgN60BvWgN60BvWgN60BvWgN60BvWgN60BvWgN60BvWgN60BvWgN60BvWgN60BvWgN60BvWgN60BvWgN60BvWgN60BvWgN60BvWgN60BvWgN60BvWgN60BvWgN60BvWgN60BvWgN60BvWgN60BvWgN60BvWgN60BvWgN60BvWgN60BvWgN60BvWgN60BvWgN60BvWgN60BvWgN60BvWgN60BvWgN60BvWgN60BvWgN60BvWgN60BvWgN60BvWgN60BvWgN60BvWgN60BvWgN60BvWgN60BvWgN60BvWgN60BvWgN60BvWgN60BvWgN60BvWgN60BvWgN60BvWgN60CwRqSp/FWd92nu2HaWRn/AIvx/wDP8ABDVOBqVQNSqBqVQNSqBqVQNSqBRWZn+P+gV1fqNSqBqVQNSqBqVQNSqBqVQNSqBRV+xf+DMvyCP+Dyvu092w7SBn/BAi/GVxcEiX5MOlP9TDpT/Uw6U/1MOlP9TDpT/Uxb3JLEZkWzV/owVZfj/Y/cpH7lI/cpH7lI/cpH7lISMjq/6Asf8AgvR+5SP3KR+5SP3KR+5SP3KR+5SEeP8AxVr+lKr9fwHSn+ph0p/qYdKf6mHSn+ph0p/qYoq/akj2TL8gj/gxfdp7dnaEv+f8hnKQjhmnV+xGCSqIadQ06hcWZrF+DMM5SGcpDOUhnKQzlIt7I0SMiMadQ06hp1DTqGnUNOoadQ06hUjVUX4DMUhnKQzlIZykM5SGcpDOUi3w/RP8kY06hp1DTqGnUNOoadQ06hp1DTqGnUNOoadQ06hp1DTqGnUNOoadQ06hp1DTqGnUNOoadQ06hp1DTqGnUNOoadQ06hp1DTqGnUNOoadQ06hp1DTqGnUNOoadQ06hp1DTqGnUNOoadQ06hp1DTqGnUNOoadQ06hp1DTqGnUNOoadQ06hp1DTqFxaGtT+DMM5SGcpDOUhnKQzlIZykM5SELU0qf1IadQ06hp1DTqGnUNOoadQ06hp1DTqGnUNOoadQ06hp1DTqGnUNOoadQ06gthmrV+xmGcpDOUhnKQzlIZykUI1UkRDTqGnUNOoadQ06hp1DTqGnUNOoGlUYVwzUq/YzDOUi8syQIv8AOzg/8/DcY/0WzYXVKH5/Idkw7Jh2TDsmHZMOyYdkw7Jh2TDsmHZMOyYdkw7Jh2TDsmHZMOyYdkw7Jh2TDsmHZMOyYdkw7Jh2TDsmHZMOyYdkw7Jh2TDsmHZMOyYdkw7Jh2TDsmHZMOyYdkw7Jh2TDsmHZMOyYdkw7Jh2TDsmHZMOyYdkw7Jh2TDsmHZMOyYdkw7Jh2TDsmHZMOyYdkw7Jh2TDsmHZMOyYdkw7Jh2TDsmHZMOyYdkw7Jh2TDsmHZMOyYdkw7Jh2TDsmHZMOyYdkw7Jh2TDsmHZMOyYdkw7Jh2TDsmHZMOyYdkw7Jh2TDsmHZMOyYdkw7Jh2TDsmHZMOyYdkw7Jh2TDsmHZMOyYdkw7Jh2TDsmHZMOyYdkw7Jh2TDsmHZMOyYdkw7Jh2TDsmHZMOyYdkw7Ji/u6VyL8f8AuG//xAAtEQABBAAGAgICAQMFAAAAAAAAAQIEFBARMDEyUTNwAxMSFUEhQGAiUGGgsP/aAAgBAgEBPwH/AMND5X/g3MWa5P4Ly9F5ei8vReXovL0Xl6Ly9F5ei8vReXovL0Xl6Ly9F5ei8vReXovL0Xl6Ly9F5ei8vReXovL0Xl6Ly9F5ei8vReXovL0Xl6Ly9F5ei8vReXovL0Xl6Ly9F5ei8vReXovL0Xl6Ly9F5ei8vReXovL0Xl6Ly9F5ei8vReXovL0Xl6Ly9F5ei8vReXovL0Xl6Ly9F5ei8vReXovL0Xl6Ly9F5ei8vReXovL0Xl6Ly9F5ei8vReXovL0Xl6Ly9F5ei8vReXovL0Xl6Ly9F5ei8vReXovL0Xl6Ly9F5ei8vReXovL0Xl6Ly9F5ei8vReXovL0Xl6Ly9F5ei8vReXovL0Xl6Ly9F5ei8vReXovL0Xl6Ly9F5ei8vReXovL0Xl6Ly9F5ei8vReXovL0Xl6Ly9F5ei8vReXovL0Xl6Ly9F5ehJqr/AAfE/wDNuerK4CL/AAoqZehUTMVSL49WVwwRRUy9BomYq4RfHqyuGMViP/opVYVWFVhVYVWFVhVYVWFVhVYVWFVhVYVWFVhVYVWFVhVYVWFVhVYVWFVhVYVWFVhVYVWFVhVYVWFVhVYVWFVhVYVWFVhVYVWFVhVYVWFVhVYVWFVhVYVWFVhVYVWFVhVYVWFVhVYVWFVhVYVWFVhVYVWFVhVYVWFVhVYVWFVhVYVWFVhVYVWFVhVYVWFVhVYVWFVhVYVWFVhVYVWFVhVYVWFVhVYVWFVhVYVWFVhVYVWFVhVYVWFVhVYVWFVhVYVWFVhVYVWFVhVYVWFVhVYVWFVhVYVWFVhVYVWFVhVYVWFVhVYSmIxckxi+PVlcMYW6+g5u6YxfHqyuGMLdfQc3dMYvj1ZXDGFuvoObumMXx6srhjC3X0HN3TGL49WVwxhbr6Dm7pjF8erK4Ywt19Bzd0xi+PVlcMYW6+g5u6YxfHqyuGMLdfQc3dMYvj1ZXDGFuvoObumMXx6srhjC3X0HN3TGL49WVwxhbr6Dm7pjF8erK4Ywt19Bzd0xi+PVlcMYW6+g5u6YxfHqyuGMLdfQc3dMYvj1ZXDGFuvoObumMXx6srhjC3X0HN3TGL49WVwxhbr6Dm7pjF8erK4Ywt19Bzd0xi+PVlcMYW6+g5u6YxfHqyuGMLdfQc3dMYvj1ZXDGFuvoObumMXx6srhjC3X0HN3TGL49WVwxhbr6Dm7pjF8erK4Ywt19Bzd0xi+PVlcMYW6+g5u6YxfHqyuGMLdfQc3dMYvj1ZXDGFuvoObumMXx6srhjC3X0HN3TGL49WVwxhbr6Dm7pjF8erK4Ywt19Bzd0xi+PVlcMYW6+g5u6YxfHqyuGMLdfQc3dMYvj1ZXDGFuvoObumMXx6srhjC3X0HN3TGL49WVwxhbr6Dm7pjF8erK4Ywt19Bzd0xi+PVlcMYW6+g5u6YxfHqyuGMLdfQc3dMYvj1ZXDGFuvoObumMXx6srhjC3X0HN3TGL49WVwxhbr6Dm7pjF8erK4Ywt19Bzd0xi+PVlcMYW6+g5u6YxfHqyuGMLdfQc3dMYvj1ZXDGFuvoObumMXx6srhjC3X0HN3TGL49WVwxhbr6Dm7pjF8erK4Ywt19Bzd0xi+PVlcMYW6+g5u6YxfHqyuGMLdfQc3dMYvj1ZXDGFuvoObumMXx6srhjC3X0HN3TGL49WVwxhbr6Dm7pjF8erK4Ywt19Bzd0xi+PVlcMYW6+g5u6YxfHqyuGMLdfQc3dMYvj1ZXDGFuvoObumMXx6srhjC3X0HN3TGL49WVwxhbr6Dm7pjF8erK4Ywt19Bzd0xi+PVlcMYW6+g5u6YxfHqyuGMLdfQc3dMYvj1ZXDGFuvoObumMXx6srhjC3X0HN3TGL49WVwxhbr6Dm7pjF8erK4Ywt19Bzd0xi+PVlcMYW6+g5u6YxfHqyuGMLdfQc3dMYvj1ZXDGFuvoObumMXx6srhjC3X0HN3TGL49WVwxhbr6Dm7pjF8erK4Ywt19Bzd0xi+PVlcMYW6+g5u6YxfHqyuGMLdfQc3dMYvj1ZXDGFuvoObumMXx6srhjC3X0HN3TGL49WVwxhbr6Dm7pjF8erK4Ywt19Bzd0xi+PVlcMYW6+g5u6YxfHqyuGMV6M/qpZYWWFlhZYWWFlhZYWWFlhZYWWFlhZYWWFlhZYWWFlhZYWWFlhZYWWFlhZYWWFlhZYWWFlhZYWWFlhZYWWFlhZYWWFlhZYWWFlhZYWWFlhZYWWFlhZYWWFlhZYWWFlhZYWWFlhZYWWFlhZYWWFlhZYWWFlhZYWWFlhZYWWFlhZYWWFlhZYWWFlhZYWWFlhZYWWFlhZYWWFlhZYWWFlhZYWWFlhZYWWFlhZYWWFlhZYWWFlhZYWWFlhZYWWFlhZYWWFlhZYWWFlhZYWWFlhZYWWFlhZYWWFlhZYWWFlhZYWWFlhZYSno9c0xi+PVlcMET+VFXP+wQ+tD60PrQ+tD60PrQ+tBzMk/wBjcz60PrQ+tD60PrQ+tD60HtyX/Y0XIVMIvj1ZXARP5UVc8Pj+NfkXJCm8pvKbym8pvPk+NfjXJdFu4rVPxU/FT8VPxU/FT8VPkT/T/gHxbn4qfip+Kn4qfip+Kn4qfLv/a/HHc9M0Kbym8pvKbym4VMtFFyFQi+PTkfP9RfXo+SZ+aZZCuRTNDND4vmT41zQvr0X16L69F9ei+vR8vzJ8i5qZoZoZoZoZoZoZoZoI5EXM/YL0fsF6P2C9H7Bej9gvR+wXo/YL0fNJ+1MlM0M0M0M0M0M0M0M0M0M0M0M0M0M0M0M0M0M0M0M0M0M0M0M0M0M0M0M0M0M0M0M0M0M0M0M0M0M0M0M0M0M0M0M0M0M0M0M0M0M0M0M0M0M0M0M0M0M0M0M0M0M0M0Pi+ZPjXND9gvR+wXo/YL0fsF6P2C9H7Bej9gvR8vyp8js1M0M0M0M0M0M0M0M0M0M0M0M0M0M0M0M0M0M0M0M0PilfWmSF9ei+vRfXovr0X/APgVyKZoZoZoZoZoZoZoZoZoI5EPjmfgmWRfXojyPt0Z/wDHo2B/OjJ+Bfk2KLyi8ovKLyi8ovKLyi8ovKLyi8ovKLyi8ovKLyi8ovKLyi8ovKLyi8ovKLyi8ovKLyi8ovKLyi8ovKLyi8ovKLyi8ovKLyi8ovKLyi8ovKLyi8ovKLyi8ovKLyi8ovKLyi8ovKLyi8ovKLyi8ovKLyi8ovKLyi8ovKLyi8ovKLyi8ovKLyi8ovKLyi8ovKLyi8ovKLyi8ovKLyi8ovKLyi8ovKLyi8ovKLyi8ovKLyi8ovKLyi8ovKLyi8ovKLyi8ovKLyi8ovKLyi8ovKLyi8ovKLyi8ovKLyi8ovKLyi8ovKLyi8ovKLyi8ovKLyi8ovKLyi8jfAvx7/8AcN//xABIEAAAAwMKBQEECAMFCAMAAAAAAQMEMzQCBRBDdJKUodLiETBwsrMSEyEykTVBQlFSgdHhImFxMUBgcqIUFSAjUGJzoLCxwf/aAAgBAQAGPwL/AODQUnBkSTWXJVNORIV4+n+OVw+rgOJMk3/zL0q+7/WISb7qusQk33VdYhJvuq6xCTfdV1iEm+6rrEJN91XWISb7qusQk33VdYhJvuq6xCTfdV1iEm+6rrEJN91XWISb7qusQk33VdYhJvuq6xCTfdV1iEm+6rrEJN91XWISb7qusQk33VdYhJvuq6xCTfdV1iEm+6rrEJN91XWISb7qusQk33VdYhJvuq6xCTfdV1iEm+6rrEJN91XWISb7qusQk33VdYhJvuq6xCTfdV1iEm+6rrEJN91XWISb7qusQk33VdYhJvuq6xCTfdV1iEm+6rrEJN91XWISb7qusQk33VdYhJvuq6xCTfdV1iEm+6rrEJN91XWISb7qusQk33VdYhJvuq6xCTfdV1iEm+6rrEJN91XWISb7qusQk33VdYhJvuq6xCTfdV1iEm+6rrEJN91XWISb7qusQk33VdYhJvuq6xCTfdV1iEm+6rrEJN91XWISb7qusQk33VdYhJvuq6xCTfdV1iEm+6rrEJN91XWISb7qusQk33VdYhJvuq6xCTfdV1iEm+6rrEJN91XWISb7qusQk33VdYhJvuq6xCTfdV1iEm+6rrEJN91XWISb7qusQk33VdYhJvuq6xCTfdV1iEm+6rrEJN91XWISb7qusQk33VdYhJvuq6xCTfdV1iEm+6rrEJN91XWISb7qusQk33VdYhJvuq6xCTfdV1iEm+6rrEJN91XWISb7qusQk33VdYhJvuq6xCTfdV1iEm+6rrEJN91XWISb7qusQk33VdYhJvuq6xCTfdV1iEm+6rrEJN91XWISb7qusQk33VdYhJvuq6xCTfdV1iEm+6rrEJN91XWISb7qusQk33VdYhJvuq6xCTfdV1iEm+6rrEJN91XWISb7qusQk33VdYhJvuq6xCTfdV1iEm+6rrEJN91XWISb7qusQk33VdY4myTf/IvSr7/9YSnBrSTRXlKKSJUhLj6f4JXD6zPmyrWz949ql8f2pP4hxL8y+7oLxP8AIvvHtFPj+zJ/CEbS0eQ+bKtbP30e1S+P7Un8Q4l+Zfd0D4n+RfePaKfH9mT+GhG0tHkPmyrWz99MmUmfpOV8QeGHhh4YeGHhh4YeGHhh4YeGHhh4YeGHhh4YeGHhh4YeGHhh4YeGHhh4YeGHhh4YeGHhh4YeGHhh4YeGHhh4YeGHhh4YeGHhh4YeGHhh4YeGHhh4YeGHhh4YeGHhh4YeGHhh4YeGHhh4YeGHhh4YeGHhh4YeGHhh4YeGHhh4YeGHhh4YeGHhh4YeGHhh4YeGHhh4YeGHhh4YeGHhh4YeGHhh4YeGHhh4YeGHhh4YeGHhh4YeGHhh4YeGHhh4YeGHhh4YeGHhh4YeGHhh4YeGHhh4YeGHhh4YeGHhh4YeGHhh4YeGJUpQ/Ucn4eNKNpaPIfNlWtn76U+galKNpaPIfNlWtn76U+galKNpaPIfNlWtn76U+galKNpaPIfNlWtn76U+galKNpaPIfNlWtn76U+galKNpaPIfNlWtn76U+galKNpaPIfNlWtn76U+galKNpaPIfNlWtn76U+galKNpaPIfNlWtn76U+galKNpaPIfNlWtn76U+galKNpaPIfNlWtn76U+galKNpaPIfNlWtn76U+galKNpaPIfNlWtn76U+galKNpaPIfNlWtn76U+galKNpaPIfNlWtn76U+galKNpaPIfNlWtn76U+galKNpaPIfNlWtn76U+galKNpaPIfNlWtn76U+galKNpaPIfNlWtn76U+galKNpaPIfNlWtn76U+galKNpaPIfNlWtn76U+galKNpaPIfNlWtn76U+galKNpaPIfNlWtn76U+galKNpaPIfNlWtn76U+galKNpaPIfNlWtn76U+galKNpaPIfNlWtn76U+galKNpaPIfNlWtn76U+galKNpaPIfNlWtn76U+galKNpaPIfNlWtn76U+galKNpaPIfNlWtn76U+galKNpaPIfNlWtn76U+galKNpaPIfNlWtn76U+galKNpaPIfNlWtn76U+galKNpaPIfNlWtn76U+galKNpaPIfNlWtn76U+galKNpaPIfNlWtn76U+galKNpaPIfNlWtn76U+galKNpaPIfNlWtn76U+galKNpaPIfNlWtn76U+galKNpaPIfNlWtn76U+galKNpaPIfNlWtn76U+galKNpaPIfNlWtn76U+galKNpaPIfNlWtn76U+galKNpaPIfNlWtn76U+galKNpaPIfNlWtn76U+galKNpaPIfNlWtn76U+galKNpaPIfNlWtn76U+galKNpaPIfNlWtn76U+galKNpaPIfNlWtn76U+galKNpaPIfNlWtn76U+galKNpaPIfNlWtn76U+galKNpaPIfNlWtn76U+galKNpaPIfNlWtn76U+galKNpaPIfNlWtn76U+galKNpaPIfNlWtn76U+galKNpaPIfNlWtn76U+galKNpaPIfNlWtn76U+galKNpaPIfNlWtn76U+galKNpaPIfNlWtn76U+galKNpaPIfNlWtn76U+galKNpaPIfNlWtn76U+galKNpaPIfNlWtn76U+galKNpaPIfNlWtn76U+galKNpaPIfNlWtn76U+galKNpaPIfNlWtn76U+galKNpaPIfNlWtn76U+galKNpaPIfNlWtn76U+galKNpaPIfNlWtn76U+galKNpaPIfNlWtn76U+galKNpaPIfNlWtn76U+galKNpaPIfNlWtn76U+galKNpaPIfNlWtn76U+galKNpaPIfNlWtn76U+galKNpaPIfNlWtn76U+galKNpaPIfNlWtn76U+galKNpaPIfNlWtn76U+galKNpaPIfNlWtn76U+galKNpaPIfNlWtn76U+galKNpaPIfNlWtn76U+galKNpaPIfNlWtn76ZMlMvUcn4g7MOzDsw7MOzDsw7MOzDsw7MOzDsw7MOzDsw7MOzDsw7MOzDsw7MOzDsw7MOzDsw7MOzDsw7MOzDsw7MOzDsw7MOzDsw7MOzDsw7MOzDsw7MOzDsw7MOzDsw7MOzDsw7MOzDsw7MOzDsw7MOzDsw7MOzDsw7MOzDsw7MOzDsw7MOzDsw7MOzDsw7MOzDsw7MOzDsw7MOzDsw7MOzDsw7MOzDsw7MOzDsw7MOzDsw7MOzDsw7MOzDsw7MOzDsw7MOzDsw7MOzDsw7MOzDsw7MOzDsw7MOzDsw7MOzDsw7MOzDsw7MSpKhek5Xw8aUbS0eQ+bKtbP30eyS+P7Ur8I4F+Z/f/cJUr7i4gj9lJ9//AHB1JvB1JvB1JvB1JvB1JvB1JvA5EqQUngXH3Hx/wBJ4F6jlHw4B1JvB1JvB1JvB1JvB1JvB1JvB1JvD1GXpPiZcP6f9D4H+R/cPZqfH9mV+KhG0tHkPmyrWz949kl8f2pX4RwL8z++hRnZ1ZKUtOR6/4vrEUj8v3EUj8v3EUj8v3EUj8v3EUj8v3CTO0KyVZasn1fw/VyVP8piR/Qv+OV/k/wD3/ACX/kLkH/nlf/f91TbWdoTkyJfH+AyPiXA+Aikfl+4ikfl+4ikfl+4ikfl+44m1I8C/t9x/qF2eUZSpSEuVIOUX1+k+HJ4H+R/cPZqfH9mV+II2lo8h8tgZmJlQX/2pJRSXKWOV7vQZF7vT/UfR7B81RKm9oZWRnTNSQp7RM5fq4yD4/WOBez/mfv8AeKrMVWYUaWdFmWlqSfSclT18Mh9HsHzV/UfR7B81f1H0ewfNX9R9HsHzV/UfR7B81f1CbS0IsyEpOT6SJP18MxVZiqzFVmKrMVWYqsxVZiqzBl/y/f8A1Hwo5j4Ucx8KOY+FHMfCjmPhRzHwo5jiXsi+YqsxVZiqzFVmKrMVWYqsxVZiqzFVmKrMVWYqsxVZiqzFVmKrMVWYqsxVZiqzFVmKrMVWYqsxVZiqzFVmKrMVWYqsxVZiqzFVmKrMVWYqsxVZiqzFVmKrMVWYqsxVZiqzFVmKrMVWYqsxVZiqzFVmKrMVWYqsxVZiqzFVmKrMVWYqsxVZiqzBcfZ+7+o+FHMfCjmPhRzHwo5j4Ucx8KOY+FHMcC9nmKrMVWYqsxVZiqzFVmKrMVWYqsxVZiqzFVmKrMVWYqsxVZiqzFVmKrMVWYkMSDIxqyJBmfrlmpx958fqH0ewfNX9R9HsHzV/UfR7B81f1H0ewfNX9QZf7vYPf7v7Vf1CzRKJKTKXlnLOSXq4fxHxFVmKrMVWYqsxVZiqzFVmKrMVWY4H7P8Akfv9wkTczsrIunIly5ftFDl+rjLPif8AYPo9g+aoamJtZWdAkWf20iWicr8Xp4H6uTM1mX7pPQ1vsBeUuTNzTNqaSslmRUTVJRT0e+Ucky+o/uEIy4jaIRlxG0QjLiNohGXEbRCMuI2iEZcRtEIy4jaIRlxG0QjLiNohGXEbRCMuI2iEZcRtEIy4jaIRlxG0QjLiNohGXEbRCMuI2iEZcRtEIy4jaIRlxG0QjLiNohGXEbRCMuI2iEZcRtEIy4jaIRlxG0QjLiNohGXEbRCMuI2iEZcRtEIy4jaIRlxG0QjLiNohGXEbRCMuI2iEZcRtEIy4jaIRlxG0QjLiNohGXEbRCMuI2iEZcRtEIy4jaIRlxG0QjLiNohGXEbRCMuI2iEZcRtEIy4jaIRlxG0QjLiNohGXEbRCMuI2iEZcRtEIy4jaIRlxG0QjLiNohGXEbRCMuI2iEZcRtEIy4jaIRlxG0QjLiNohGXEbRCMuI2iEZcRtEIy4jaIRlxG0QjLiNohGXEbRCMuI2iEZcRtEIy4jaIRlxG0QjLiNohGXEbRCMuI2iEZcRtEIy4jaIRlxG0QjLiNohGXEbRCMuI2iEZcRtEIy4jaIRlxG0QjLiNohGXEbRCMuI2iEZcRtEIy4jaIRlxG0QjLiNohGXEbRCMuI2iEZcRtEIy4jaIRlxG0QjLiNohGXEbRCMuI2iEZcRtEIy4jaIRlxG0QjLiNohGXEbRCMuI2iEZcRtEIy4jaIRlxG0QjLiNohGXEbRCMuI2iEZcRtEIy4jaIRlxG0QjLiNohGXEbRCMuI2iEZcRtEIy4jaIRlxG0QjLiNohGXEbRCMuI2iEZcRtEIy4jaIRlxG0QjLiNohGXEbRCMuI2iEZcRtEIy4jaIRlxG0QjLiNohGXEbRCMuI2iEZcRtEIy4jaIRlxG0NbZOSSKSarKSKfs1PWfH1+r7i/wDcN//EACwQAAIBAQkBAAICAgIDAAAAAAAB8VEQETFAcHGx0fAhMEFhgWDBIFCgobD/2gAIAQEAAT8h/wDhoVIbMEbTt/7Lq7c7n3jUeg+RIkSJEiRIkSJEiRIkSJEiRIkSJEiRIkSJEiRIkSJEiRIkSJEiRIkSJEiRIkSJEiRIkSJEiRIkSJEiRIkSJEiRIkSJEiRIkSJEiRIkSJEiRIkSJEiRIkSJEiRIkSJEiRIkSJEiRIkSJEiRIkSJEiRIkSJEiRIxfvxd41Ebq8fz61uvn6r+X1KBfALsJR/yYd2vj8Wo9Bf6PrxaiGf32wlF/P5o/qUWL4RdhKP+TDu18fi1HoHU/wDF4tRDOP8A6CUX8/z+eP6lFty6/wBL93VJpk0yaZNMmmTTJpk0yaZNMmmTTJpk0yaZNMmmTTJpk0yaZNMmmTTJpk0yaZNMmmTTJpk0yaZNMmmTTJpk0yaZNMmmTTJpk0yaZNMmmTTJpk0yaZNMmmTTJpk0yaZNMmmTTJpk0yaZNMmmTTJpk0yaZNMmmTTJpk0yaZNMmmTTJpk0yaZNMmmTTJpk0yaZNMmmTTJpk0yaZNMmmTTJpk0yaZNMmmTTJpk0yaZNMmmTTJpk0yaZNMmmTTJpk0yaZNMmmTTJpk0yaZNMmmTTJpk0yaZNMu/H+vq6+mQj+pRbi296B8OQj+pRbi296B8OQj+pRbi296B8OQj+pRbi296B8OQj+pRbi296B8OQj+pRbi296B8OQj+pRbi296B8OQj+pRbi296B8OQj+pRbi296B8OQj+pRbi296B8OQj+pRbi296B8OQj+pRbi296B8OQj+pRbi296B8OQj+pRbi296B8OQj+pRbi296B8OQj+pRbi296B8OQj+pRbi296B8OQj+pRbi296B8OQj+pRbi296B8OQj+pRbi296B8OQj+pRbi296B8OQj+pRbi296B8OQj+pRbi296B8OQj+pRbi296B8OQj+pRbi296B8OQj+pRbi296B8OQj+pRbi296B8OQj+pRbi296B8OQj+pRbi296B8OQj+pRbi296B8OQj+pRbi296B8OQj+pRbi296B8OQj+pRbi296B8OQj+pRbi296B8OQj+pRbi296B8OQj+pRbi296B8OQj+pRbi296B8OQj+pRbi296B8OQj+pRbi296B8OQj+pRbi296B8OQj+pRbi296B8OQj+pRbi296B8OQj+pRbi296B8OQj+pRbi296B8OQj+pRbi296B8OQj+pRbi296B8OQj+pRbi296B8OQj+pRbi296B8OQj+pRbi296B8OQj+pRbi296B8OQj+pRbi296B8OQj+pRbi296B8OQj+pRbi296B8OQj+pRbi296B8OQj+pRbi296B8OQj+pRbi296B8OQj+pRbi296B8OQj+pRbi296B8OQj+pRbi296B8OQj+pRbi296B8OQj+pRbi296B8OQj+pRbi296B8OQj+pRbi296B8OQj+pRbi296B8OQj+pRbi296B8OQj+pRbi296B8OQj+pRbi296B8OQj+pRbi296B8OQj+pRbi296B8OQj+pRbi296B8OQj+pRbi296B8OQj+pRbi296B8OQj+pRbi296B8OQj+pRbi296B8OQj+pRbi296B8OQj+pRbi296B8OQj+pRbi296B8OQj+pRbi296B8OQj+pRbi296B8OQj+pRbcmv8AC/V5FMimRTIpkUyKZFMimRTIpkUyKZFMimRTIpkUyKZFMimRTIpkUyKZFMimRTIpkUyKZFMimRTIpkUyKZFMimRTIpkUyKZFMimRTIpkUyKZFMimRTIpkUyKZFMimRTIpkUyKZFMimRTIpkUyKZFMimRTIpkUyKZFMimRTIpkUyKZFMimRTIpkUyKZFMimRTIpkUyKZFMimRTIpkUyKZFMimRTIpkUyKZFMimRTIpkUyKZFMimRTIpkUyKZFMimRTIpkUyKZFMimRTIpkUyKZFMimRTIpjDS/wA/tdTIR/Uos/fTsJ/P8le/1+LVeQ/aF9c2QhNwl6+v3/RKuiVdEq6JV0SrolXQyUJV1F1P8Aby0qs7l9JV0SrolXRKuiVdEq6J10fBEdR34rv+j/s+jFqo/wBF2nf54/qUGPD+oldzHvf9fi1XYrZJmrf07rlcSASASASASAOkR+bXw7rnfv8Ah9Gg6V84i9VL1UvVS9VL1UvVTHfq79/wB4FGXqpeql6qXqpeql6qXquWubk1cUD6+qhIBIBIBIAwIEXt+hDDghY30K/8P9n0YtVCrxtO/wAke5YcV+GV4h6r/ZeJBGpcn7o/ff8AW/bVdqqoIlwiJO+9fP8Ay0aNGjQ30d0zJ3fX90/Cqqqqq3kPlcUlJXl37aEYIwRgjBGCMFw68V1y+P8AAFVVVVVVVVVVVVVVVVVVVVVVVVVVVVVVVVVVVVVVVVVf0xa+79yMEYIwRgjBGCOCJsutt/3yqqqqqqqqqqqqqqlOwvTefsS/f/HRo0aHPuFbfyD4OI8HeEr/AMSqqqqqu6+j7aqLuol1m775WLPVf7E8TuVttfoOuj8txfu4XU2FiCGmGmGmGmGmGmGmGmGmGmGmGmGmGmGmGmGmGmGmGmGmGmGmGmGmGmGmGmGmGmGmGmGmGmGmGmGmGmGmGmGmGmGmGmGmGmGmGmGmGmGmGmGmGmGmGmGmGmGmGmGmGmGmGmGmGmGmGmGmGmGmGmGmGmGmGmGmGmGmGmGmGmGmGmGmGmGmGmGmGmGmGmGmGmGmGmGmGmGmGmGmGmGmGmGmGmGmGmGmGmGmGmGmGmGmGmGmGmGmGmGmGmGmGmGmGmGmGmGmGmGmGmGmGmGmGmGmGmGmGlLggva6+sBXL/zDf//aAAwDAQACAAMAAAAQAAAAAAAAAAAAAAAAAAAAAAAAAAAAAAAAAAAAAAAAAAAAAAAAAAAAAAAAAAAAAAAAAAAAAAAAAAAAAAAAAAAAAAAAAAAAAAAAAAAAAAAAAAAAAAAAAAAAAAAAAAAAAAAAAAAAAAAAAAAAAAAAAAAAAAAAAAAAAAAAAAAAAAAAAAAAAAAAAAAAAAAAAAAAAAAAAAAAAAAAAAAAAAAAAAAAAAAAAAAAAAAAAAAAAAAAAAAAAAAAAAAAAAAAAAAAAAAAAAAAAAAAAAAAAAAAAAAAAAAAAAAAAAAAAAAAAAAAAAAAAAAAAAAAAAAAAAAAAAAAAAAAAAAAAAAAAAAAAAAAAAAAAAAAAAAAAAAAAAAAAAAAAAAAAAAAAAAAAAAAAAAAAAAAAAAAAAAAAAAAAAAAAAAAAAAAAAAAAAAAAAAAAAAAAAAAAAAAAAAAAAAAAAAAAAAAAAAAAAAAAAAAAAAAAAAAAAAAAAAAAAAAAAAAAAAAAAAAAAAAAAAAAAAAAAAAAAAAAAAAAAAAAAAAAAAAAAAAAAAAAAAAAAAAAAAAAAAAAAAAAAAAAAAAAAAAAAAAAAAAAAAAAAAAAAAAAAAAAAAAAAAAAAAAAAAAAAAAAAAAAAAAAAAAAAAAAAAAAAAAAAAAAAAAAAAAAAAAAAAAAAAAAAAAAAAAAAAAAAAAAAAAAAAAAAAAAAAAAAAAAAAAAAAAAAAAAAAAAAAAAAAAAAAAAAAAAAAAAAAAAAAAAAAAAAAAAAAAAAAAAAAAAAAAAAAAAAAAAAAAAAAAAAAAAAAAAAAAAAAAAAAAAAAAAAAAAAAAAAAAAAAAAAAAAAAAAAAAAAAAAAAAAAAAAAAAAAAAAAAAAAAAAAAAAAAAAAAAAAAAAAAAAAAAAAAAAAAAAAAAAAAAAAAAAAAAAAAAAAAAAAAAAAAAAAAAAAAAAAAAAAAAAAAAAAAAAAAAAAAAAAAAAAAAAAAAAAAAAAAAAAAAAAAAAAAAAAAAAAAAAAAAAAAAAAAAAAAAAAAAAAAAAAAAAAAAAAAAAAAAAAAAAAAAAAAAAAAAAAAAAAAAAAAAAAAAAAAAAAAAAAAAAAAAAAAAAAAAAAAAAAAAAAAAAAAAAAAAAAAAAAAAAAAADbbbbbbbbbbbbbbbbbbbbbbbbbbbbbbbbbbbbbbbbbbbbbbbbbbbbbbbbbbbbbbbbbbbaAAAAAA+f/8A/wD/AP8A/wD/AP8A/wD/AP8A/wD/AP8A/wD/AP8A/wD/AP8A/wD/AP8A/wD/AP8A/wD/AP8A/wD/AP8A/wD/AP8A/wD/AP8A/wD/AP8A/wD/AP8A/wD/AP8A/wD/AP7YAAAAAA7y/wD/AP8A/wD/AP8A/wD/AP8A/wD/AP8A/wD/AP8A/wD/AP8A/wD/AP8A/wD/AP8A/wD/AP8A/wD/AP8A/wD/AP8A/wD/AP8A/wD/AP8A/wD/AP8A/wD/AP8A/wD/AP8A/bYAAAAAA/5//wD/AP8A/wD/AP8A/wD/AP8A/wD/AP8A/wD/AP8A/wD/AP8A/wD/AP8A/wD/AP8A/wD/AP8A/wD/AP8A/wD/AP8A/wD/AP8A/wD/AP8A/wD/AP8A/wD/AP8A/wD/AP8A34AAAAAA/wDUkkkkkkkkkkkkkkkkkkkkkkkkkkkkkkkkkkkkkkkkkkkkkkkkkkkkkkkkkkkkkkkkl+AAAAAAP/Ukkkkkkkkkkkkkkkkkkkkkkkkkkkkkkkkkkkkkkkkkkkkkkkkkkkkkkkkkkkkkkkkl+AAAAAAP/Ukkkkkkkkkkkkkkkkkkkkkkkkkkkkkkkkkkkkkkkkkkkkkkkkkkkkkkkkkkkkkkkkl+AAAAAAP/AFJJJJJJJJJJJJJJJJJJJJJJJJJJJJJJJJJJJJJJJJJJJJJJJJJJJJJJJJJJJJJJJJJfgAAAAAD/ANSSSSSSSSSSSSSSSSSSSSSSSSSSSSSSSSSSSSSSSSSSSSSSSSSSSSSSSSSSSSSSSSSX4AAAAAA/9SSSSSSSSSSSSSSSSSSSSSSSSSSSSSSSSSSSSSSSSSSSSSSSSSSSSSSSSSSSSSSSSSX4AAAAAA/9SSSSSSSSSSSSSSSSSSSSSSSSSSSSSSSSSSSSSSSSSSSSSSSSSSSSSSSSSSSSSSSSSX4AAAAAA/8AUkkkkkkkkkkkkkkkkkkkkkkkkkkkkkkkkkkkkkkkkkkkkkkkkkkkkkkkkkkkkkkkkl+AAAAAAP8A1JJJJJJJJJJJJJJJJJJJJJJJJJJJJJJJJJJJJJJJJJJJJJJJJJJJJJJJJJJJJJJJJJfgAAAAAD/1JJJJJJJJJJJJJJJJJJJJJJJJJJJJJJJJJJJJJJJJJJJJJJJJJJJJJJJJJJJJJJJJJfgAAAAAD/1JJJJJJJJJJJJJJJJJJJJJJJJJJJJJJJJJJJJJJJJJJJJJJJJJJJJJJJJJJJJJJJJJfgAAAAAD/wBSSSSSSSSSSSSSSSSSSSSSSSSSSSSSSSSSSSSSSSSSSSSSSSSSSSSSSSSSSSSSSSSSX4AAAAAA/wDUkkkkkkkkkkkkkkkkkkkkkkkkkkkkkkkkkkkkkkkkkkkkkkkkkkkkkkkkkkkkkkkkl+AAAAAAP/Ukkkkkkkkkkkkkkkkkkkkkkkkkkkkkkkkkkkkkkkkkkkkkkkkkkkkkkkkkkkkkkkkl+AAAAAAP/Ukkkkkkkkkkkkkkkkkkkkkkkkkkkkkkkkkkkkkkkkkkkkkkkkkkkkkkkkkkkkkkkkl+AAAAAAP/AFJJJJJJJJJJJJJJJJJJJJJJJJJJJJJJJJJJJJJJJJJJJJJJJJJJJJJJJJJJJJJJJJJfgAAAAAD/ANSSSSSSSSSSSSSSSSSSSSSSSSSSSSSSSSSSSSSSSSSSSSSSSSSSSSSSSSSSSSSSSSSX4AAAAAA/9SSSSSSSSSSSSSSSSSSSSSSSSSSSSSSSSSSSSSSSSSSSSSSSSSSSSSSSSSSSSSSSSSX4AAAAAA/9SSSSSSSSSSSSSSSSSSSSSSSSSSSSSSSSSSSSSSSSSSSSSSSSSSSSSSSSSSSSSSSSSX4AAAAAA/8AUkkkkkkkkkkkkkkkkkkkkkkkkkkkkkkkkkkkkkkkkkkkkkkkkkkkkkkkkkkkkkkkkl+AAAAAAP8A1JJJJJJJJJJJJJJJJJJJJJJJJJJJJJJJJJJJJJJJJJJJJJJJJJJJJJJJJJJJJJJJJJfgAAAAAD/1JJJJJJJJJJJJJJJJJJJJJJJJJJJJJJJJJJJJJJJJJJJJJJJJJJJJJJJJJJJJJJJJJfgAAAAAD/1JJJJJJJJJJJJJJJJJJJJJJJJJJJJJJJJJJJJJJJJJJJJJJJJJJJJJJJJJJJJJJJJJfgAAAAAD/wBSSSSSSSSSSSSSSSSSSSSSSSSSSSSSSSSSSSSSSSSSSSSSSSSSSSSSSSSSSSSSSSSSX4AAAAAA/wDUkkkkkkkkkkkkkkkkkkkkkkkkkkkkkkkkkkkkkkkkkkkkkkkkkkkkkkkkkkkkkkkkl+AAAAAAP/Ukkkkkkkkkkkkkkkkkkkkkkkkkkkkkkkkkkkkkkkkkkkkkkkkkkkkkkkkkkkkkkkkl+AAAAAAP/Ukkkkkkkkkkkkkkkkkkkkkkkkkkkkkkkkkkkkkkkkkkkkkkkkkkkkkkkkkkkkkkkkl+AAAAAAP/AFJJJJJJJJJJJJJJJJJJJJJJJJJJJJJJJJJJJJJJJJJJJJJJJJJJJJJJJJJJJJJJJJJfgAAAAAD/ANSSSSSSSSSSSSSSSSSSSSSSSSSSSSSSSSSSSSSSSSSSSSSSSSSSSSSSSSSSSSSSSSSX4AAAAAA/9SSSSSSSSSSSSSSSSSSSSSSSSSSSSSSSSSSSSSSSSSSSSSSSSSSSSSSSSSSSSSSSSSX4AAAAAA/9SSSSSSSSSSSSSSSSSSSSSSSSSSSSSSSSSSSSSSSSSSSSSSSSSSSSSSSSSSSSSSSSSX4AAAAAA/8AUkkkkkkkkkkkkkkkkkkkkkkkkkkkkkkkkkkkkkkkkkkkkkkkkkkkkkkkkkkkkkkkkl+AAAAAAP8A1JJJJJJJJJJJJJJJJJJJJJJJJJJJJJJJJJJJJJJJJJJJJJJJJJJJJJJJJJJJJJJJJJfgAAAAAD/1JJJJJJJJJJJJJJJJJJJJJJJJJJJJJJJJJJJJJJJJJJJJJJJJJJJJJJJJJJJJJJJJJfgAAAAAD/1JJJJJJJJJJJJJJJJJJJJJJJJJJJJJJJJJJJJJJJJJJJJJJJJJJJJJJJJJJJJJJJJJfgAAAAAD/wBSSSSSSSSSSSSSSSSSSSSSSSSSSSSSSSSSSSSSSSSSSSSSSSSSSSSSSSSSSSSSSSSSX4AAAAAA/wDUkkkkkkkkkkkkkkkkkkkkkkkkkkkkkkkkkkkkkkkkkkkkkkkkkkkkkkkkkkkkkkkkl+AAAAAAP/Ukkkkkkkkkkkkkkkkkkkkkkkkkkkkkkkkkkkkkkkkkkkkkkkkkkkkkkkkkkkkkkkkl+AAAAAAP/Ukkkkkkkkkkkkkkkkkkkkkkkkkkkkkkkkkkkkkkkkkkkkkkkkkkkkkkkkkkkkkkkkl+AAAAAAP/AFJJJJJJJJJJJJJJJJJJJJJJJJJJJJJJJJJJJJJJJJJJJJJJJJJJJJJJJJJJJJJJJJJfgAAAAAD/ANSSSSSSSSSSSSSSSSSSSSSSSSSSSSSSSSSSSSSSSSSSSSSSSSSSSSSSSSSSSSSSSSSX4AAAAAA/9SSSSSSSSSSSSSSSSSSSSSSSSSSSSSSSSSSSSSSSSSSSSSSSSSSSSSSSSSSSSSSSSSX4AAAAAA/9SSSSSSSSSSSSSSSSSSSSSSSSSSSSSSSSSSSSSSSSSSSSSSSSSSSSSSSSSSSSSSSSSX4AAAAAA/8AUkkkkkkkkkkkkkkkkkkkkkkkkkkkkkkkkkkkkkkkkkkkkkkkkkkkkkkkkkkkkkkkkl+AAAAAAP8A1JJJJJJJJJJJJJJJJJJJJJJJJJJJJJJJJJJJJJJJJJJJJJJJJJJJJJJJJJJJJJJJJJfgAAAAAD/1JJJJJJJJJJJJJJJJJJJJJJJJJJJJJJJJJJJJJJJJJJJJJJJJJJJJJJJJJJJJJJJJJfgAAAAAD/1JJJJJJJJJJJJJJJJJJJJJJJJJJJJJJJJJJJJJJJJJJJJJJJJJJJJJJJJJJJJJJJJJfgAAAAAD/wBSSSSSSSSSSSSSSSSSSSSSSSSSSSSSSSSSSSSSSSSSSSSSSSSSSSSSSSSSSSSSSSSSX4AAAAAA/wDUkkkkkkkkkkkkkkkkkkkkkkkkkkkkkkkkkkkkkkkkkkkkkkkkkkkkkkkkkkkkkkkkl+AAAAAAP/Ukkkkkkkkkkkkkkkkkkkkkkkkkkkkkkkkkkkkkkkkkkkkkkkkkkkkkkkkkkkkkkkkl+AAAAAAP/Ukkkkkkkkkkkkkkkkkkkkkkkkkkkkkkkkkkkkkkkkkkkkkkkkkkkkkkkkkkkkkkkkl+AAAAAAP/AFJJJJJJJJJJJJJJJJJJJJJJJJJJJJJJJJJJJJJJJJJJJJJJJJJJJJJJJJJJJJJJJJJfgAAAAAD/ANSSSSSSSSSSSSSSSSSSSSSSSSSSSSSSSSSSSSSSSSSSSSSSSSSSSSSSSSSSSSSSSSSX4AAAAAA/9SSSSSSSSSSSSSSSSSSSSSSSSSSSSSSSSSSSSSSSSSSSSSSSSSSSSSSSSSSSSSSSSSX4AAAAAA/9SSSSSSSSSSSSSSSSSSSSSSSSSSSSSSSSSSSSSSSSSSSSSSSSSSSSSSSSSSSSSSSSSX4AAAAAA/8AUkkkkkkkkkkkkkkkkkkkkkkkkkkkkkkkkkkkkkkkkkkkkkkkkkkkkkkkkkkkkkkkkl+AAAAAAP8A1JJJJJJJJJJJJJJJJJJJJJJJJJJJJJJJJJJJJJJJJJJJJJJJJJJJJJJJJJJJJJJJJJfgAAAAAD/1JJJJJJJJJJJJJJJJJJJJJJJJJJJJJJJJJJJJJJJJJJJJJJJJJJJJJJJJJJJJJJJJJfgAAAAAD/1JJJJJJJJJJJJJJJJJJJJJJJJJJJJJJJJJJJJJJJJJJJJJJJJJJJJJJJJJJJJJJJJJfgAAAAAD/wBSSSSSSSSSSSSSSSSSSSSSSSSSSSSSSSSSSSSSSSSSSSSSSSSSSSSSSSSSSSSSSSSSX4AAAAAA/wDUkkkkkkkkkkkkkkkkkkkkkkkkkkkkkkkkkkkkkkkkkkkkkkkkkkkkkkkkkkkkkkkkl+AAAAAAP/Ukkkkkkkkkkkkkkkkkkkkkkkkkkkkkkkkkkkkkkkkkkkkkkkkkkkkkkkkkkkkkkkkl+AAAAAAP/Ukkkkkkkkkkkkkkkkkkkkkkkkkkkkkkkkkkkkkkkkkkkkkkkkkkkkkkkkkkkkkkkkl+AAAAAAP/AFJJJJJJJJJJJJJJJJJJJJJJJJJJJJJJJJJJJJJJJJJJJJJJJJJJJJJJJJJJJJJJJJJfgAAAAAD/ANSSSSSSSSSSSSSSSSSSSSSSSSSSSSSSSSSSSSSSSSSSSSSSSSSSSSSSSSSSSSSSSSSX4AAAAAA/9SSSSSSSSSSSSSSSSSSSSSSSSSSSSSSSSSSSSSSSSSSSSSSSSSSSSSSSSSSSSSSSSSX4AAAAAA/9SSSSSSSSSSSSSSSSSSSSSSSSSSSSSSSSSSSSSSSSSSSSSSSSSSSSSSSSSSSSSSSSSX4AAAAAA/8AUkkkkkkkkkkkkkkkkkkkkkkkkkkkkkkkkkkkkkkkkkkkkkkkkkkkkkkkkkkkkkkkkl+AAAAAAP8A1JJJJJJJJJJJJJJJJJJJJJJJJJJJJJJJJJJJJJJJJJJJJJJJJJJJJJJJJJJJJJJJJJfgAAAAAD/1JJJJJJJJJJJJJJJJJJJJJJJJJJJJJJJJJJJJJJJJJJJJJJJJJJJJJJJJJJJJJJJJJfgAAAAAD/1JJJJJJJJJJJJJJJJJJJJJJJJJJJJJJJJJJJJJJJJJJJJJJJJJJJJJJJJJJJJJJJJJfgAAAAAD/wBSSSSSSSSSSSSSSSSSSSSSSSSSSSSSSSSSSSSSSSSSSSSSSSSSSSSSSSSSSSSSSSSSX4AAAAAA/wDUkkkkkkkkkkkkkkkkkkkkkkkkkkkkkkkkkkkkkkkkkkkkkkkkkkkkkkkkkkkkkkkkl+AAAAAAP/Ukkkkkkkkkkkkkkkkkkkkkkkkkkkkkkkkkkkkkkkkkkkkkkkkkkkkkkkkkkkkkkkkl+AAAAAAP/Ukkkkkkkkkkkkkkkkkkkkkkkkkkkkkkkkkkkkkkkkkkkkkkkkkkkkkkkkkkkkkkkkl+AAAAAAP/AFJJJJJJJJJJJJJJJJJJJJJJJJJJJJJJJJJJJJJJJJJJJJJJJJJJJJJJJJJJJJJJJJJfgAAAAAD/ANSSSSSSSSSSSSSSSSSSSSSSSSSSSSSSSSSSSSSSSSSSSSSSSSSSSSSSSSSSSSSSSSSX4AAAAAA/9SSSSSSSSSSSSSSSSSSSSSSSSSSSSSSSSSSSSSSSSSSSSSSSSSSSSSSSSSSSSSSSSSX4AAAAAA/9SSSSSSSSSSSSSSSSSSSSSSSSSSSSSSSSSSSSSSSSSSSSSSSSSSSSSSSSSSSSSSSSSX4AAAAAA/5//wD/AP8A/wD/AP8A/wD/AP8A/wD/AP8A/wD/AP8A/wD/AP8A/wD/AP8A/wD/AP8A/wD/AP8A/wD/AP8A/wD/AP8A/wD/AP8A/wD/AP8A/wD/AP8A/wD/AP8A/wD/AP8AX4AAAAAA/v8A/wD/AP8A/wD/APzbbf8A/wD/AP8A/wD/AP8A/wD/AP8A/wD/AP8A/wD/AP8A/wD/AP8A/wD/AP8A/wD/AMbbbd//AP8A/wD/AP8A/wD/AP8A/wD/AP8A/wDe4AAAAAA9/H//AD//AP8A56SST/8A/wD/AP8A/wD/AP8A/wD/AP8A/wD/AP8A/wD/AP8A/wD/AP8A/wD/AP8A/wD5JJLX/wD/AP8A/wD/AP8A/wDf/wDV/wD/AP74AAAAA9m2lttW2221+22222222222222222222222222222222222222022222222221tr22222QuAAAA1ttttttttttttttttttttttttttttttttttttttttttttttttttttttttttttttttttttttAAAAKSSSSSSSSSSSSSSSSSSSSSSSSSSSSSSSSSSSSSSSSSSSSSSSSSSSSSSSSSSSSSSSSSSSSSVAAAAAAAAAAAAAAAAAAAAAAAAAAAAAAAAAAAAAAAAAAAAAAAAAAAAAAAAAAAAAAAAAAAAAAAAAAAAAAAAAAAAAAAAAAAAAAAAAAAAAAAAAAAAAAAAAAAAAAAAAAAAAAAAAAAAAAAAAAAAAAAAAAAAAAAAAAAAAAAAAAAAAAAAAAAAAAAAAAAAAAAAAAAAAAAAAAAAAAAAAAAAAAAAAAAAAAAAAAAAAAAAAAAAAAAAAAAAAAAAAAAAAAAAAAAAAAAAAAAAAAAAAAAAAAAAAAAAAAAAAAAAAAAAAAAAAAAAAAAAAAAAAAAAAAAAAAAAAAAAAAAAAAAAAAAAAAAAAAAAAAAAAAAAAAAAAAAAAAAAAAAAAAAAAAAAAAAAAAAAAAAAAAAAAAAAAAAAAAAAAAAAAAAAAAAAAAAAAAAAAAAAAAAAAAAAAAAAAAAAAAAAAAAAAAAAAAAAAAAAAAAAAAAAAAAAAAAAAAAAAAAAAAAAAAAAAAAAAAAAAAAAAAAAAAAAAAAAAAAAAAAAAAAAAAAAAAAAAAAAAAAAAAAAAAAAAAAAAAAAAAAAAAAAAAAAAAAAAAAAAAAAAAAAAAAAAAAAAAAAAAAAAAAAAAAAAAAAAAAAAAAAAAAAAAAAAAAAAAAAAAAAAAAAAAAAAAAAAAAAAAAAAAAAAAAAAAAAAAAAAAAAAAAAAAAAAAAAAAAAAAAAAAAAAAAAAAAAAAAAAAAAAAAAAAAAAAAAAAAAAAAAAAAAAAAAAAAAAAAAAAAAAAAAAAAAAAAAAAAAAAAAAAAAAAAAAAAAAAAAAAAAAAAAAAAAAAAAAAAAAAAAAAAAAAAAAAAAAAAAAAAAAAAAAAAAAAAAAAAAAAAAAAAAAAAAAAAAAAAAAAAAAAAAAAAAAAAAAAAAAA/8QALREAAgECBgICAgMAAgMBAAAAAGEBkaEQMHGx0fARcCGBQeExUfFAYFCgsMH/2gAIAQMBAT8Q/wDhoRKSfHif4IT4lbgetwPW4HrcD1uB63A9bgetwPW4HrcD1uB63A9bgetwPW4HrcD1uB63A9bgetwPW4HrcD1uB63A9bgetwPW4HrcD1uB63A9bgetwPW4HrcD1uB63A9bgetwPW4HrcD1uB63A9bgetwPW4HrcD1uB63A9bgetwPW4HrcD1uB63A9bgetwPW4HrcD1uB63A9bgetwPW4HrcD1uB63A9bgetwPW4HrcD1uB63A9bgetwPW4HrcD1uB63A9bgetwPW4HrcD1uB63A9bgetwPW4HrcD1uB63A9bgetwPW4HrcD1uB63A9bgetwPW4HrcD1uB63A9bgetwPW4HrcD1uB63A9bgetwPW4HrcD1uB63A9bgetwPW4HrcD1uB63A9bgetwPW4HrcD1uB63A9bgetwPW4HrcD1uB63A9bgetwPW4ITzMrcEy8niPH85tlJJ5/JuRQ8+hYIEnnzP8AOxtts2ynCTz+Tchh6Dgh5JPPmf52w222bZTj8DUzPibilBSgpQUoKUFKClBSgpQUoKUFKClBSgpQUoKUFKClBSgpQUoKUFKClBSgpQUoKUFKClBSgpQUoKUFKClBSgpQUoKUFKClBSgpQUoKUFKClBSgpQUoKUFKClBSgpQUoKUFKClBSgpQUoKUFKClBSgpQUoKUFKClBSgpQUoKUFKClBSgpQUoKUFKClBSgpQUoKUFKClBSgpQUoKUFKClBSgpQUoKUFKClBSgpQUoKUFKClBSgpQUoKUFKClBSgpQUoKUFKClBSgpQUoKUFKClBSgpQUoSKbzMT42x222bZTj0lPoPoKMdttm2U49JT6D6CjHbbZtlOPSU+g+gox222bZTj0lPoPoKMdttm2U49JT6D6CjHbbZtlOPSU+g+gox222bZTj0lPoPoKMdttm2U49JT6D6CjHbbZtlOPSU+g+gox222bZTj0lPoPoKMdttm2U49JT6D6CjHbbZtlOPSU+g+gox222bZTj0lPoPoKMdttm2U49JT6D6CjHbbZtlOPSU+g+gox222bZTj0lPoPoKMdttm2U49JT6D6CjHbbZtlOPSU+g+gox222bZTj0lPoPoKMdttm2U49JT6D6CjHbbZtlOPSU+g+gox222bZTj0lPoPoKMdttm2U49JT6D6CjHbbZtlOPSU+g+gox222bZTj0lPoPoKMdttm2U49JT6D6CjHbbZtlOPSU+g+gox222bZTj0lPoPoKMdttm2U49JT6D6CjHbbZtlOPSU+g+gox222bZTj0lPoPoKMdttm2U49JT6D6CjHbbZtlOPSU+g+gox222bZTj0lPoPoKMdttm2U49JT6D6CjHbbZtlOPSU+g+gox222bZTj0lPoPoKMdttm2U49JT6D6CjHbbZtlOPSU+g+gox222bZTj0lPoPoKMdttm2U49JT6D6CjHbbZtlOPSU+g+gox222bZTj0lPoPoKMdttm2U49JT6D6CjHbbZtlOPSU+g+gox222bZTj0lPoPoKMdttm2U49JT6D6CjHbbZtlOPSU+g+gox222bZTj0lPoPoKMdttm2U49JT6D6CjHbbZtlOPSU+g+gox222bZTj0lPoPoKMdttm2U49JT6D6CjHbbZtlOPSU+g+gox222bZTj0lPoPoKMdttm2U49JT6D6CjHbbZtlOPSU+g+gox222bZTj0lPoPoKMdttm2U49JT6D6CjHbbZtlOPSU+g+gox222bZTj0lPoPoKMdttm2U49JT6D6CjHbbZtlOPSU+g+gox222bZTj0lPoPoKMdttm2U49JT6D6CjHbbZtlOPSU+g+gox222bZTj0lPoPoKMdttm2U49JT6D6CjHbbZtlOPSU+g+gox222bZTj0lPoPoKMdttm2U49JT6D6CjHbbZtlOPSU+g+gox222bZTj0lPoPoKMdttm2U49JT6D6CjHbbZtlOPSU+g+gox222bZTj0lPoPoKMdttm2U49JT6D6CjHbbZtlOPSU+g+gox222bZTj0lPoPoKMdttm2U4/I1MT5m4pUUqKVFKilRSopUUqKVFKilRSopUUqKVFKilRSopUUqKVFKilRSopUUqKVFKilRSopUUqKVFKilRSopUUqKVFKilRSopUUqKVFKilRSopUUqKVFKilRSopUUqKVFKilRSopUUqKVFKilRSopUUqKVFKilRSopUUqKVFKilRSopUUqKVFKilRSopUUqKVFKilRSopUUqKVFKilRSopUUqKVFKilRSopUUqKVFKilRSopUUqKVFKilRSopUUqKVFKilRSopUUqKVFKilRSopUUqKVFKki+KZnztjtts2ynCTz4fzsQQ/4HmJ/oiWPPhX9Clf0KV/QpX9Clf0KV/QpX9EqlHj48/wDQJ4RMR58z4FK/oUr+hSv6FK/oUr+hSv6FK/on8kx4+f8AwcEPEkkT+TfDbbZtlJJ5/JsQQ8RhG4JnzPj4P9SD/Ug/1IP9SD/UgmQR4nx85NtJ4r4fx/cCVYEqwJVgSrAlWBKsEp8TE/H/AO/9AiiSZ8fASrAlWBKsCVYEqwJVgSrBOJ8o/ud/+LMZTmY/Px/Xk/1IP9SD/Ug/1IP9yCGJ/MRNcmCHiSSJ/JubbbL+deHgZ79HgvJkgPjxc0bmjchUCPE+fgZ79DPfoZ79DPfoZ79HmQeZ8/Jo3NG5o3NG5o3NG5o3NG5MZTHzEx+fyM9+h3v0O9+h3v0O9+h3v0O9+iafyvMePk0bmjc0bmjc0bmjc0bmjc0bmjc0bmjc0bmjc0bmjc0bmjc0bmjc0bmjc0bmjc0bmjc0bmjc0bmjc0bmjc0bmjc0bmjc0bmjc0bmjc0bmjc0bmjc0bmjc0bmjc0bmjc0bmjc0bmjc0bmjc0bmjc0bmjc0bmjc0bkKiRET5+B3v0O9+h3v0O9+h3v0O9+h3v0eXkTHmZ+WaNzRuaNzRuaNzRuaNzRuaNzRuaNzRuaNzRuaNzRuaNzRuaNzRueR8GZ/qn9DPfoZ79DPfoZ79DPfohbMeIiI/P4NG5o3NG5o3NG5o3NG5o3NG5AeJ8XPNeDMjPfonSJTMzk/wAvRu55yfLPP5FyLkXIuRci5FyLkXIuRci5FyLkXIuRci5FyLkXIuRci5FyLkXIuRci5FyLkXIuRci5FyLkXIuRci5FyLkXIuRci5FyLkXIuRci5FyLkXIuRci5FyLkXIuRci5FyLkXIuRci5FyLkXIuRci5FyLkXIuRci5FyLkXIuRci5FyLkXIuRci5FyLkXIuRci5FyLkXIuRci5FyLkXIuRci5FyLkXIuRci5FyLkXIuRci5FyLkXIuRci5FyLkXIuRci5FyLk+WPmJ/wDcN//EACsRAAECBgMBAAICAgIDAAAAAAABYRAxgaHR8DBwcREhkUGxQFFQYKCwwf/aAAgBAgEBPxD/ANGguogUPyjajLajLajLajLajLajLajLajLajLajLajLajLajLajLajLajLajLajLajLajLajLajLajLajLajLajLajLajLajLajLajLajLajLajLajLajLajLajLajLajLajLajLajLajLajLajLajLajLajLajLajLajLajLajLajLajLajLajLajLajLajLajLajLajLajLajLajLajLajLajLajLajLajLajLajLajLajLajLajLajLajLajLajLajLajLajLajLajLajLajLajLajLajLajLajLajLajLajLajLajLajLajLajLajLajLajLajLajLajLajLajLajLajLajLajLajLajLajLajLajLajLajLajLajLajLajLajLajLajLajLajLajLajLajLailJtRdBXLNEPn8H9CiuhVFCHz4kv7JHLNgh8+LL+hRX56DUV+BD58SX9wkcs2Kuv5UQZGRkZGRkZGRkZGRkZGRkZGRkZGRkZGRkZGRkZGRkZGRkZGRkZGRkZGRkZGRkZGRkZGRkZGRkZGRkZGRkZGRkZGRkZGRkZGRkZGRkZGRkZGRkZGRkZGRkZGRkZGRkZGRkZGRkZGRkZGRkZGRkZGRkZGRkZGRkZGRkZGRkZGRkZGRkZEd+FFjI5ZsbbHQdtmMjlmxtsdB22YyOWbG2x0HbZjI5ZsbbHQdtmMjlmxtsdB22YyOWbG2x0HbZjI5ZsbbHQdtmMjlmxtsdB22YyOWbG2x0HbZjI5ZsbbHQdtmMjlmxtsdB22YyOWbG2x0HbZjI5ZsbbHQdtmMjlmxtsdB22YyOWbG2x0HbZjI5ZsbbHQdtmMjlmxtsdB22YyOWbG2x0HbZjI5ZsbbHQdtmMjlmxtsdB22YyOWbG2x0HbZjI5ZsbbHQdtmMjlmxtsdB22YyOWbG2x0HbZjI5ZsbbHQdtmMjlmxtsdB22YyOWbG2x0HbZjI5ZsbbHQdtmMjlmxtsdB22YyOWbG2x0HbZjI5ZsbbHQdtmMjlmxtsdB22YyOWbG2x0HbZjI5ZsbbHQdtmMjlmxtsdB22YyOWbG2x0HbZjI5ZsbbHQdtmMjlmxtsdB22YyOWbG2x0HbZjI5ZsbbHQdtmMjlmxtsdB22YyOWbG2x0HbZjI5ZsbbHQdtmMjlmxtsdB22YyOWbG2x0HbZjI5ZsbbHQdtmMjlmxtsdB22YyOWbG2x0HbZjI5ZsbbHQdtmMjlmxtsdB22YyOWbG2x0HbZjI5ZsbbHQdtmMjlmxtsdB22YyOWbG2x0HbZjI5ZsbbHQdtmMjlmxtsdB22YyOWbG2x0HbZjI5ZsbbHQdtmMjlmxtsdB22YyOWbG2x0HbZjI5ZsbbHQdtmMjlmxtsdB22YyOWbG2x0HbZjI5ZsbbHQdtmMjlmxtsdB22YyOWbG2x0HbZjI5ZsbbHQdtmMjlmxtsdB22YyOWbG2x0HbZjI5ZsbbHQdtmMjlmxtsdB22YyOWbG2x0HbZjI5ZsbbHQdtmMjlmxtsdB22YyOWbG2x0HbZjI5ZsbbHQdtmMjlmxtsdB22YyOWbG2x0HbZjI5ZsbbHQdtmMjlmxV1/Cij4+Pj4+Pj4+Pj4+Pj4+Pj4+Pj4+Pj4+Pj4+Pj4+Pj4+Pj4+Pj4+Pj4+Pj4+Pj4+Pj4+Pj4+Pj4+Pj4+Pj4+Pj4+Pj4+Pj4+Pj4+Pj4+Pj4+Pj4+Pj4+Pj4+Pj4+Pj4+Pj4+Pj4+Pj4+Pj4+Pj4+Pj4+Pj4+Pj4+Pj4+Pj4+Pj4+Pj4ivyokZHLNgh8/g/sUV/gI+qiCpr8+r+h1f0Or+h1f0Or+h1f0Or+hL7Iv38/wDQEF/FX5+B1f0Or+h1f0Or+h1f0Or+h1f0IfL/AINRX1BBU+pL+oSOWaIfP4P7FFfVh/OA8jyPI8jyP5wcMj1D7F/C/oYX9DC/oYX9DC/oYX9DC/oURH1P5/8An/QEKqvn+hhf0ML+hhf0ML+hhf0ML+hhf0IVPz/0n+L9WHkeR5HkKn/KH0Kn+uFRX1BBU+pL+iRxq/HxPv2E/IvwFL+T1PU+APo02o02o02o02o02p8AfPD1PU9T1PU9T1PUTyPv4X7wAAABFBD58X7+D1PU9T1PU9T1PU9T1PU9T1PU9T1PU9T1PU9T1PU9T1PU9T1PU9T1PU9T1PU9T1PU9T1PU9T1PU9T1PU9T1PU9T1PU9T1PU9T1PU9T1PU9T5s+/j5wAAAD4iVFPU9T1PU9T1PU9T1PU9T1PU9T1PU9T1PU9T8KfRptRptRptRptRVKnzVxSVfz+T1PU9T1PU9T1PU9RS/k/AvwhFFKip8+cMvRqfhfL/0HEHEHEHEHEHEHEHEHEHEHEHEHEHEHEHEHEHEHEHEHEHEHEHEHEHEHEHEHEHEHEHEHEHEHEHEHEHEHEHEHEHEHEHEHEHEHEHEHEHEHEHEHEHEHEHEHEHEHEHEHEHEHEHEHEHEHEHEHEHEHEHEHEHEHEHEHEHEHEHEHEHEHEHEHEHEHEHEHEHEHEHEHEHEHEHEHEHEHEHEHEHEHEHEHEHEHEHEHEHEHEHEHEHEHEHEHEHEHEHEHEHEHEHEHEHEHEHEHEHEHEHEHEHEHEHEHEHEHEHEF9f9v/MN/8QALBAAAQEGBwEBAQABBQEAAAAAAQAQETGxwfAwUWFwkaHRIUEggUBgcaCw8f/aAAgBAQABPxD/AMNAYaYj+QwcgPcHPqeghBuLEEB2H/8A/wD/AP8A/wD/AP8A/wD/AP8A/wD/AP8A/wD/AP8A/wD/AP8A/wD/AP8A/wD/AP8A/wD/AP8A/wD/AP8A/wD/AP8A/wD/AP8A/wD/AP8A/wD/AP8A/wD/AP8A/wD/AP8A/wD/AP8A/wD/AP8A/wD/AP8A/wD/AP8A/wD/AP8A/wD/AP8A/wD/AP8A/wD/AP8A/wD/AP8A/wD/AP8A/wD/AP8A/wD/AP8A/wD/AP8A/wD/AP8A/wD/AP8A/wD/AP8A/wD/AP8A/wD/AP8A/wD/AP8A/wD/AP8A/wD/AP8A/wD/AP8A/wD/AH8AkDGbAMRKG+l0UE4AyQD/AK+42Y+cBOJ8H6H4V96EQ8WIM9hfvwkkAHmwB+kofcETgfT+Qv045zMYlfPgDifB/wD4CvvwiHCxBnsH98Ek6HmwB+kr5oKCAfT+Qv1BEY5zMYlhtrrPI+xcXCHq1Kq1Kq1Kq1Kq1Kq1Kq1Kq1Kq1Kq1Kq1Kq1Kq1Kq1Kq1Kq1Kq1Kq1Kq1Kq1Kq1Kq1Kq1Kq1Kq1Kq1Kq1Kq1Kq1Kq1Kq1Kq1Kq1Kq1Kq1Kq1Kq1Kq1Kq1Kq1Kq1Kq1Kq1Kq1Kq1Kq1Kq1Kq1Kq1Kq1Kq1Kq1Kq1Kq1Kq1Kq1Kq1Kq1Kq1Kq1Kq1Kq1Kq1Kq1Kq1Kq1Kq1Kq1Kq1Kq1Kq1Kq1Kq1Kq1Kq1Kq1Kq1Kq1Kq1Kq1Kq1Kq1Kq1Kq1Kq1Kq1Kq1Kq1Kq1Kq1Kq1Kq1Kq1Kq1Kq1Kq1Kq1Kq1Kq1Kq1Kq1Kq1Kq1Kq1Kq1Kq1Kq1Kq1Kq1Kq1Kq1Kq1Kq1Kq1Kq1Kq1Kq1Kq1Kq1Kq1Kq1Kq1Kq1Kq1Kq1Kq1Kq1Kq1Kq1Kq1Koj91nH6g8vEuJYIjHOZjEs7aewaSmGCIxzmYxLO2nsGkphgiMc5mMSztp7BpKYYIjHOZjEs7aewaSmGCIxzmYxLO2nsGkphgiMc5mMSztp7BpKYYIjHOZjEs7aewaSmGCIxzmYxLO2nsGkphgiMc5mMSztp7BpKYYIjHOZjEs7aewaSmGCIxzmYxLO2nsGkphgiMc5mMSztp7BpKYYIjHOZjEs7aewaSmGCIxzmYxLO2nsGkphgiMc5mMSztp7BpKYYIjHOZjEs7aewaSmGCIxzmYxLO2nsGkphgiMc5mMSztp7BpKYYIjHOZjEs7aewaSmGCIxzmYxLO2nsGkphgiMc5mMSztp7BpKYYIjHOZjEs7aewaSmGCIxzmYxLO2nsGkphgiMc5mMSztp7BpKYYIjHOZjEs7aewaSmGCIxzmYxLO2nsGkphgiMc5mMSztp7BpKYYIjHOZjEs7aewaSmGCIxzmYxLO2nsGkphgiMc5mMSztp7BpKYYIjHOZjEs7aewaSmGCIxzmYxLO2nsGkphgiMc5mMSztp7BpKYYIjHOZjEs7aewaSmGCIxzmYxLO2nsGkphgiMc5mMSztp7BpKYYIjHOZjEs7aewaSmGCIxzmYxLO2nsGkphgiMc5mMSztp7BpKYYIjHOZjEs7aewaSmGCIxzmYxLO2nsGkphgiMc5mMSztp7BpKYYIjHOZjEs7aewaSmGCIxzmYxLO2nsGkphgiMc5mMSztp7BpKYYIjHOZjEs7aewaSmGCIxzmYxLO2nsGkphgiMc5mMSztp7BpKYYIjHOZjEs7aewaSmGCIxzmYxLO2nsGkphgiMc5mMSztp7BpKYYIjHOZjEs7aewaSmGCIxzmYxLO2nsGkphgiMc5mMSztp7BpKYYIjHOZjEs7aewaSmGCIxzmYxLO2nsGkphgiMc5mMSztp7BpKYYIjHOZjEs7aewaSmGCIxzmYxLO2nsGkphgiMc5mMSztp7BpKYYIjHOZjEs7aewaSmGCIxzmYxLO2nsGkphgiMc5mMSztp7BpKYYIjHOZjEs7aewaSmGCIxzmYxLO2nsGkphgiMc5mMSztp7BpKYYIjHOZjEs7aewaSmGCIxzmYxLO2nsGkphgiMc5mMSztp7BpKYYIjHOZjEs7aewaSmGCIxzmYxLO2nsGkphgiMc5mMSztp7BpKYYIjHOZjEs7aewaSmGCIxzmYxLO2nsGkphgiMc5mMSztp7BpKYYIjHOZjEs7aewaSmGCIxzmYxLO2nsGkphgiMc5mMSztp7BpKYYIjHOZjEs7aewaSmGCIxzmYxLDRXmOT9i4FwLirUorUorUorUorUorUorUorUorUorUorUorUorUorUorUorUorUorUorUorUorUorUorUorUorUorUorUorUorUorUorUorUorUorUorUorUorUorUorUorUorUorUorUorUorUorUorUorUorUorUorUorUorUorUorUorUorUorUorUorUorUorUorUorUorUorUorUorUorUorUorUorUorUorUorUorUorUorUorUorUorUorUorUorUorUorUorUorUorUorUorUorUorUorUorUorUorUorUorUorUorUorUorUorUorUorUorUorUorUorUorUorUorUorUorUorUorUorUorUorUorUorUorUorUorUorUorUorUorUorUon9VYRH2Dw8A8hgiMc5mMSiUgIHn+n/uYvwIVfklEDYk/SU85p5zTzmnnNPOaec085p5zTzmnnNPOaec085p5zTzmjOT99c98XP8A8J1T58+cDx/dKlSpUqUlZrIEH4F4J5zTzmnnNPOaec085p5zTzmnnNPOaec085p5zTzmnnNPOaec085p5zTzmnnNPOaec085p5zTzmnnNPOaec085p5zTzmnnNPOaec085p5zTzmnnNPOaec085p5zTzmnnNPOaec085p5zTzmnnNPOaec085p5zTzmnnNPOaec085p5zTzmnnNELrbfAS8kA5YCVKlSpUvUqCJEC94IJATzmnnNPOaec085p5zTzmnnNPOaec085p5zTzmnnNPOaec085p5zTzmnnNPOaec085p5zTzmnnNPOaec085p5zTzmnnNPOaec0fjLgYMLAn4Qh84DjwBw/6Mg/QhEY5zMaEBA8/0/8AWZfgQKMkUQNiT9JYB9IfCLAcR9Lyf6jRo0aMLnOI8RfQLyQBDjg2rOhAAEPgYj4Wn5Wn5Wn5Wn5Wn5Wn5X2F9ITkI/8AYAl+74Ck5BOn5Wn5Wn5Wn5Wn5Wn5Qfw8oSH4c8g/4P8ApTwn9Qn3zgvJn5/MaNGjF2ifJwHk/wCCAFWsgwIX0AXPD8E/GR9HxhYE/CEXsfDwBw/6Mg/RiHIDalmajHyXs0gqS3YTgE5JH34vrG8ThGxI76Vr8vC1+XhE7rTAfQJ/39/po0aNGhYJBxC+gn6Fr8vC1+Xha/Lwtfl4Wvy8LX5eFr8vC1+XhGSEEIgvfQ7JfLhAfRLv0/FZtFZtFZtFZtFZtFZtEUnT26xPf8EVr8vC1+Xha/Lwtfl4Wvy8LX5eFr8vC1+Xha/Lwtfl4Wvy8LX5eFr8vC1+Xha/Lwtfl4Wvy8LX5eFr8vC1+Xha/Lwtfl4Wvy8LX5eFr8vC1+Xha/Lwtfl4Wvy8LX5eFr8vC1+Xha/Lwtfl4Wvy8LX5eFr8vC1+Xha/Lwtfl4Wvy8LX5eFr8vC1+Xha/Lwtfl4Wvy8LX5eFr8vC1+Xha/Lwtfl4Wvy8LX5eFr8vC1+Xha/Lwtfl4Wvy8LX5eFr8vC1+Xha/LwnHMw4wOAhxBEPqs2is2is2is2is2is2isWic8JQ/4egHCAWvy8LX5eFr8vC1+Xha/Lwtfl4Wvy8LX5eFr8vC1+Xha/Lwtfl4Wvy8LX5eFr8vC1+Xha/Lwtfl4Wvy8LX5eEAJ64Q2CPmExD+WjRo0HkkgPgAcXIf3TpFhB4uBPx61+Xha/Lwtfl4Wvy8LX5eFr8vC1+Xha/Lwtfl4Rn84IKALArvhCCZ9jCUBOQQBwZpMdttdwCOc982f1+vo7pDiEQOJ+w5AgQIECBAgQIECBAgQIECBAgQIECBAgQIECBAgQIECBAgQIECBAgQIECBAgQIECBAgQIECBAgQIECBAgQIECBAgQIECBAgQIECBAgQIECBAgQIECBAgQIECBAgQIECBAgQIECBAgQIECBAgQIECBAgQIECBAh/RAgQIECAz7nhZxAOgn3/uG/wD/2Q==;" vertex="1" parent="1">
          <mxGeometry x="310" y="30" width="310.68" height="240" as="geometry" />
        </mxCell>
        <mxCell id="D7CyiCbgNfwCUPgvzWG9-3" value="" style="shape=image;verticalLabelPosition=bottom;labelBackgroundColor=#ffffff;verticalAlign=top;aspect=fixed;imageAspect=0;image=data:image/png,iVBORw0KGgoAAAANSUhEUgAAA2IAAAPUCAYAAADPPIr6AAAABGdBTUEAALGPC/xhBQAAAAFzUkdCAK7OHOkAAAAgY0hSTQAAeiYAAICEAAD6AAAAgOgAAHUwAADqYAAAOpgAABdwnLpRPAAAAAZiS0dEAP8A/wD/oL2nkwAAAAlwSFlzAAAASAAAAEgARslrPgAAPCVJREFUeNrt3Xmc1mW9//HrOwwM6wCKC2JGGpWakpqWtqmlpaZpZWWplcgmAoooKhKoqAiSYwiyjSyd0zmpZWqWnkqr424eU3PrYZZmakeIfYe5f3/kr+WUht7zva5r5n4+/0tpfNNyz/2az5eZolKpBACo1lFHHVX5wQ9+kHpGqY488shw6623Fql3AND21aUeAAAAUGuEGAAAQGRCDAAAIDIhBgAAEJkQAwAAiEyIAQAARCbEAAAAIhNiAAAAkQkxAACAyIQYAABAZEIMAAAgMiEGAAAQmRADAACITIgBAABEJsQAAAAiE2IAAACRCTEAAIDIhBgAAEBkQgwAACAyIQYAABCZEAMAAIhMiAEAAEQmxAAAACITYgAAAJEJMQAAgMiEGAAAQGRCDAAAIDIhBgAAEJkQAwAAiEyIAQAARCbEAAAAIhNiAAAAkQkxAACAyIQYAABAZEIMAAAgMiEGAAAQmRADAACITIgBAABEJsQAAAAiE2IAAACRCTEAAIDIhBgAAEBkQgwAACAyIQYAABCZEAMAAIhMiAEAAEQmxAAAACITYgAAAJEJMQAAgMiEGAAAQGRCDAAAIDIhBgAAEJkQAwAAiEyIAQAARCbEAAAAIhNiAAAAkQkxAACAyIQYAABAZEIMAAAgMiEGAAAQmRADAACITIgBAABEJsQAAAAiE2IAAACRCTEAAIDIhBgAAEBkQgwAACAyIQYAABCZEAMAAIhMiAEAAEQmxAAAACITYgAAAJEJMQAAgMiEGAAAQGRCDAAAIDIhBgAAEJkQAwAAiEyIAQAARCbEAAAAIhNiAAAAkQkxAACAyIQYAABAZEIMAAAgMiEGAAAQmRADAACITIgBAABEJsQAAAAiE2IAAACRCTEAAIDIhBgAAEBkQgwAACAyIQYAABCZEAMAAIhMiAEAAEQmxAAAACITYgAAAJEJMQAAgMiEGAAAQGRCDAAAIDIhBgAAEJkQAwAAiEyIAQAARCbEAAAAIhNiAAAAkQkxAACAyIQYAABAZEIMAAAgMiEGAAAQmRADAACITIgBAABEJsQAAAAiE2IAAACRCTEAAIDI6pcsWVJZuXJl6h0AtHFr165NPSHK7/HZZ5+tpN4BQNvW2NgYitNPP71y9dVXp94CAABQE04//XSPJgIAAMQmxAAAACITYgAAAJEJMQAAgMiEGAAAQGRCDAAAIDIhBgAAEJkQAwAAiEyIAQAARCbEAAAAIhNiAAAAkQkxAACAyIQYAABAZEIMAAAgMiEGAAAQmRADAACITIgBAABEJsQAAAAiE2IAAACRCTEAAIDIhBgAAEBkQgwAACAyIQYAABCZEAMAAIhMiAEAAEQmxAAAACITYgAAAJEJMQAAgMiEGAAAQGRCDAAAIDIhBgAAEJkQAwAAiEyIAQAARCbEAAAAIhNiAAAAkQkxAACAyIQYAABAZEIMAAAgMiEGAAAQmRADAACITIgBAABEJsQAAAAiE2IAAACRCTEAAIDIhBgAAEBkQgwAACAyIQYAABCZEAMAAIhMiAEAAEQmxAAAACITYgAAAJEJMQAAgMiEGAAAQGRCDAAAIDIhBgAAEJkQAwAAiKw+9YAYdtlll9Dc3Jzkn71s2bLUv/3kKpVKWL58eeoZybW0tIQVK1aknpHc5s2bw6pVq1LPSG7Tpk1h9erVqWckt3HjxrBmzZrUM6qybt26sH79+tQzttqqVavC5s2bU8/YasuXLw+VSiX1jK2yZcuWsHLlytQztlp7+P8ftGU1EWLdunULH/vYx4rUOwAAeHPWrl1b2bBhQ+oZW23lypVhy5YtqWdstVyOB1/60pfC008/nXpGFDURYgAAtG1du3YtunbtmnrGVuvdu3fqCW1S165d28YJvBX4M2IAAEAWiqJ2HmITYgAAAJEJMQAAIAsuYgAAAJEJMQAAAEojxAAAgCy4iAEAAEQmxAAAACiNEAMAALLgIgYAAEBphBgAAJAFFzEAAIDIhBgAAAClEWIAAEAWXMQAAAAiE2IAAACURogBAABZcBEDAACITIgBAABQGiEGAABkwUUMAAAgMiEGAABAaYQYAACQBRcxAAAASiPEAACALLiIAQAARCbEAAAAKI0QAwAAsuAiBgAAEJkQAwAAoDRCDAAAyIKLGAAAQGRCDAAAgNIIMQAAIAsuYgAAAJEJMQAAAEojxAAAgCy4iAEAAFAaIQYAAGTBRQwAACAyIQYAAEBphBgAAJAFFzEAAIDIhBgAAAClEWIAAEAWXMQAAAAiE2IAAACURogBAABZcBEDAACITIgBAABQGiEGAABkwUUMAACA0ggxAAAgCy5iAAAAkQkxAAAASiPEAACALLiIAQAARCbEAAAAKI0QAwAAsuAiBgAAEJkQAwAAoDRCDAAAyIKLGAAAQGRCDAAAgNIIMQAAIAsuYgAAAJRGiAEAAFlwEQMAAIhMiAEAAFAaIQYAAGTBRQwAACAyIQYAAEBphBgAAJAFFzEAAIDIhBgAAAClEWIAAEAWXMQAAAAiE2IAAACURogBAABZcBEDAACgNEIMAADIgosYAABAZEIMAACA0ggxAAAgCy5iAAAAkQkxAAAASiPEAACALLiIAQAARCbEAAAAKI0QAwAAsuAiBgAAEJkQAwAAoDRCDAAAyIKLGAAAAKURYgAAQBZcxAAAACITYgAAAJRGiAEAAFlwEQMAAIhMiAEAAFAaIQYAAGTBRQwAACAyIQYAAEBphBgAAJAFFzEAAIDIhBgAAAClEWIAAEAWXMQAAAAojRADAACy4CIGAAAQmRADAACgNEIMAADIgosYAABAZEIMAACA0ggxAAAgCy5iAAAAkQkxAAAASiPEAACALLiIAQAARCbEAAAAKI0QAwAAsuAiBgAAQGmEGAAAkAUXMQAAAEojxAAAgCy4iAEAAEQmxAAAACiNEAMAALLgIgYAABCZEAMAAKA0QgwAAMiCixgAAEBkQgwAAIDSCDEAACALLmIAAACURogBAABZcBEDAACITIgBAABQGiEGAABkwUUMAAAgMiEGAABAaYQYAACQBRcxAACAyIQYAAAApRFiAABAFlzEAAAAIhNiAAAAlEaIAQAAWXARAwAAoDRCDAAAyIKLGAAAQGRCDAAAgNIIMQAAIAsuYgAAAJEJMQAAAEojxAAAgCy4iAEAAEQmxAAAACiNEAMAALLgIgYAABCZEAMAAKA0QgwAAMiCixgAAEBkQgwAAIDSCDEAACALLmIAAACURogBAABZcBEDAACITIgBAABQGiEGAABkwUUMAAAgMiEGAABAaYQYAACQBRcxAACAyIQYAAAApRFiAABAFlzEAAAAIhNiAAAAlEaIAQAAWXARAwAAoDRCDAAAyIKLGAAAQGRCDAAAgNIIMQAAIAsuYgAAAJEJMQAAAEojxAAAgCy4iAEAAEQmxAAAACiNEAMAALLgIgYAABCZEAMAAKA0QgwAAMiCixgAAAClEWIAAEAWXMQAAAAiE2IAAACURogBAABZcBEDAACITIgBAABQGiEGAABkwUUMAAAgMiEGAABAaYQYAACQBRcxAACAyIQYAAAApRFiAABAFlzEAAAAKI0QAwAAsuAiBgAAEJkQAwAAoDRCDAAAyIKLGAAAQGRCDAAAgNIIMQAAIAsuYgAAAJEJMQAAAEojxAAAgCy4iAEAAEQmxAAAACiNEAMAALLgIgYAAEBphBgAAJAFFzEAAIDIhBgAAAClEWIAAEAWXMQAAAAiE2IAAACURogBAABZcBEDAACgNEIMAADIgosYAAAApRFiAAAAkQkxAAAgCx5NBAAAoDRCDAAAyIKLGAAAAKURYgAAQBZcxAAAACiNEAMAAIhMiAEAAFnwaCIAAAClEWIAAEAWXMQAAAAojRADAACy4CIGAABAaYQYAABAZEIMAADIgkcTAQAAKI0QAwAAsuAiBgAAQGmEGAAAQGRCDAAAyIJHEwEAACiNEAMAALLgIgYAAEBphBgAAJAFFzEAAABKI8QAAAAiE2IAAEAWPJoIAABAaYQYAACQBRcxAAAASiPEAACALLiIAQAAUBohBgAAEJkQAwAAsuDRRAAAAEojxAAAgCy4iAEAAFAaIQYAABCZEAMAALLg0UQAAABKI8QAAIAsuIgBAABQGiEGAABkwUUMAACA0ggxAACAyIQYAACQBY8mAgAAUBohBgAAZMFFDAAAgNIIMQAAIAsuYgAAAJRGiAEAAEQmxAAAgCx4NBEAAIDSCDEAACALLmIAAACURogBAABEJsQAAIAseDQRAACA0ggxAAAgCy5iAAAAlEaIAQAAWXARAwAAoDRCDAAAIDIhBgAAZMGjiQAAAJRGiAEAAFlwEQMAAKA0QgwAAMiCixgAAAClEWIAAACRCTEAACALHk0EAACgNEIMAADIgosYAAAApRFiAABAFlzEAAAAKI0QAwAAiEyIAQAAWfBoIgAAAKURYgAAQBZcxAAAACiNEAMAAIhMiAEAAFnwaCIAAAClEWIAAEAWXMQAAAAojRADAACy4CIGAABAaYQYAABAZEIMAADIgkcTAQAAKI0QAwAAsuAiBgAAQGmEGAAAkAUXMQAAAEojxAAAACITYgAAQBY8mggAAEBphBgAAJAFFzEAAABKI8QAAAAiE2IAAEAWPJoIAABAaYQYAACQBRcxAAAASiPEAACALLiIAQAAUBohBgAAEJkQAwAAsuDRRAAAAEojxAAAgCy4iAEAAFAaIQYAAGTBRQwAAIDSCDEAAIDIhBgAAJAFjyYCAABQGiEGAABkwUUMAACA0ggxAACAyIQYAACQBY8mAgAAUBohBgAAZMFFDAAAgNIIMQAAIAsuYgAAAJRGiAEAAEQmxAAAgCx4NBEAAIDSCDEAACALLmIAAACURogBAABZcBEDAACgNEIMAAAgMiEGAABkoaihZxOFGAAAQGRCDAAAIDIhBgAAZKNWnk4UYgAAAJEJMQAAgMiEGAAAkA2PJgIAAFAKIQYAAGTDRQwAAIBSCDEAACAbLmIAAACUQogBAABEJsQAAIBseDQRAACAUggxAAAgGy5iAAAAlEKIAQAA2XARAwAAoBRCDAAAIDIhBgAAZMOjiQAAAJRCiAEAANlwEQMAAKAUQgwAACAyIQYAAGTDo4kAAACUQogBAADZcBEDAACgFEIMAADIhosYAAAApRBiAAAAkQkxAAAgGx5NBAAAoBRCDAAAyIaLGAAAAKUQYgAAQDZcxAAAACiFEAMAAIhMiAEAANnwaCIAAAClEGIAAEA2XMQAAAAohRADAACITIgBAADZ8GgiAAAApRBiAABANlzEAAAAKIUQAwAAsuEiBgAAQCmEGAAAQGRCDAAAyIZHEwEAACiFEAMAALLhIgYAAEAphBgAAJANFzEAAABKIcQAAAAiE2IAAEA2PJoIAABAKYQYAACQDRcxAAAASiHEAAAAIhNiAABANjyaCAAAQCmEGAAAkA0XMQAAAEohxAAAgGy4iAEAAFAKIQYAABCZEAMAALLh0UQAAABKIcQAAIBsuIgBAABQCiEGAABkw0UMAACAUggxAACAyIQYAACQDY8mAgAAUAohBgAAZMNFDAAAgFIIMQAAgMiEGAAAkA2PJgIAAFAKIQYAAGTDRQwAAIBSCDEAACAbLmIAAACUQogBAABEJsQAAIBs1MqjifWpB8SwdOnScPnll1dS7wAAAF7fsmXLUk+IoiZC7H//93/Dueeem3oGAABACMGjiQAAANEJMQAAgMiEGAAAQGRCDAAAIDIhBgAAEJkQAwAAiEyIAQAARCbEAAAAIhNiAAAAkQkxAACAyIQYAABAZEIMAAAgMiEGAAAQmRADAACITIgBAABEJsQAAAAiE2IAAACRCTEAAIDIhBgAAEBkQgwAACAyIQYAABCZEAMAAIhMiAEAAEQmxAAAACITYgAAAJEJMQAAgMiEGAAAQGRCDAAAIDIhBgAAEJkQAwAAiEyIAQAARCbEAAAAIhNiAAAAkQkxAACAyIQYAABAZEIMAAAgMiEGAAAQmRADAACITIgBAABEJsQAAAAiE2IAAACRCTEAAIDIhBgAAEBkQgwAACAyIQYAABCZEAMAAIhMiAEAAEQmxAAAACITYgAAAJEJMQAAgMiEGAAAQGRCDAAAIDIhBgAAEJkQAwAAiEyIAQAARCbEAAAAIisqlUrqDQAAADXFRQwAACAyIQYAABCZEAMAAIhMiAEAAEQmxAAAACITYgAAAJEJMQAAgMiEGAAAQGRCDAAAIDIhBgAAEJkQAwAAiEyIAQAARCbEAAAAIhNiAAAAkQkxAACAyIQYAABAZEIMAAAgMiEGAAAQmRADAACITIgBAABEJsQAAAAiE2IAAACRCTEAAIDIhBgAAEBkQgwAACAyIQYAABCZEAMAAIhMiAEAAEQmxAAAACITYgAAAJEJMQAAgMiEGAAAQGRCDAAAIDIhBgAAEJkQAwAAiEyIAQAARCbEAAAAIhNiAAAAkQkxAACAyIQYAABAZEIMAAAgMiEGAAAQmRADAACITIgBAABEJsQAAAAiE2IAAACRCTEAAIDIhBgAAEBkQgwAACAyIQYAABCZEAMAAIhMiAEAAEQmxAAAACITYgAAAJEJMQAAgMiEGAAAQGRCDAAAILL61AOgvVm2bFkl9YZqrV69OmzatCn1jFKsXbs2bNiwIfWMUqxfvz6sW7duq3997969U0/mVd27dw8dO3ZMPaPdaGxsDB06dGj1j9ujR49QX19fpP79Ae2DEKNq99xzT+Xmm28OGzZsCGvXrv2HN4MrV64MW7Zs+Yd/3+bNm8OqVate92OvW7curF+//k3tqiYmXmszADWv1b/YVlaId+3aNTQ0NLT6x+3SpUvo3Llzq3/czp07hy5durT6x21oaAhdu3Zt9Y8bQgiXX355eNvb3ibOeVOKSqXNf/GexA477LDKj3/849QzAACievTRR8Nee+0lxHhT/Bkxqvbwww+nngAAEF2nTp1ST6ANE2JUZfny5ZWlS5emngEAEJ0/20k1hBhV+dOf/pR6AgBAEi5iVEOIURXXMACgVrmIUQ0hRlWEGABQq4QY1RBiVMWjiQBArRJiVEOIURUXMQCgVgkxqiHEqMq/+oHMAADtlRCjGkKMqmzcuDH1BACA6Orq6kKHDh38MGfeNCFGVYQYAFCLXMOolhCjKkIMAKhFQoxqCTGqIsQAgFokxKiWEKMqmzZtSj0BACC6Tp06pZ5AGyfEqIqLGABQi1zEqJYQoypCDACoRUKMagkxqiLEAIBaJMSolhCjKlu2bEk9AQAgOiFGtYQYAAC8Qb5ZB9USYlSlKPxAeQCg9riIUS0hRlWEGABQi4QY1RJiVEWIAQC1SIhRLSEGAABvkBCjWkKMqriIAQC1yDfroFpCjKoIMQCgFrmIUS0hRlWEGABQi4QY1RJiVEWIAQC1SIhRLSFGVYQYAFCLhBjVEmJUpa7O/4QAgNojxKiWd9FUxYsQAFCLfNdEqiXEqIoQAwBqkfdAVEuIURVfDQIAapEQo1pCjKp4EQIAapH3QFRLiFEVL0IAQC3yHohqCTGq4kUIAKhF3gNRLSFGVbwIAQC1yHsgqiXEqIpv1gEA1CLvgaiWEKMqvhoEANQi74GolhCjKl6EAIBa5D0Q1RJiVMVZHgCoRUKMagkxquJFCACoRd4DUS0hRlW8CAEAtch7IKolxKiKRxMBgFokxKiWEKMqXoQAgFrki9FUS4hRFSEGANQi74GolhCjKl6EAIBa5D0Q1RJiVMVZHgCoRUKMagkxquJFCACoRd4DUS0hRlW8CAEAtch7IKolxKiKRxMBgFrkPRDVEmJUxVeDAIBa5D0Q1RJiVMWLEABQi7wHolpCjKo4ywMAtUiIUS0hRlW8CAEAtch7IKolxKiKFyEAoBZ5D0S16lMPoG3r0qVL2G+//V7316xatSps3rz5Nf9+pVIJy5cvf92PsWHDhrB27drUv10AoA3p3bv36/79Tp06hW7dur3ur+nevfs/ja6GhobUvz3auKJSqaTeAK1i9erVlU2bNr3m39+a4Nu4cWNYs2bN6/6aNWvWhI0bN77ur1m2bNm/3Ls1v2bdunVh/fr1r/trWlpawooVK17z72/ZsiWsXLnyH/76ihUrQktLy9/9tbVr14YNGzb83V/btGlTWL169evu/9t/n2hufUVRhIMPPjh06NAh9ZTX9fDDD4elS5emnlGqPn36hPe85z2pZ7yuzZs3h5/+9KepZ7RL3bp1+8ufje7cuXPo0qXLX/5eQ0ND6Nq169/9+rq6utCzZ89/+DiNjY3/8P/nLl26hM6dO//dX6uvrw89evT4l7v+VWy81sf/v4qiCL169XrdX9OxY8fQvXv3rf7P6c1u3ppAevWfU/zL3zxkSogBpdm8eXNl1apVf/nXfxtvK1euDGvXrg0rV64Mq1atCsuWLQurVq0Kl1xyyVZFai356le/Gq699trs32wcccQRldtuuy31jFIdeeSR4dZbb83+v4uvfOUrlUWLFqWekZVevXqFc889NzQ2NobGxsbQo0eP0KNHj9DY2Ph3wfN/Y6Rnz56hrq4u+//OgbbHo4lAaerr64u//arnv/oK6He+852KCPt7ffv2DdOnT089gzbmqquuCnfeeWd4/vnnU0/JxvLly8M73vGOcNxxx4kqIAu+WQeQhXXr1lXOPvvs1DOyM3PmzNC7d29vHHlDevbsWVx77bWhKPxP52+NHj06rF692qNAQBaEGJCFqVOnht/+9repZ2TlC1/4gq/e86Z99KMfLYYMGZJ6RlZ+//vfh8mTJ6eeARBCEGJABn7/+99Xpk2blnpGVrbddttw1VVXpZ5BGzd9+vTw9re/PfWMrEyfPj08+uijrmJAckIMSG7s2LH/8rtV1ppvfOMbYfvtt3cNoyrdunUr5s2bF+rqfLr//zZv3hxGjRoVKr5bGZCYV2YgqTvuuKNy3XXXpZ6RlU9+8pPhi1/8ogijVRx88MHF6aefnnpGVn72s5+FBQsWpJ4B1DghBiSzcePGijeIf6+xsTFcc801qWfQzlx22WXhHe94R+oZWRkzZkx48cUXXcWAZIQYkMzUqVPDk08+mXpGVqZPnx523nln1zBaVdeuXYuFCxdm/0PBY1qxYkU488wzU88AapgQA5J47rnnKlOmTEk9IyuHHHJIGDRoUOoZtFMHHnhgMWbMmNQzsnLdddeF733ve65iQBJCDEji9NNP9w06/kbXrl3DvHnzQuEHP1Giiy++OLz73e9OPSMrp512Wli+fLkYA6ITYkB03/nOdyrf//73U8/IyqWXXhp22203EUapGhoaisWLF4eOHTumnpKNl156KYwfPz71DKAGCTEgqrVr11bOOuus1DOy8v73vz/4piXEss8++xTnnntu6hlZmT17drjrrrtcxYCohBgQ1YQJE8Jzzz2XekY2GhoaQnNzc+jQoYNrGNF87WtfC/vtt1/qGdloaWkJp556ali/fr0YA6IRYkA0v/rVryozZsxIPSMrEydODHvssYcII6r6+vpi8eLFoXPnzqmnZOPpp58Ol156aeoZQA0RYkAUlUqlMnTo0LBp06bUU7IxcODAMHbs2NQzqFF77LFHccEFF6SekZXLLrss/PKXv3QVA6IQYkAUzc3N4Z577kk9Ixv19fWhubk5dOzY0TWMZMaNGxcOOOCA1DOysXnz5jB06NCwZcsWMQaUTogBpVu6dGnlvPPOSz0jK+PGjQv77befCCOp+vr6YtGiRaFLly6pp2TjgQceCFdffXXqGUANEGJA6c4+++ywZMmS1DOy8a53vSt4JIxcvOtd7youuuii1DOycv7554dnn33WVQwolRADSnXXXXdVFi5cmHpGNurq6sL8+fND586dXcPIxpgxY8KHP/zh1DOysXbt2jBixIjUM4B2TogBpdm0aVNl+PDhoVLxheX/b9SoUeEDH/iACCMrdXV1xfz580O3bt1ST8nGbbfdFr75zW968QJKI8SA0nz9618Pv/rVr1LPyEb//v3DxRdfnHoG/FMDBgwopkyZknpGVs4444zwxz/+UYwBpRBiQCmee+65iuj4q6Iowty5c0P37t1dw8jWiBEjwuGHH556Rjb+9Kc/hZEjR6aeAbRTQgwoxemnnx7WrFmTekY2Bg8eHA477DARRtaKoijmzp0bGhsbU0/JxvXXXx+++93vuooBrU6IAa3uuuuuq3z/+99PPSMbO+20U7j88stTz4Ct8ta3vrW44oorUs/IyogRI8KyZcvEGNCqhBjQqlauXFkZM2ZM6hlZmTVrVujVq5drGG3G4MGDiyOOOCL1jGy8/PLLYezYsalnAO2MEANa1fnnnx/+8Ic/pJ6RjRNPPDF86lOfEmG0OfPnzw+9e/dOPSMb1157bbj99ttdxYBWI8SAVvPggw9WZs+enXpGNvr06RO+/vWvp54Bb8pOO+1UNDU1pZ6RlaFDh4ZVq1aJMaBVCDGgVWzevLkydOjQsGXLltRTsjFr1qyw3XbbuYbRZp188snFpz/96dQzsvHcc8+FCy64IPUMoJ0QYkCraGpqCg8//HDqGdk4+uijw/HHHy/CaPNmz54dtt9++9QzsnH11VeHu+66y1UMqJoQA6r2/PPPVy688MLUM7LRs2fPcM0116SeAa1iu+22Kzxy/FctLS3h1FNPDevXrxdjQFWEGFC1kSNHhtWrV6eekY2mpqbQr18/1zDajeOOO6743Oc+l3pGNp5++ungB9YD1RJiQFW++93vVm6++ebUM7Jx6KGHhi9/+cupZ0CrmzVrVthxxx1Tz8jG1KlTw0MPPeQqBrxpQgx401atWlUZPXp06hnZ6NatW5g3b14oisI1jHZn2223LebOnZt6RjY2b94cBg0aFDZt2iTGgDdFiAFv2gUXXBBeeOGF1DOyMXXq1LDrrruKMNqto48+ujjppJNSz8jGI488Eq644orUM4A2SogBb8pDDz1UmTlzZuoZ2TjwwAPDsGHDUs+A0s2YMSO85S1vST0jGxdeeGF44oknXMWAN0yIAW/Yli1b/Mywv9HQ0BCam5tDXV2daxjtXs+ePYvm5ubgCdw/27BhQxg0aFDYsmWLGAPeECEGvGEzZswIDz30UOoZ2bj44ovD7rvv7l0pNeOwww4rBg0alHpGNu67774wa9as1DOANkaIAW/Iiy++WJk0aVLqGdnYZ599whlnnJF6BkTX1NQUdtttt9QzsnHeeeeFZ5991lUM2GpCDHhDRowYEVasWJF6Rhbq6+tDc3Nz6Nixo2sYNadbt27F3LlzPaL4qjVr1oTBgweHSqUixoCtIsSArfaDH/yg8r3vfS/1jGyMHz8+7LPPPt6FUrMOPfTQYsSIEalnZOOOO+4IixYtSj0DaCOEGLBV1q5dW/GG66923333cN5556WeAcldfvnlYcCAAalnZOOMM84If/jDH1zFgH9JiAFbZcKECeF3v/td6hlZqKurC83NzaGhocE1jJrXtWvXYtGiRaFDhw6pp2RhxYoVYfjw4alnAG2AEAP+pUcffbQyY8aM1DOycdZZZ4UDDzxQhMGrDjzwwMI3rfmrW265Jdxwww2uYsDrEmLA62ppaakMHTo0bNq0KfWULAwYMCBceOGFqWdAdi655JKw5557pp6RjeHDh4dXXnlFjAGvSYgBr2vmzJnhvvvuSz0jC3V1dWH+/PmhS5curmHwfzQ0NBSLFy8OHTt2TD0lC0uWLAljx45NPQPImBADXtPLL79c+drXvpZ6RjaGDRsWPvzhD4sweA377rtvcfbZZ6eekY3FixeHm2++2VUM+KeEGPCaRo4cGZYvX556RhZ22WWXMGXKlNQzIHsTJ04Me++9d+oZ2Rg5cmRYtWqVGAP+gRAD/qnbbrutcsMNN6SekY05c+aEHj16uIbBv9CpU6di8eLFoVOnTqmnZOH5558P5557buoZQIaEGPAP/Mywv/eVr3wlfOITnxBhsJUGDhxYjB8/PvWMbMyePTv8/Oc/dxUD/o4QA/7BpEmTwrPPPpt6RhZ23HHHMH369NQzoM05//zzw/777596RhZaWlrC4MGDw7p168QY8BdCDPg7jz32WKWpqSn1jGzMnDkzbLPNNq5h8AbV19cXixYtCp07d049JQu//vWv/egL4O8IMeAvWlpaKsOGDfMzw151/PHHh09/+tMiDN6k3XffvRAffzV9+vTwi1/8wlUMCCEIMeBvzJkzJ9xzzz2pZ2Rh2223DTNmzEg9A9q8sWPHhg996EOpZ2Rh8+bNYdCgQWHjxo1iDBBiwJ+9/PLLFX+4/q+amprCDjvs4BoGVaqrqysWLlwYunfvnnpKFh599NFw+eWXp54BZECIASGEEM4444ywbNmy1DOycOSRR4YTTzxRhEEr2XXXXYvJkyennpGNyZMnh8cff9xVDGqcEAPC7bffXvn2t7+dekYWGhsbw+zZs1PPgHZn5MiR4eCDD049IwsbN24MgwYNClu2bBFjUMOEGNS4devW+Zlhf2PatGnhLW95i2sYtLK6urpiwYIFoUePHqmnZOH+++/351ChxgkxqHEXX3xx+M1vfpN6RhYOPvjgMHjw4NQzoN3q379/MXXq1NQzsjF+/Pjwm9/8xlUMapQQgxr2+OOPV6644orUM7LQtWvXMG/evFAUhWsYlGjo0KHhiCOOSD0jC2vXrg2DBw8OlUpFjEENEmJQoyqVSmXo0KF+ZtirJk+eHN7+9reLMChZURTFvHnzQu/evVNPycKdd94ZmpubU88AEhBiUKPmzZsX7r777tQzsvC+970vjBo1KvUMqBn9+vUrvv71r6eekY2zzjorvPDCC65iUGOEGNSgJUuW+Jlhr2poaAjNzc2hQ4cOrmEQ0Ve+8pXiuOOOSz0jCytXrgzDhg1LPQOITIhBDTrjjDPCkiVLUs/IwoQJE8Kee+4pwiCBmTNnhm233Tb1jCzceuut4T//8z9dxaCGCDGoMT/96U8r3/rWt1LPyMLee+8dzjnnnNQzoGb17du38C3c/2rkyJHhf//3f8UY1AghBjVk/fr1lVe/Q1fqKcnV19eHBQsWhI4dO7qGQUInnHBC8ZnPfCb1jCwsWbIknHnmmalnAJEIMaghl1xySXjmmWdSz8jC2WefHfbdd18RBhmYPXt22GGHHVLPyMK3vvWtcNNNN/lqGdQAIQY14te//nVl2rRpqWdk4Z3vfGf42te+lnoG8Ko+ffoUc+bMST0jG6eddlpYvny5GIN2TohBDahUKpXBgweHDRs2pJ6SXF1dXWhubg6dO3d2DYOMfOpTnyq+9KUvpZ6RhRdffDGcd955qWcAJRNiUAMWLlwYfv7zn6eekYWRI0eGD3zgAyIMMnT11VeHnXfeOfWMLMyZMyf85Cc/cRWDdkyIQTu3dOnSyrhx41LPyEL//v3D5MmTU88AXkOvXr2Ka6+9NhSFr5VUKpUwePDgsGbNGjEG7ZQQg3Zu7Nix4ZVXXkk9I7miKMKcOXNC9+7dvcODjB122GHFV7/61dQzsvDb3/42XHTRRalnACURYtCO/fd//3dl0aJFqWdkYdCgQeHwww8XYdAGXHnllWGXXXZJPSML06dPD7/4xS9cxaAdEmLQTm3cuLEybNgwPzMshNC3b98wderU1DOArdTY2FgsWLDAI4ohhC1btoRBgwaFjRs3ejGHdkaIQTs1derU8MQTT6SekYVZs2aF3r17e0cHbcihhx5aDBs2LPWMLDz66KPh8ssvTz0DaGVCDNqhZ555pnLppZemnpGFE044IRx77LEiDNqgadOmhbe//e2pZ2Rh8uTJ4fHHH3cVg3ZEiEE7NHr06LBu3brUM5Lr06dPaGpqSj0DeJO6detWLFy4MHTo0CH1lOQ2btwYBg0aFLZs2SLGoJ0QYtDO/Md//EflBz/4QeoZWZgxY0bYfvvtXcOgDfvABz5QjBw5MvWMLNx///3h6quvTj0DaCVCDNqRlStXVsaOHZt6RhY++clPhi984QsiDNqByy67LOy5556pZ2Th/PPPD7/5zW9cxaAdEGLQjowbNy68+OKLqWck17Nnz3DNNdekngG0ks6dOxfNzc0eUQwhrF27NgwZMiRUfEtcaPOEGLQT9913X2Xu3LmpZ2Rh+vTpYeedd3YNg3bkfe97X3H22WennpGFO+64IyxcuDD1DKBKQgzagc2bN1dOO+200NLSknpKcoceemg45ZRTUs8ASjBp0qSw9957p56RhTPPPDP84Q9/cBWDNkyIQTvQ1NQUHn744dQzkuvatWuYO3duKPwUWGiXGhoaikWLFoVOnTqlnpLcihUrwvDhw1PPAKogxKCNe/755ysXXnhh6hlZmDJlSthtt91EGLRj73nPe4rzzz8/9Yws3HLLLeGGG25wFYM2SohBGzdy5MiwevXq1DOSO/DAA8OIESNSzwAiGD9+fNh///1Tz8jCaaedFpYsWSLGoA0SYtCG3XjjjZWbb7459YzkGhoawvz580NdXZ1rGNSA+vr6YtGiRaFz586ppyT3yiuvBD+2BNomIQZt1Jo1aypjxoxJPSMLF110Udhjjz1EGNSQ3XffvfBY9p8tWrQo3Hbbba5i0MYIMWijLrjggvC73/0u9Yzk9tlnn3DmmWemngEkMHbs2PChD30o9YwsDB06NKxatUqMQRsixKANevTRRytXX3116hnJ1dfXh+bm5tCxY0fXMKhBdXV1xcKFC0P37t1TT0nu+eefD+PHj089A3gDhBi0MS0tLZWhQ4eGzZs3p56S3Pjx48M+++wjwqCG7brrrsUll1ySekYWZs6cGe666y5XMWgjhBi0MbNmzQr33Xdf6hnJ7bXXXsG3sAZC+PN3jz388MNTz0iupaUlnHrqqWH9+vViDNoAIQZtyMsvv1yZMGFC6hnJdejQITQ3N4dOnTq5hgGhKIpizpw5obGxMfWU5J5++ulw8cUXp54BbAUhBm3IqFGjwvLly1PPSO6ss84K+++/vwgD/qJ///7FFVdckXpGFqZOnRoeeughVzHInBCDNuL222+vXH/99alnJPeOd7wjTJo0KfUMIEODBw8ujjzyyNQzktu8eXMYNGhQ2LRpkxiDjAkxaAPWrVtXOe2001LPSK6uri7Mnz8/dOnSxTUM+KfmzZsXttlmm9QzknvkkUfC9OnTU88AXocQgzbg4osvDs8++2zqGcmNGDEifOhDHxJhwGvaaaediqamptQzsjBp0qTw5JNPuopBpoQYZO7xxx+v+KpmCG9961uDb1ENbI2TTjqp+MxnPpN6RnIbNmwIgwYNCi0tLWIMMiTEIGOVSqUycuTIsHHjxtRTkiqKIsydOzf06NHDNQzYKtdcc03YYYcdUs9I7t577w2zZ89OPQP4J4QYZOzaa68Nd955Z+oZyQ0aNCgcfvjhIgzYatttt10xZ86c1DOycM4554Tf/va3rmKQGSEGmVq6dGnl3HPPTT0jub59+4apU6emngG0QZ/61KeKE044IfWM5NasWRNGjBiRegbwfwgxyNSYMWPCkiVLUs9IbtasWaF3796uYcCbMmvWrLDzzjunnpHcD3/4w/DNb37TVQwyIsQgQz//+c8r3/zmN1PPSO6LX/xiOPbYY0UY8Kb16tWr8Gek/uzMM88Mf/zjH8UYZEKIQWY2btxYGTZsWKhUavtzZZ8+fcKVV16ZegbQDhx11FHFKaecknpGckuXLg2jR49OPQN4lRCDzEyZMiU8+eSTqWckN3PmzLD99tu7hgGt4sorrwy77LJL6hnJffvb3w433nhjbX+lDzIhxCAjzzzzTOWyyy5LPSO5o48+Onzuc58TYUCraWxsLBYsWBCKwkvLiBEjwrJly8QYJCbEICPDhw8P69evTz0jqZ49e4Zrrrkm9QygHTr00EOL4cOHp56R3EsvvRTOOeec1DOg5gkxyMS///u/V3784x+nnpFcU1NT6Nevny9ZA6WYNm1aGDBgQOoZyTU3N4cf/ehHrmKQkBCDDKxYsaJy9tlnp56R3Ec/+tHw5S9/OfUMoB3r2rVrsXDhwtChQ4fUU5KqVCphyJAhYfXq1WIMEhFikIFzzjknvPTSS6lnJNWtW7cwd+7cUPgDHEDJDjrooOKMM85IPSO53/3ud2HixImpZ0DNEmKQ2AMPPFCZP39+6hnJTZs2Ley6664iDIjikksuCXvuuWfqGck1NTWFu+++21UMEhBikNDmzZsrQ4cODS0tLamnJPWRj3wkDBs2LPUMoIY0NDQUixcvDh07dkw9JamWlpZw6qmnhvXr14sxiEyIQUJXXnll+OUvf5l6RlJdunQJ8+bN80giEN2+++5b+O6BITz11FNhypQpqWdAzRFikMjzzz9fueiii1LPSO7iiy8OAwYMEGFAEhMnTgz77bdf6hnJXXbZZeHxxx93FYOIhBgkcvrpp4fVq1ennpHUAQccEPyBeSCljh07Fs3NzaFTp06ppyS1cePGMGjQoNDS0iLGIBIhBgl85zvfqdxyyy2pZyTVqVOn0NzcHDp06OAaBiQ1cODAYsKECalnJHf//feHuXPnpp4BNUOIQWSrVq2quAKFMGHChPDud79bhAFZOPfcc8MBBxyQekZy48aNCy+88IKrGEQgxCCyCRMmhBdeeCH1jKQGDhwYxo0bl3oGwF/U19cXCxcuDJ07d049JamVK1eGUaNGpZ4BNUGIQUSPPfZYZebMmalnJFVfXx+am5tDx44dXcOArOy+++7F5MmTU89I7sYbbww33nijqxiUTIhBJC0tLZWhQ4eGzZs3p56S1DnnnBP2228/EQZk6cwzzwwf+chHUs9IbsSIEWH58uViDEokxCCS5ubmcO+996aekdQ73/nO4A/EAzmrq6srFixYELp37556SlIvvfRSOP/881PPgHZNiEEEf/rTnyq1/gmtrq4uzJ8/P3Tu3Nk1DMja2972tsIPOA5hzpw54a677nIVg5IIMYhg3LhxYcmSJalnJDV69OjwwQ9+UIQBbcJpp50WPv7xj6eekVRLS0s49dRTw4YNG8QYlECIQckefPDByrXXXpt6RlL9+/cPF110UeoZAFutKIqiubk59O7dO/WUpJ5++ulw+eWXp54B7ZIQgxJt2bKlMnTo0NDS0pJ6SjJFUYS5c+eG7t27u4YBbUq/fv2KK664IvWM5C655JLwxBNPuIpBKxNiUKIZM2aEhx9+OPWMpIYMGRIOO+wwEQa0Saecckpx3HHHpZ6R1MaNG8OgQYNCS0uLGINWJMSgJC+99FJl4sSJqWcktfPOO4epU6emngFQlZkzZ4Ztttkm9Yyk7rvvvjBv3rzUM6BdEWJQkjFjxoSVK1emnpHUzJkzQ2Njo2sY0Kb17du3mDFjRuoZyZ133nnhlVdecRWDViLEoAQ/+9nPKt/+9rdTz0jq5JNPDsccc4wIA9qFL37xi8Xxxx+fekZSy5YtC+PHj089A9oNIQatbOPGjZXhw4eHSqV2v2i43XbbBX/AHWhvZs2aFXbYYYfUM5Jqbm4O999/f+1+goNWJMSglU2bNi08+eSTqWckdc0114TtttvONQxoV/r06VPMnTs39YykWlpawogRI3zjDmgFQgxa0fPPP1+57LLLUs9I6rOf/Wz4zGc+I8KAdumYY44pTjzxxNQzknrooYfCggULUs+ANk+IQSsaNWpUWLNmTeoZyWyzzTbh6quvTj0DoFTf+MY3Qr9+/VLPSGrOnDmpJ0CbJ8SglfzkJz+p3HTTTalnJHXVVVeFHXbYwTUMaNd69+5dLFiwIBRFbb7c9evXz7eyh1YgxKAVbNmypXLmmWemnpHUkUceGU488cTafFcC1JzDDjusOPXUU1PPiO6zn/1s+OUvfxkGDhzo9R6qJMSgFcyaNSs89thjqWck09jYGGbPnp16BkBUV155Zdhtt91Sz4iiV69eYc6cOeH6668v+vTpI8KgFQgxqNKyZcsqF154YeoZSU2bNi285S1v8YkZqCndunUr5s2bF+rq2vfbqY9//OPhscceC0OGDPE6D62ofb9yQARf+9rXwtKlS1PPSOaQQw4JgwcPTj0DIIlDDjmkGDFiROoZpejRo0eYO3du+OEPfxh23nlnEQatTIhBlZ555pnUE5Lp1q1bmD9/fihq9U+sA4QQpkyZEgYMGJB6Rqs69thjwxNPPBEGDx5ceI2HcggxqNINN9wQjjnmmNQzkpg8eXLYddddfYIGalrXrl2LhQsXhg4dOqSeUrWdd9453HjjjeHGG28sXMGgXEIMqtStW7fipptuKhYtWhS6d++eek4073//+8PIkSNTzwDIwkEHHVScddZZqWe8aXV1dWHIkCHh8ccfD8cee6wAgwiEGLSSk08+uXjsscfCwQcfnHpK6RoaGkJzc3Po0KGDT9YAr7rooovCXnvtlXrGGzZw4MBw7733hjlz5hSNjY1e1yESIQatqH///sUdd9wR5syZE7p27Zp6TmkmTpwY9thjD5+sAf5GQ0NDsWjRotCxY8fUU7ZK165dw5QpU8JDDz0UDjjgAK/pEJkQg1ZWFEUxZMiQ4sEHHwwHHHBA6jmtbt999w1nn3126hkAWdpnn32K8847L/WMf+mYY44JTz75ZBg3blzh6QZIQ4hBSfbYY4/i1Uc9QmNjY+o5raK+vj7Mmzcv1NfX+6QN8BomTJgQ3vve96ae8U/17ds3LFq0KNx0003FLrvs4rUcEhJiUKK6urpiyJAhxZNPPhk++9nPpp5TtXPPPTfsu+++PnEDvI76+vri2muvDQ0NDamn/EWHDh3C6NGjw1NPPRVOPvlkr+OQASEGEey0007F9ddfX9x6662hf//+qee8Ke9617vC+PHjU88AaBP22muvYuLEialnhBD+/Ej5vffeG5qamnwzDsiIEIOIjjzyyOKJJ54IEydODJ06dUo9Z6vV1dWF5ubm0LlzZ5/AAbbSuHHjwgc/+MFk//xevXqFpqam8MADD4T999/f6zdkRohBZF26dCkmTZpUPPjgg+HAAw9MPWerjBkzJhx00EE+iQO8AXV1dcX8+fNDly5dov+zjz/++PD000+H0aNH+2YckCkhBonsvffexd133x0WLVoUtt1229RzXtPb3va2MGnSpNQzANqkd77zncWll14a7Z83YMCA8KMf/Shcd911xfbbby/AIGNCDBIqiqI4+eSTi1/96lfhpJNOSj3nH9TV1YWFCxeGbt26+WQO8CaNGjUqHHzwwaX+M7p06RImTpwYHnvssfCxj33Maza0AUIMMrDjjjsWixcvLu64446w++67p57zF8OHDw8f/vCHfUIHqEJdXV2xYMGC0KNHj1I+/ic/+cnwxBNPhEmTJhUNDQ1es6GNEGKQkUMOOaR45JFHQlNTU+jWrVvSLbvssku47LLLUv9HAtAu9O/fv5g6dWqrfsx+/fqFRYsWhVtuuaXo37+/AIM2RohBZjp27FiMHj26ePTRR8NRRx2VbMecOXNCjx49fGIHaCVDhw4NRxxxRNUfp76+PowaNSo8+eSTfiYYtGFCDDK16667Ft///veLm2++OfrPHvvqV78aPvGJT/jkDtCKiqIo5s2bF3r37v2mP8YHP/jB8PDDD4errrqq8MUyaNuEGGTu6KOPLh5//PEwceLE0NDQUPo/r2/fvmH69Ompf9sA7VK/fv2KK6+88g3/+7bZZpvQ1NQUfvazn4V3v/vdAgzaASEGbUDXrl2LSZMmFY899lg4/PDDS/1nzZw5M/Tu3dsneYCSfPnLXy4+/elPb9WvLYoinHTSSeGpp54Ko0ePLurq6rw+QzshxKANGTBgQHH77bcX//Zv/xZ23HHHVv/4n//858Nxxx3nkzxAyWbOnBn69Onzur9mv/32C/fcc09YvHhxsd1223lthnZGiEEb9KUvfal46qmnwqhRo0KHDh1a5WNuu+224Rvf+Ebq3xpATdhxxx2LefPm/dO/17t379DU1BTuv//+8P73v1+AQTslxKCN6tmzZ3HVVVcVDz30UDjooIOq/ngzZswI22+/vU/4AJEce+yxxec///m//Ou6urpw0kknhaeffjqMHj266NChg9dkaMeEGLRxAwcOLO66666waNGisN12272pj3HUUUeFE044wSd8gMhmzpwZdtxxx/De977XY4hQY4QYtANFURQnn3xy8cQTT4RBgwaFotj6z+G9evUKc+bMSf1bAKhJ2267bXHfffeFBx54ILzvfe8TYFBDhBi0I3369Cnmz59f3H333WHgwIFb9e+54oorQr9+/XzyB0jkrW99a1G8ka+gAe2CEIN26MADDyz+53/+J8yZMyc0Nja+5q879NBDwymnnJJ6LgBAzRFi0E7V1dUVQ4YMKZ566qlw0kkn/cPf79atW5g3b17wVVgAgPiEGLRzffv2LRYvXlzceeedYffdd//LX58yZUrYddddRRgAQAJCDGrEwQcfXDzyyCOhqakpfOxjHwunnXZa6kkAADVLiEEN6dixYzF69Ojiv/7rv0JdXZ1rGABAIkIMapA/FwYAkJYQAwAAiEyIAQAARCbEAAAAIhNiAAAAkf0/+3/L3QHHCqIAAAAldEVYdGRhdGU6Y3JlYXRlADIwMTktMDYtMjlUMTI6NDI6MDkrMDg6MDBZ2hK7AAAAJXRFWHRkYXRlOm1vZGlmeQAyMDE2LTA0LTI0VDE4OjQyOjEwKzA4OjAw6o7VhAAAAFR0RVh0c3ZnOmJhc2UtdXJpAGZpbGU6Ly8vaG9tZS9kYi9zdmdfaW5mby9zdmcvMTUvNTUvMTU1NTQxMzQ5ZWY5NGJjNDI0NDliZmJhZDMxOWFjY2Yuc3ZnKI5MpQAAAABJRU5ErkJggg==;" vertex="1" parent="1">
          <mxGeometry x="620.68" width="200" height="226.33" as="geometry" />
        </mxCell>
        <mxCell id="D7CyiCbgNfwCUPgvzWG9-4" value="" style="shape=image;verticalLabelPosition=bottom;labelBackgroundColor=#ffffff;verticalAlign=top;aspect=fixed;imageAspect=0;image=data:image/jpeg,/9j/4AAQSkZJRgABAQEAAAAAAAD/4QAuRXhpZgAATU0AKgAAAAgAAkAAAAMAAAABAEAAAEABAAEAAAABAAAAAAAAAAD/2wBDAAoHBwkHBgoJCAkLCwoMDxkQDw4ODx4WFxIZJCAmJSMgIyIoLTkwKCo2KyIjMkQyNjs9QEBAJjBGS0U+Sjk/QD3/2wBDAQsLCw8NDx0QEB09KSMpPT09PT09PT09PT09PT09PT09PT09PT09PT09PT09PT09PT09PT09PT09PT09PT09PT3/wAARCAF+AcMDASIAAhEBAxEB/8QAHwAAAQUBAQEBAQEAAAAAAAAAAAECAwQFBgcICQoL/8QAtRAAAgEDAwIEAwUFBAQAAAF9AQIDAAQRBRIhMUEGE1FhByJxFDKBkaEII0KxwRVS0fAkM2JyggkKFhcYGRolJicoKSo0NTY3ODk6Q0RFRkdISUpTVFVWV1hZWmNkZWZnaGlqc3R1dnd4eXqDhIWGh4iJipKTlJWWl5iZmqKjpKWmp6ipqrKztLW2t7i5usLDxMXGx8jJytLT1NXW19jZ2uHi4+Tl5ufo6erx8vP09fb3+Pn6/8QAHwEAAwEBAQEBAQEBAQAAAAAAAAECAwQFBgcICQoL/8QAtREAAgECBAQDBAcFBAQAAQJ3AAECAxEEBSExBhJBUQdhcRMiMoEIFEKRobHBCSMzUvAVYnLRChYkNOEl8RcYGRomJygpKjU2Nzg5OkNERUZHSElKU1RVVldYWVpjZGVmZ2hpanN0dXZ3eHl6goOEhYaHiImKkpOUlZaXmJmaoqOkpaanqKmqsrO0tba3uLm6wsPExcbHyMnK0tPU1dbX2Nna4uPk5ebn6Onq8vP09fb3+Pn6/9oADAMBAAIRAxEAPwD2WiiigAooooAKKKKACiiigAooooAKKKKACiiigAooooAKKKKACiiigAooooAKKKKACiiigAorI1PxLpuk5E84eQHBjj+Zs+/p+OK4Txh491+ylgNpavplowLLNPDuMpH8PIwOOwyTnrSuh2PUqK5HTfFt8lpbnxBpM9m8ijMsYyh98fw+uMkiultL+2v4/MtJklXvtPI+o7H60XEWaKKKYBRRRQAUUUUAFFFFABRRRQAUUUUAFFFFABRRRQAUUUUAFFFFABRRRQAUUUUAFFFFABRRRQAUUUUAFFFFABRRRQAUUUUAFFFFABRRRQAUUUUAFFFFABRRRQAUUUUAFFFFABRWDq/i/TNHJiMpuLnOBBB8zZ9/T8efY1REPiLXzmZzpNmw+6pzKR/MHt2+lK4GvqniOw0n5J5g03QRJyxPbisorr/iBvm/4lNkT0IzM4/p+OOvQ1q6X4c0/SAGt4d83/PaTDOfx7fhitWize47mVpnh3T9K2vBDvmH/LaX5398E9M+2B7Vg/Fe1+0+Art+8DxuPxbaf0Y12dUNX0uDWtJudPui4huE2MyYDD3Ge+frRbQVyLw9OL7wzpk7YbzrSJm98oM1BeeGbeWQ3Fi72V0OjxHAPPcenXpiruj6XFoukWunWzSPFbRiNWlILED1xV6iw7nNDWNU0ZhHrFoZ4R/y9wenuPy9Poa2rHUrTUo99pOsg6kDgj6g8irfWsO88MWs0gmsybK4U5Dw8D8h+PTFGqEblFc4NQ1fR+NSgF3bj/lvDwR9R/jjr1Nalhq9nqa5tZ1YgZKHhgPXHXHI56UJpgX6KKKYBRRRQAUUUUAFFFFABRRRQAUUUUAFFFFABRRRQAUUUUAFFFFABRRRQAUUUUAFFFFABRRRQAUUUUAFFFFABRRRQAUUUUAFFFFABRRRQAUUUUAFFYGp+LrGxcQW+68uW4WOAbufTI7+wyapfYfEGvD/AE+ddNs2PMMXMjDuPbI9c/QUrjsXtW8XafpjtDGzXV0DtEMPPPoT0z7cn2rLS18SeJMNeyDSbInmGMkyOPc++SMHA9jW/pfh+w0dR9kgAkxgyt8zn8fT2GB7Vp0Wb3D0MrSPDunaL81pb/vW4aaQ73P4np9BgVq0UUJWEFFFFMAooooAKKKKACiiigArG1Dw1ZXrCWJTazqciWEbTn3Hft78da2aKTVwuc0brW9F/wCPmH+0LYHmRDhlHv8Ahnrnp1rS07XrDU8CGYLIesUnysDz+fQ9M1p1j6l4dsdT3M0flTE582P5Sfr6/jz7iizWw9GbFFctjXtBzg/2laDoDnzB/X+fXtWnp/iGx1L5Fk8qXONknBJ9ux/Dn2FFwsa1FFFMQUUUUAFFFFABRRRQAUUUUAFFFFABRRRQAUUUUAFFFFABRRRQAUUUUAFFFFABRRRQAUUUUAFFFFABRRRQAUUU13WNCzsFUDkk9KAHU1mCgsSAB3Nc7feMbZJfs2kxPqF0eixAlR9T6fp7iqyaDq+unfr14YLcnItYCM/j2GD/ALx9xSuOxcv/ABhZQSrb2KvqF033Y7cbh78j+maqnS9b8QLnVLgWFo3W3h5dh79h+OfoK3tP0qz0qHyrK3WJT1I5ZvqTyfxq7Ra+4XM7TdDsNJQizt1RiMNIfmdvqx5x7dK0aKKYgooooAKKKKACiiigAooooAKKKKACiiigAooooAKKKKACs7UNCstSBM0W2Q/8tI+G/wDr/jmtGik1cDmvsms6Lj7HKL21Uf6px8w+n/1s9OlW7HxLZ3R8uctaTg4KTcDPsenqOcHjpW1VK+0m01JcXMKsem4cN+fp7UWa2Hcu0Vzf9mato+TpdyLq3HS3m5I+h/wx16GrFp4ngklEGoRPY3GfuyD5f++scdR1x1ouFjcopAQygggg9CKWmIKKKKACiiigAooooAKKKKACiiigAooooAKKKKACiiigAooooAKKKKACiiigAoori/F/iJQ66fZ3DK7LJ5jIcAEDgZ/A9KTdkNK5019q9pp00EVy5WSdtsahScnIHb3IqcXcDwNMs0ZiXOXDDaMe9eMxQavrr2EFmbto1DE+UTiNsjBB+6pOCcnvXe6d4QuLiCNNYupPIjGEtkkLAfU+vXpn60k2+g2ki5deLo5JzaaPbvf3PQFB8g9yfT3OB71XTw5qOtOsviG8/dg5FrBwB7E/pxk+9dHaWVvYxCK1hSFOuEHX3Pr9TVmna4rlWy06002HyrO3jhQ8kIMZ+p7n61aoopiCiiigAooooAKKKKACiiigAooooAKKKKACiiigAooooAKKKKACiiigAooooAKKKKACq15Y22oR+XdQrIvbI5H0ParNFAHNPod/pO6TRbosmd32aU8denPHf2PA5p0PisW8qwaxaS2kp/jCkofX36g9MjpzXR1FPbxXMZjnjWRD1VxkVNrbDuFvcQ3UQlt5UljPRkbIP4iobHUrTUo3ks50mRGKMVPQ+lc7quiR6Jby31hNPDGAVkiQnBzx+nHXP1ritNvri01iOO2vJ4m8rztsRJErDAOf4cDP8Xt9KTm07NDSurnsVFeZaDq2qX/jeC2FxMUAaSYtOWQAdVweCTkcL06/T02qTuhNWCiiimIKKKKACiiigAooooAKKKKACiisrX9ch8P2C3dxG7oZAmExnnJ7/Q0m7Alc1aK4Y/FbTckCwvDg442f/FUv/C09Oxk2F4PxT/4qp549yuR9juKK4j/haemcn7Decf7n/wAVSf8AC1dK4/0G/wCf9lP/AIqjnj3Dkl2O4rGv/FekWH2lWvoJZ7YZkgikDOvsRng/XFczffE6xuNPuYbSC9huJInWKUqnyORgH73Y8/hXO3ep+H7jw3ZaR5WpWscEeyVrYRgykgByc9SSCd2M8nik5q2jBQfY05vHOu6reLBpduEaT7sUQDvtPdiemPXj6DrVPW/DOrXk4t4LG5jmjJaOVFBXBGcbj8uRuI69hg5qfwn4t0jw1ocFmNOn+0hf38sSj943c5Jzj/IFbh+KWnD/AJcL3r3CD/2apvF7sqzWyNzwlpUujeHLW0ucfaFBMmMdSc4yOpAwM89OtbdcP/wtPTecWV2cdfuf404fE/TSQPsV3n22/wCNWpxS3FyS7HbUVxP/AAtLTP8Anyvf++V/+Kpv/C1dL/587z6bV/xo9pHuLkl2O4oriR8UtLIZvsd5hevyr/jSf8LU0nOPsl8D6bB/jR7SPcOSXY7eiuJ/4WnpP/Pre9eyL/jR/wALT0f/AJ9r7/v2v/xVHPHuHJLsdtRXFH4p6R2tb4/8AX/4qk/4WnpP/Pre/wDfC/40c8e4ckux21FcT/wtLSf+fS9/74X/AOKo/wCFp6TjP2S+GB/cX/4qjnj3DkfY7aiuJ/4WnpH/AD6334Iv/wAVR/wtPSOn2W+/74X/AOKo549w5H2O2orif+Fp6T/z633/AHwv+NH/AAtPSOD9kvsHodi//FUc8e4ckux21FcSfilpI/5dL/p/cX/4qj/haekc5tr0Y9UX/wCKo549w5H2O2ori/8AhaGk/wDPrf8A4Rr/APFUn/C0tI/59dQ/79r/APFUc67hyPsdrRXFf8LT0b/n2v8A/vhP/iqT/hamjcj7NfZHbYn/AMVRzruHI+x21FcWPihpLruFpfEYz91Pr/epp+KmjjGbW/5HH7tOf/HqOePcOR9jtqK4kfFTRuf9Fv8Ajt5af/FUD4raKf8Al3v/APv2v/xVHPHuHI+x21FcT/wtXRV629/7/u0/+KqV/iXpCx7/ALPfnjP+qX+e6jnj3DkfY7GiuH/4Wvo+f+PW+64zsX/4qj/hbGjDJ+y32P8AcX/4qjnj3DkfY7iiuG/4Wxo+SPsl9+Kr/wDFUf8AC2dG5/0a84/2V/8AiqOePcOR9juaK4b/AIWxo3H+i3nP+yn/AMVSf8Lb0X/n1v8A/vhP/iqOePcOR9jt5EWRGSRQyMMEEcEVyepfDfR9RdGie6tNoxiCXHHtnJH4ce1Vf+FsaMelrfc/7Kf/ABVH/C2NH/59b3Of7q//ABVJyg92NRktkWL3wHEI/wDiXTbcDAjn+YE+oPUd/XrVeLWdW8PTrb6lG7xscI0zZVv92Qd89m9aUfFXSSGItL35eo2pn/0KqGs/ErS9S0a8s4re7SWeF0id40IVyPlb73ZsH8KTcejsPll1R1kfizSHngt5byOC4nO2OGY7GLcfLzwTyOO+RW3Xjtvrnhm28PXOmmDUbkz2n2Ym4CMFwOMYI6Ng56jAxg1vad8UdPttMtILuG9muYoUSWQKPncABjye5yapTVtWJwfY9EorhP8AhbWk8f6Ffc+oQf8As1N/4W5pXawvz9An/wAVRzx7i5H2O9orgH+LumAZGm354zyEH/s1M/4XBp/P/ErvfzT/ABo549w5H2PQqK5nwr43tPFdxcQ21pcwNAgcmXbhgTjjBPpXTVSaZLVgooopgFcV8VS3/CMW6r/HdqD9Njn+ldrXF/FIFvDtoB/z+L/6LeonsyoatHksTmPAkJMeeM84/wDrfy+nS5sUnOMZHHIH+e9QSREZAPQdCazpr+406YFQnksdpLJnGOQOCPUmudR5tjob5dzcSLORlh369KY8XXqB0wTjFZ0OvXbxqTHaDcOhDHPf+92qV9fkyN8Ns3ODiMj/ANmqlRkR7RFvyWPZm7etL5JBOQR6/L0qp/biFNxtIOuRkuP/AGamnxC2B/o8GQOOGP8ANqbosFURfMK853Z94+tN8tOASPxGM1RHiWcYAhgHH9w/40p8Rvzm2gJPXh//AIql7GQ/aov/AGYdBgknjil+z/K3yjJ4BAPFUP8AhJG5/wBDt+f9/j/x6k/4SN/+fW2/ESf/ABVHsZB7VF+SFnIIQA4wevJqMWxBAIIz7niqn/CQtwPs1vgenmf/ABVN/wCEjkAGIIB/38P/ALNR7GQe1RdMI7c89ASKT7ORzz68E81RfxHNz+5g/HzB/wCzU0+JJ+P3NsB/205/8eo9jIPaxL5t8N3HHqfrTfJIxzwOevSqX/CST8jyLcd/+WnH/j1M/wCEhl5HkW5+pk/+Ko9jIftYmkIlGOWOeMik8oDs/vg9Pzqh/wAJDKM5trc565L8/wDj1H/CRuM/6JbZ+r8/+PUexkL2sTQESnONxzxjAoFux52sMjPJxWePEso/5dYMe7P/APFU4eKJR/y6QH6vJ/jR7KQe0iaAtySMbumBzSfZ2AH3uvXPSqP/AAlEhx/olvx3Lyf40n/CUS8j7PD/AN9OMfrR7KQe1iXvsxyDx17kij7Gx5CBsDsScf8A1qpHxTN/zxhGB3Ln+tN/4Si4k6pEfbJGKXsZB7WJoC1kQf6sClEOAcqcjnGf8Kz/APhJZTnNvESeMljR/wAJJNx/o8GPqaPZSD2sS/8AZ8gkjHcjGaBa9gv5jNZ//CQyd7aAepyeKD4jPAMEP59f/wBVP2Ug9pE0fsrY4XA+mP8AIpPszJjO3A6YHWs4+JyMgQR+nJz/AEqM+Kj/AM+iHJyST1peykHtImqEdCG49cEelI8bOS2339f8isseKM9bVfqT/wDWpw8UkD/UKee7f/Wo9lIPaRNAQt/sn8KPLHf+IZ4GKzv+Enz1tUIz3ageJ/Wzib6uR/Kj2Ug9pE0CinlVBPfoM00xsMjY2M5xmqQ8Srgf6DF9PMakHiQAfLZxc8cyMaPZSD2kS95fUhCMcnkcUeWcf6s8c5z/APWqj/wk5/584fwZqX/hKG72sX/fTU/ZSD2kS75TEH93gfUGl+znqV49qo/8JPnH+hw+hySc0f8ACUMM4tYxnsCxo9lIPaRLhibkBenHHFJ9nYk/I3HoRVb/AISlsj/RI+uerU0eKXT7trFx7sP5UeykHtIl4WzkcBumCM0htnOOW9ODnNVD4tkOM2ltx67v8aX/AIS6Y9bW3x6AHj9aXspB7SJObVhjLf8Aj3Sk8k/3wO+TmoD4sk4H2O149VP+PSm/8JVIf+XS1/BW/wAafspB7SJZMOP488dh1pjwkY6nPY96g/4Spi3zWtvjrgBh/wCzUf8ACRhwB5ECnPUA/wDxXaj2Ug9oibyn9GP6UpiIOPm9etR/22xHENoQBk7lP9DUcmtTuTiK047CN+P/AB6l7GQe0iWEifjGSR2zQImfLNzH0znO7/61S6PfLfTss8ELRrE74RGQ5UZxyx4/xpGkMjnjAxwoPTpUuLjoyk1LY7n4Rljquo/3RCnTtzXqleV/CSQf2rqKdT5KNkfU16pXRS+EwnuFFFFaEBXF/FHA8OWxPQXa/wDoD12lcZ8URnw3be14v/oL1E/hZUPiR5c/3HCjkg84z3rn9cB324I53EYI9l9K35EJBUqD8p4JxmsHX02T2wwowTwOc8J/+uuej8R0VfhIwfLjABHAycd6ZvwOWOeg4oOdi9SNuBURftkDA5xzmuw5CWSQYCgnpg1EZB7n6imu55yoPbkdP/r0Ag5AGOcCgBfMPYfmKUOxBxjj0HSkAHAJXHfjGf8A69LgcnAPIBANACF2wCcDnjPek8w88jg9jRgcEccZIB6f560hz19OenT/AD1oAXzG/Km+Zn0o4zxn2HpSZxgjJ+o6/wD1qAF8wdh+tL5nTg/XNN4OOoP0o9g2c9qAHeYOePwz0pN/seffrQAx7Pz0zQA2R2yeOaADd9cj0NJv574zS9h8y9emaXC7jzxnHA60AIDnHXngnrSZ6f8A6v8AOaPk5zk/QY/n60vyjPG4dM5oATPtyOmKN7cY5GelL8uSAM8ZHJOP8/jRxyRsXHIBBOaAE3t0wT+GaXe34D36Um8eo9SoGM0eYeDkAj26/wD16ADLcAt+RzijIOeevIGOtJ5rcZOR6gAUm5umeMdOtACk8nrxycnFISdpBz09Kbk+pOOc56Uu9j/ERxjrxQAuevH60cnBwxH8qbvbuWwOxNJyc+3TnJ/z2oAUbgM4ODzS/OM9eOOnSmY68DpzntRyee/1oAk+bucfhjNHzHHKnnA7VHn6Yx25zS9xznuM96AH5buVBNGG9R6cDOM1Hnjt/OjBz06cc85oAdnofTrxRkDtx0yKbhvRvbPel2NuI6Ed89KAF35BwB7j0o3jJ+VR2xTcHr09SeaUg8jcvpQAufbpxS5+lN2dRnJzg4pcgf3j9DigBPM4PA/OnFyOoxx6UmAAMg8cdelHy/exnPXP+f8AP6UAOypzwM4puVz0I4o+X0OT2zjFO6cbcH+dADsL1GcHtjrSgLk8d+opN45wOPXNLkZGRQBII1JABxn17UocxgHkY54OM03eCOABgcnPSlyMnPB44xmgDf0Ej7fINzEtbygL1x8tKByT2IBx1zVbw4M38hGPlt5Tg9soat/3h7Zrlr7o6aOx23wk/wCQ9qHH/Lsn/oVer15T8JMf25qPr9mT/wBCr1ataXwozqfEFFFFaGYVxvxPGfDUH/X2n/oLV2Vcd8Tv+RZh/wCvpP8A0FqifwsqHxI8tJGCCB8wPYjNYHiHHn2vHrn8l/wroeDk5OcY+U4rnvEiAG2bJPzcEnPYVz0fiR0VfhK3VB9Kg96lz8gHHA/rUXOBj7x7ZrsOQQ9xyfTtSoBwD+lIQ3GMHn1FKmMY2nIFACjseRz2GMUnPHcjjrmlAxgj8+mKdjuQQfU0AMweTyOPXrRsPP65qTBHbHuO9IAcdD+FADDuGeeD1Gc5pNmAe+fTipdh559yKTYMen070AR85yBxnJ5o5A4LDAx1qQoODke3HSjZnjrzxnjNAEZQ5OcH360mCO2Pw6VJgdiPwFGCATj36dKAIiD7n3zmj5ufvH696k2AEew5I4JppTrxkDg47f8A16AG4HB7dMdKTpjI6djxTynvwOnHWm7COx69aAGYbpkHnpnrRg8/lz2pwGAB2xgn0o544xngkd6AD5iQM98cnFN/L/GnZb6gDGM9KPTkfj3oAb6/XHXNHr9c+lLwRjAz65pD6d+g5oATB9j+NIST2GfSl57DvR6dcjn60AGCfx4AHf8A+vRjPc4JzzzikweccDueuKXocjGevI/z9aAEwThs4PXJ4xS/l+Pb/wDVRhuCFPTrikx0I/AnvQAZ9l9hil9AMhe2TSAf/qJ6/wCelAGPQfWgBd3Q5yR2P+fwo56gY5zx2o49/pRgc4HPWgBOnB5/CjjA569BnpS8en/16XHJx06Z9aAEA6YAwOn+f1pPXGf8KXBB53D+lL1BJwBjOQetADcfTjoaOB3596lx8xAxgenGe1M9D0+hoAbj6+ho6fU/pS8f57UvoOeB27UANwPcHsetOwcAn/P+cUcgkfr6U4EAcHFAAAexI70vbkD6+lLkE9e/HtSdvX+tACjGee4zyacDgE/himJwTj0oJ4I798d6AN7wtzfSjPW3lHJ6/Kat88+gAqn4SI/tOQdP9Hl/9BNXgBkgZPHeuWtudNHY7T4TD/ieajgcfZk/9Cr1avLPhOP+J3qHr9mTv/tGvU61pfCjOp8QUUUVoZhXHfE7P/CMxen2pM/k1djXHfE3/kWIvUXKfyaon8LKh8SPLpegBYEgZwDnrz2rC8SD5LT/AHiDzW2d4BXk7hjFYniX7tocnG4k81hR+JHRV+EojGwdsio+Tj6VIegJ9Ki479K6zkE5xwP0zSxk98EHjr/nmk644xgflQhwD0GTjkdKAHDHOOpHQmpg47nH49Kh3569cckd6enI6jjnJoAmAV8cn0yeaPKH19PekQcgEHPuKeATgbfyFAERQDvj3zTeeMnp6ipiBgD+vSmEDj5u2cZz/KgBgxnHH4CkOO45BweKTJ556HHSkJJIyenvjFACnHGaOvI55603sDjOfeg8dQfwPSgBf89elHTBA4zwM9KacdO57ZzRntx17HFAC5/LPOT0pOOx784NB57c/nmm55OOn1oAXg446cdzSYHpx9KMfpRjrigA49Pwpp2//WxS9M9qYeO+fX3oAM/n7CjJ6Z9qQ/n6HpSfT0446UAOznHP046f560HHPXkZB6YpuV9Mj0x/nmhBnG3nIyO1ACnB6AdOpozjOOR9OtJnHf26YzRx3IyOcHmgBTjk9O49qXj3x396aBkjHOTgDGM0fKnfODjOM9qAHce3v3xQMeg9hnpTewH6jvS8evUenSgBcjjj9Kdxjp9MGmcdz1pQOnJHfOKAFOPpSdhj86d0A4GccA85/8Ar04Ac5GST25xQAmPUZ4yef8APtSE9DzyPy//AFUE7uMng/n/AJ/z6U09wOp6igAHJz/kUZ45pCMEj8qdmgBCO9H+RTh09sdc004/+tmgA4ycAUA9Pz69aOP8npTvX9KADeeev+NLycHke2aZjrxjHT2p6dPbOeO9ACngD8hxQfuZz+dBx0xnuaQ9MDt6UAbnhIf8TKTJGfs8n4cYrSQHn6DtVHwttF7Mxxj7O49PStHGNwA7D8a5a2500tjs/hR/yGNQ/wCveP8A9CNeo15h8KOdV1I+kEQx6fM1en1rT+FGVT4gooorQgK5H4mZ/wCEXU8cXCdfoa66uO+JxK+E8gZYTrjj2NTPZlQ3R5ZJ8+4kA7h1PY/h9axPFH/LpweSc/nW1HIr54PzKDyM571j+KBxaHjgnt7muelujepszO6oD7fnUZ7/AO174p6H5B0+vpTTjj8D6V1nKNweR6ULnJI45xTvU9PSm9KAF7ZxxjPHFTxhdp3EnBzUPOB6dKmi7EdaAJUAGcjI6detGC/PAx19v85pC/oSTjqBQTkEHPAz16UALyO3A6k85prlkyc5+nb/AOvTvT1xjI70OFPPT1oAr7DyOfX0puCR1x9alI65549KaAPY+nbNADMHORxz/n8aYeOucjGOcYqYgnBbIz1z3pjgdh2x9aAIjkdsdj7UZPAOfQ5HX86U8dx79s03nJBAHPWgBcg4Ofr2xSfUMQB2PSgEE+mTml464IA9D/nmgAyOe+BxQScfX8KQ44zj06U09yB1oAHcfrTd/Iz/ACoOB/FkYzyetMI446+lAC5GB09TRznHT2B6Ucc8kc84PSjYc8bvfBzmgAAJ4/PNTAcHA6nGeuP88U0IMH6dx/n605zyQMHtnpigBpcAtx9eKYXI+me3elODknj070oAxkDp2BzQADgE45b04xScDGOf6UpBycj34NLjnbk4zwetADQfQ9BjinDHOPTkjikCYIPI5yDjH+TS5OABwP5UAOwo6gk9OeMUccc9+D61Hg9vpilB2A9x0ODnNAEgAA3HHPOCc5phfP09c9aaSx5zxjt3/wDr0ZPUkUAOP4dccmk5ckenc8/570g/nTgPbnqDQAnc5GAeMdMU/HTnnp9f/r0cZ7e3FL6Yx9M/5/pQAwZ65xn3oOe3U9SKcckZx0GPSmkgA7c59jQAp7ZJz1Jx0pQTx+fTpUeec84+lSp1/wAKAADp09DzTh3+memcUBB6d/zo5HPPrxQAmcsPyHbFRnGD6deO1P4yDkfnTDgZzkfjigDf8Lc3VwOp+zOQPTgVrZByc9eKx/CuPts+c/8AHs4/lWyBnePQZGO9c1bc6aOx2vwo41LU/wDrjF/6E9em15l8KRjU9TGP+WMX/oT16bWlP4UZVPiCiiitCArkfiZ/yK6/9fKf1rrq5H4l/wDIrL7XCf1qKnwsqG6PKkGQD68HPesTxR/y6nnGT/M1tjhF+uR2rF8T5H2Ue5/HmsKW6N6mzMsfcHrkUpHB69M0DGwD07Up7j8ea6zlG+uD+ApCeQevGOTR689fWkJOeD7UAPznBPHr/n86kjz9OPyqIZx0yOlOQ8jt9aAJg59fbmgZGef1xTfU+3UClzxyOM5+lAD0cDqcAnPXFPJyM8dPpUIyenPHfvUiHIHTk5oAgJ+c9vocYpc5P4dMU0/fOccHGTSZHTjPTrnNADjjI/nmkce/Gc89qVCCe5/Wn4GD2J9O9AFU59uR2GcU3qecZ6HFSunIxux0xTCMdT+fagBv6Y9DRkdP6dKcQeOcfp/kUhB6HGPU0AHXH0weOlM56+h7808A4HHTnOKCPUdP0oAiIx14wMnAx/n/AOvTcAkcj0z/AJ/+tU2T3wcGoyBz0yOcHvQA38unPtSxnOPSmnORxgY474p4GEyM9cc0ASDdgYOWA4HTFNxzn2weOlNzknJPJ5zTgW5Bwe3Tp/8AXoAQE4B9OfXGf8KDu44AzwQR0pQSPTn9KfyR6nHfjNADMMAOAe3Xn1/WjJ4GzHbJHSn7ByMAZ6EHpSiM884PXHrQBHkEHPU9DQDyf1qQp0GcAjOaPL7njB9PxoAb6DA6evX/AD/n0ppBPJxwOADjFSiNQT7jHTp/9ekCZx0BAzigCLHUn0zkdqMEenrml+YHjPr1o5POOPbtQAmDn1A5OD1pdgHqBnp604YGfzzSHHIxzjuOlACZ+Tnnjp/n86fkDuCexJxUf5YPoen+eKQ88HHSgBxJOB1xxgnFIRnJByPSkDjGM9uw/GlyeQew4NAB+X0p6Y9KjBBB55pyHt6HOfSgCbr2/DHWkIPHy9ePpSo/8qHxkYGfWgBgweDjHXHrTDyD04OOeOvP9KeAd5x16D3pO3TuBk9qAN3wsVF1IG/igcA+n+cGtrgO3QjODxWL4W/4+Zj2ED559a2H++3vjFc1bc6KWx23wr/5CWpH/pjHx6fM9el15p8Keb/U244iiHHb5nr0utKXwozqfEwooorQgK5H4lceFc+k6dPxrrq5D4mf8ip/23T+tRP4WVD4keV9gM9uQT7VjeKB/wAevuW/nWySMnGfbvmsbxOcx2Xrkiuel8SOip8LMz/lnx3AoPOOnTBNOT/Ug+2c0YwD+ntXYchHjII7kd6aeoJwM9TjFP8ATjOR0ph7Y5H55oAUHIGcHnI5zSo5/wBnH5fypEwcg+h7dKX1z6Zz0oAmwCDyfqBjNHrnHpg8UDPByBx69KXHJ74464oAMHpxnrzT0JwSfoM0zp3Xp9f84/pRlhkcAigB0oGSwJI+uMVDnPr19M4/+t3qUnqcZFNCMM9cnjigBvGMZGcZOBigkgcdevHan7ByT/8Ar/8Ar0zPp+ec4/8ArUAMJ56D2IpOcdc5/GnHnBPXPTOaMA568dvSgBNnfPHfjpTeAM5/TP8An/61SoPm/rSODgnkHOee/wD9egCA49s/SmHHfjHTjrUjg9ueO1R/L34x2z1/+tQAH5AcggE8HOKjPfIx2x0pfmyCMDj0pSQT8348UAM4GOWII6CgjsQc4xSYPOeD2GKdjtgY+v8An1oABjIwc47ZpQ57DHOMHt/k0gz6Hj15xR9CcfdOe9ADi/GT1PXApN7HPJOTnimj6H5e3WnAqMH8gDnNAEvbA6gdQetKCADnBDHGc4pmVwcdemcdaeJBkZI44xjGf880AOGMfw9OD1zSjHQfTOOtNR1P93Dd+lLnIyMYx155oAcegHHXqTnFGD+uMUm/3xkccUj7cHkDnnH/ANegBSOT/nFN8vjIJ69uaMjAyffINJwfr0xQAzY3HqDRgjnkjPOTUhft6c5HNJ05HGB16UAIApA+mMHPNMxnPv29ak4JOMA9R70wlRkEgdsZoAaUXr82fTPWjjoT0PpSvnfyDg9OelN4OSDx/OgBQB2Jpen97j3zimjqPapR2/KgBuDjO4n0yM075uTkHjJycZo4GfbvQT155A/KgBASXBGA3Xg4pMkjJ7nkYppOMYbPccUpJ9SaAN/wmW+2SYyMQPn24rYc/Ow/XpWT4RC/abgHvA+PfpWrk5bH1rmrbnTS2O4+E/8Ax/6tjOPKh/m9el15r8KM/bdW/wCucP8AOSvSq0pfCjKp8TCiiitCArkviVz4W7/8fCf1rra5L4lf8isPe4jH86iezKhujyjHJJPIOOeaxfEnL2a9MsRn8q2ifvHI5boaxPEvW0Pq5P0rCn8SN6nwsqxqfJH5H8jUcoxn8T/KpkPB4x8x7de1RynOc9+uDXWcpEMHGP05ppHsfXinDsecY55/zxSEdBx7UAJjnJx70qYJHU5HajAwRnGR+dOHVfpxjvQBJHkjoBgj8e/509M557dff8qZEmcDgngetSHGOccdfegBSFwR3HamgcnBAxwMDNGRwBzkZ5OP5/lSg8deemCOn+eaAEPTgk/pikyMDI6cDmkPTnHXHNNzwOfxz/nmgBSfTGAM1GS3Yj8eKccdTn6dKbknJyffnFABnGcnPr2pRg9hk+h/z/SkGQaXAIzjPPSgBR6g5B7njP8A9emu/sacO/Q57CkJBPbGMEUAQ89B9PpTTh8jGD6AYzTyMdeDj0zSYHcfl2/z+FAERRjnHHGcfrSfMc9PXr1qUoCMZJGM89qQhhkdT1wB0oAZ5fXnHHAHGaUYTHcYznpR8px1HOBijA5+mcAZzQAgPQAAeho+mSO+D0qTywQDnPHr0oEeMfKx/H/P0oAiKB8jp9e1IQRjPUH0xmpiUHQHJ464xUW8EnGSPpQA3OPr0z6UozwQT16daQbgegPbJFI7t1yduecd6AH5IwcjI4P+fSjeQfQg9jTMjaeGA/nRnOcc4HQjrQBPwcYBIzwBxmmE479eee3+eKjIPOD7ccfyo55z3/WgCTfx0PTmnZH07VHzn6c8UenbHGemaAJTnOCTx29KYfbj8cUnPQ59+MUZz3B4zz3oAXPQH8iMY/z0ppOQRnBA9KTOO3B4x60dQCBx157UAOL9cZzn8qQHgAZyfSk2cEbenJIpcc8Y+vXP+f6UALzxxUgwQOcc8Goxgfz4FOGAc8g+4oAlRA6HPBznOajcjPPTqB6VKuB+WahbqcmgBvPIwdp6gdulJkZH9P8APSgc8c5znp0pM855GeaAOi8JZN5KoPHlPnt6Vr4Azx+dZfg/P2q5+UEi3cjnGOlazkZIBx7DtXNW3Omlsdv8J/8Aj91b/rlD293r0qvNfhN/x+6t/wBc4f5vXpVaU/hRlU+JhRRRWhAVyXxJ/wCRYQc83MfT8a62uQ+JeB4ZjJzgXKZx9GqZ7MqO6PJ/MG/b2zuPvjFYfiP79oM/xE1tR9R6sOcH/PpWN4h4ks/941jDdG0/hII8YJ5xk/hSS549evpj/PSiIfJ74J+lEoyT6Y7muk5iEZ44JzwOKQnIzk59cdaCBxz7j2oGfTPfPXFADkC4PBxnsaEABAyfwHWmjgEAADPpThjqMdccDOf8/hQBKhAx0Pt/n/69Bc84+mT3/KmZxkjrnkdM0jY7jkdCe9AEm85yw68HB/z/AFpShzgryOOR1/xqAkg8EnI47571KHDjnaMHjJ6UAKeQeOevHOf881HkjjJX2J60pHGOcgYxjOKQd8EccgA9P89aAEOewPqeOn5fhRgn8s8inDPXBxjPpj/61LhTnrk8dev/ANf86AGYIxxyeBS/cyDyOmaXHuScelRkkkE564oAd68d+vWm889OKTPTPfpilznOe/XPegBpOzIyRnvn/PFN4HT0x60/rkcj/Zx/n+tNwOAe5zz3oAbnPGeQOppeScE49Ae1OSMkcgdOBjpS+Xsxlh6gUAIUAz6HqM5P6duKPQcjj1pR3IG76mnYkfAG4KTxzmgBhcjA+Untj/P1NMJJwPmPcCpREwwNoORxxSZHTywOw+XFAEHzckscnnmmnGTzwR9c095B1MfPTIJqMyKcj5vbHagBp3cY5x1pCenHYjp/n607ep53sDj65o2ZOcqS3PpmgBBjOcHI4PNHYDPsKNjHnBOB/wDWpBgAAjkcdf8AP0oAd1B9P50pAH/1qb6cEAHHJz/kU8nkEde9ACccccg9PWncdM47kdP89KjyQeOO+CKXJx1oAdx9ef8AP4UDrjH6UmTnGM84A9aTPP6mgBwTIyPy/wA96THTt7ClxnHtyD60pHQ5GPpjFACZP5e+P8/5+lAAAJORzgf59KCD0zwTnFIPvg46ds0AOB54H0GetSDkcj361Ec/j1AHb/P9KljySCenTNAEg4x9MVA/X6VOPQDPBAHrVdqAE/Dnt7U3PBNOOOhyMHjjrTff/JpAdD4T3f2hIPWF8n64H9a2TjJOc8Amsnwj/wAf8x/6YNznp8y1rAnJ6fXNc9bc6KWx3PwoAF7q2B/yzh/Hl69KrzX4UZ+26t1/1cPX/gdelVpT+FGdT4mFFFFaEBXH/Ez/AJFdRjObhQP++WrsK474nf8AItQ+90nfHZqiezKhujylEAcYwO/XpWN4kI32nsxrW3gYweO+OKxfEPD2vsxHpjPP9awpX5japsQwkhFzn1olwcYz0x9aSPkLk9/zpZehz9fpXWcxAAM54GPaj2OfoBSjj3xzjrmkPU9wx60AAzxhQMnvzT+OpIB7Y7f/AFqb36DHajoMHr9MAf8A1u1ACnAwRz+Of85oGewH4cZ/+vTd54IOeMcnrS557emTzQApJHUtz265oEhyOcFvUev+NN9AVA4+lKM9F6Adx/n+tAD3PAGORwDnNNwTn8zml654VgDk0vLqSfvqORigBEx/9YjOP/rf41JgjH5FqAMDOQT6460dMBTwPQ0ARnOOnHrj/PHamEkE5yDinP3zyOnHamfMehGe2Tn3oATr29s0nOABwf50Ejv9emMUHnHI46j1oAXkdjj6YxQCM9QSPXimkn0IPQEcZo+Y8gj8s5/+tQBN83Rcbf503Zgjc2CDnHpTcsAAM9c5pD9cZ5+lAEgKgjauTnqf89KUknOD14HOM/nUPPqcZ646UoP4Z9KAFcnjkjjqDioi/XBA7c1IUOOR7HHb86j8vg/TJxQAznnJOMYz0xTTv65OD79alwoznk/WkOBnnHagCL5ueW68c0od+pZvU0pHIGc9uKTHoO+CeKAFDtzhiPp2pd7HILbsnPzDNNB556jrjrSZPTPbigBSCMHGMcY9KM/mOOec0uR+B/KgjIyAfX1oAYeOMAjtSgg54PNDgplffoe1HAGD0B5oAMZ7jHvx/kUuG55B4z160dM4HXnjil5PrnPJB60AJkZPX0zjrSoRxz29KAg55PoCRTgADzyD7daAFGCMDv7YpD989TzkE96cIwwOOOMdenekRCME4PoPT/69AAMDPHXg8VMmQM+oz1xTDgEfeyeakBITHTPGQKAE5GDjHOfpUUnLk/kKkfknGCB0OKjPbIzzjjnNAEZx1yQaaP8APtUmCR1BHXr+FRjp/PtQB0vhEE3s/HIgfPP+0taxB5xjJ6flWX4NT/Sro+lu38xWocZHXpmuatudNLY7r4U5+2asf9mIfq1ek15v8KcfbNV/65xf+hSV6RWlP4UZVPiYUUUVoQFcd8Tcf8I1Dn/n6T+TV2Ncb8Txnw1CPW6X/wBBepnsyobo8kkH7w98HHTrWT4kwJLfJ/iOSa1z1fHfn61l+JUHmWqk5+Y9Kxp7ms9ipGDgHt15p0nTn6HtiiMfIO4xjFEh/PHUV0nOQYJ446Y6Umc9R0POKdgY4x7Dp3pCpyOvHIwcUAALAYAwQO3GaTpk+3HFO57jv0zSYAyO/TPTFADeQcjr0GTmng5x1Bx603YDn+fpTgPXGAOwoAPm68+oz70dyDkduT/nn8qVyTk9/r0oz0/LGaAEwc+meo9KcMA85wvQ9Mf/AKqQ47LkH0GKXqmeMqMHmgCTqCQB7gc4/wD11Gc4we9P3gdRn1GP88jrTHIHBPQ5yB1//XQBG5PJxg9Rnio8Zz3+opz4BA5wec9M0mRycdD2PSgBcHofujpz/n+tO8rrz0PXpTQ478/1/LvS5Pr+mKAFwB1zx0yf88UhTn0Oc884o3gnkD+WKM5w2PwBzQADPHtx9P8A69IB1IB/nTt4/PkE0x3HbH1xQAuBzjpj6/5/+vRkY54U+lRb+uCT6An/AD/kUF+oB7+n+e9AE34gkDBxUblT7Y6c4qEyH3GOmDnFNMjdevvnpQBJnGcHOe9NBBzjcMcnnpTd/oT8p65xRyTgjGOR7flQAueSck5P+f8ACkyB0GfbNNKYxkYAPc0Zb3zjk0AOzx/F6fSkO3vkHp0xTecA88DGR2pQM9889M0AO4weQfT2pcsT1JJ9ulMBA4BOe9Lnnkj5epzQA+Mjk4GOmOuc/wD6s0/rkLxx6Zz/APrqM4GBg5PfHXNKHHrz24oAGzyMk9wD2/8Ar0mcHJ5z15p5OQfQetIRwDwefSgADAc8jt60oIHTHuKbnPPTHT1NGTnocnpzQBMCB3xx3Gakz0PXPOSKrAr+OMgU4Hj15zjrQBYJCfMCDu44FNPOfp25/wA+tNzkD26AUmTyT69aAHB2OAD9MU1yCBgfMOuec0w5B7j+lPQFCCe/THNADH6E+oqPHTt/SpZMgEEYxzzzTAMuO3f6UgOk8HgiS+7n7K5HvyK1nx5hA61l+EeLq8BOALSQkgZxgitIlt4J44B69ea56u5vT2O8+Fn/AB+6r/1yg/8AZ69HrzX4UZN/qxIwDFBj/wAfr0qtafwoznuFFFFWSFcd8Tv+Rbg/6+l74/hauxrjvidz4ctxnGbtB/461RPZlQ3R5RsIGORlQSfSsfxP/r7QDplif0rbA4B4yFyfasbxPgzWJHoc/pWNN+8bVF7pVjHA/liiQjnn/CnR9B+PFNfg/wCTXWcxEQB3P4DGKYcfdI9hzmpSDz9M/SoznOAM/U/WkAAnAxnr9aU7scn8T/npScZHQkDp1pxzySD6n/P04oAT1+X8Qcf59aU4znBwecCkAJ/LrnNPzng4HqelABjI7Ee3+fpTccjO7k5yBQ4GB1bnPFNDkZIY+uB/n8aAHEADkt69MZpPUZPTGCMUwE8DAORz6ilJx2x+HWgCYgnJB+bv2/nUb52jO7GMZzmlyDnJHHcjFIQx+6Dk9hz/ACoAiPcHGD1B70wjnjt1xT3OMBs59CMYqLfjpwfUc0AJx7Zzkc9aUv09+ueaQ856dOh70meuPr1xQAHrnpx6YzTuT069hjpTM9McduaDz/8AXoAeSTnkDJ/OmnPTdyOOMUhI/wDrZpCQSee2Ac0ANJPoPzoJZx0zjrxTTk5yRx1HpRkEYJz9BjNACE+x/Cm72Gep4xQdo5IYAjjAxTd45IyV4HJoAOOCPrTskdx9D3pM4zweeRk9KcrjPAIz6npQAmeAQcHPp0p+c8e/NGByAtGW4Hp1xxQA4AEnuc5AB/zzSdDj0OMjtQRkH735f596QluON2eBkdKAF57jGeh9KX2yOmBjvTQVOf8AGlHGCRjPQ+lAC45J56+tHPXJ9OtKjN6jgZAPH+TS8EAg4/XNADkK8ZY9ckdcUE8dQeeTik454HvS56evbjr/AJ60AJgcjsBjGc0mMZxj+dKcDnHfv3oI6YHHXnvQAsZAyCAcHJyKcewz7dOlRg+/fvzS7xkY9MdaAHb8EZOCOfXFLxs6cE9u1RZ/E5574pyPx1PPFAC8ZA5Pf0zUuPkxnnGMY6f5/GoE5zwT7VODjOB16cdaQAecgZHHSohwSec9CMVOcc8Y49KgOfz7daAOj8IuplvQW+Z7VwuT15B/kM1sumTj1B6nrWR4OCm5uye1s+PfkVqJknr29OvWsKu5vT2O++FcYH9psOuIwfp82P616HXnvwsb5tVjIIK+Uee+d9ehVpT+FGc9woooqyQrjvibn/hHbbHP+lpxjOflauxrjviaceHLc+l2n/oLVE/hZUN0eWclBnoRnke9YfiTieyU/wB0mt0Djp91QOnSsPxLxdWQxjCH+dYUvjOip8JBF0GOfWkfPOMcDt3p0fAGRjjrjHekkBzjAyeldZyEbg9uOMelREjrt68Eipn4AJHaoc898Z7f5/woAUdfr60EHv6dRz/kU0ps7AjIJx2oPCDnHYjOKAHo4yM+uP6U/IKcD68dP8/1qEOxLHLH+tHOQecfTGf/AK/agBXAfHPBPJI603JwD3Jxux0pSce+TkEDGKbnjqBzkg9qAFyR1VSOpJNJkD1APqOtNyOmO+elLwMEAdO5/wA/SgBQecA5GOoFBTuRxnGaQnvgccdcUm/DdWBHPNACnPqSuOB60w5IB9Rz79qc5JzyfxFIclCdue2cUARccHA+oFKev3cE9cdqTPXj25NBHOQMHOCBxigAGMkevfNJnjpz784oJxnnJP6UEfxdAeDQAEj3HfgU3nrj6ZpcjuMY9KQ9/cYz1oAa/UHBBxknrTcL0OeRzzjFOwSQBjPoOM/55prxnBOBnr9aAD5eefy7Uzy8YwfrnmjgMdxwR14zSh0H97I75xQA3BGMY/GgIznKrnJ/OlMvXCqB24zTfMd888Z5xxmgZYUNgbgAcYxnrRgkgDOT09qhjZgTxz05GalBOzDYBHAHpQIDGePbtmkxjPTrxx/n6U7eOmCAeTk0m8nI+YnPrQA056g5/rSjcAeQcc0fnke3WgJ+f86AFDjjI+hHFLkfU03Z+vfPSjJxkfzoAeJPTBHTrS+YpOeAOvPemnvu5x75xQQpJHYHgGgBc44wR3+tKCCD9PpTegyMnv1oAGeM++RSAfsBwcgfjSEYHPY/5/Kk9DnP4/5+lPGcnjt09KYEZPJOe/B6Yo6ZwTzSumeRxk80wdCfQcc4zSAemQSDjpnNPHHTp05pgOOPUZPOMf8A16eOg4JBOTg9KAJh0IOcdBz06f5/CosHBPv2pQcY56fpUiA4JI6Hk0AdH4OAE95727Yxzjlf0rUA5A4zjHP41n+E8/ablc4BtS2Onp/LpV8Hp1+7nr9a56u5vT2O5+Fn/H1q/TgRdB/v16LXnXwpAFxrH/bLv/v16LWtP4UZz3CiiirJCuO+Jv8AyLcP/X0v/oLV2NcZ8T/+Rdth63a/+gvUT+FlQ+JHlwPB9PXFYviU/wCn2X/XM9B71txgbOT2zyKxPEv/ACELT/dIrCj8R0VfhK6EbeB2xSyH2GDzigj12jn86ad3PB68j+VdhyDSeDx1GMdc9aj49CfXjOalx147+nSosEjODwD0NIBBkgYLAjp7UhzyAffkdKAW4OT1ppJ6ZU44wBQAIeQQSCeMntRv7jB9wMUgPUZXn3xilPOCcHPUE9aAAngEEnbxz2qP0zz2OKUJ9Dnj0zSEdOP6UAIeD368c0bx6Lz6ml79D6c0mMA8kDvmgAL54+X6Yzmgbu316GlJPGCOvJHGaTOeM984PegBckDB/wAMUckHHXqOQaYD0IK9OhFGTsHTJ4PHWgBPXk++O9HPbOOnAxmk5/XB5pD05x6daAA4PTj+lAI5GO3PtR36dRSdz3HbigAI6Z9eCeKO4AAwO4oOCBxyvfFIMc9PqaAEL9cnHOMYppKnI2nP5U48fj6CmnJAGcDGOvSgCMkZP6ZOKOmBgYz1xmgoc9+O9AHt+JHWgAznsvBzn1pOfy9adg8EH6d6djPOAcH0oAj+bntnqAaemccgY6/SlCYPH/66eUUdecdQDjFADRn8ccUuOBzwOopegySCR2Bx/kUgwOPb/P8AjQAmcHngnk8UH0/kacAMHBz7UoBwfTt2xQAwZyPlHX8acOOm33yM/wCR/hSgNx+XPFJhhnj8qAAZGPTGTSnjg9xg5oIJ69+nGaUDjIOR1xjGfyoAQIcjaRx05/zxShBxnHWlBOeeMjnjFO4BIzwAMY/XrQAmw8885yR1pAD7decin4zxjGafhjkbc+wFICLAOCMlscc5oMR5znAFTgdeD75OM0vlk9ABx64oArYB6EE+lSomcAj8Ov8Ak0pTGcZyDwM9P/r04Jlewx1J/wA9qADYSCfQ4Gamto1CEsWGDgkjv/8AqyajJ6ewyM8ZzRK4REReeOSKAOj8Hv5l5dtheLdjuIPt/jV8Enbk9Rg/rVTwchje5I3Za3fknGMYNW8LwOSQMdcetc9Xc3p7HdfCgfvtY5z/AKrv0+/Xotec/CjAn1ge0J/WSvRq1p/CjOe4UUUVZIVxfxPONBtDwMXYOT/uPXaVxXxRz/YFr1/4+R/6C1RU+FlQ3R5fng89j04rG8T4/tC09NpPHfpW0B85BPcjg4rG8SYOoWhHdSTj8KxpfEb1PhKxJAzjr36f59aYSvOBn1x2qR4yEUkYyO5zntUWDzkjGc5zXUcohA6dMnJHXFM6ZJGeMAdO38qkIJz/AI1Hg4JHrxzQA0deApB4znp+lITyOF/n/SnbDjoSep5oMfYZ9+aAGYP+NOwMYwSadsHPzZ784FGwfrjjtQAwgb+hHoRximkHnAIB7EVYABx+gJHNJ5XTCk+oNAFbqTwfpRjkenripjE3b0z1pPLbqBjv160AVznjp68UuP8AAc1N5ZA6Yx1OelNKEY4/WgCLYeDjp36UuwdwOOmakxg9APxHFJjBOMccmgCMIMdM985oCew9B3qTDD8PbP8Ak0mw59/cYoAiwCe34jp/9ekx2KrwewqUhsnjryAKMMM9j2oAiA+YHC46UgA6ZXj0HSn7G3Dpzx1xQNwIJ7HPpQBH6cg55PFBTrxwBnJ5z9KfhtmN2QDkDPr/AI/hSFGzjpk+uMUAM8sc9eDyMdaAE7A5JAz0/wA9adgk+5P5/wCetGDkEEcdec4/+vQA3jjIyO3GaXBAOY6XkY64xgfNjv8AypdnA4I47nNAASxBHAC8ev8AkUhOT0GM4OOcf5xQQSTt+7nOPT/6+KOTkBT6Y9KAExwMtgY5AH+eaOMHPHORgYpw7+44GOlGzpkA5GRx0/z1oAQoBghskDPWlAX05NKQOThQc5OT1p2BwCo9M5zigBAgz0+uecUuMZwFHrQCvJAxkdAaDt5IDDHr/wDq/wAKAAjpnnjrjpSZ65IIx09KOMEY4x1z1oJXJOOvIHpQA8EcDOcdsdKdx6+xzUW//HHpTw+c/L7daAQ8ben90c4FO2LjgAY6ZOcVGJPZhk4HNL5uO4/A0ASgAYOAMHjjOP8A61SDHGR2wSODVcOpJ6e+Kd5vBx2H5UAL7ZPuDxnNB24Jzz/L/wCvTRIxOP0yKlHIzwRjoBnFICsX+cnv2FA+cjjvTn++QD0OAemajQHeAOooA7DwsQt1IgJGYHIB78Y/GrWeTx2zyMZrP8Jn/T5uv/Hu+Mc9MVdkwH6dvWuerub09juvhR/x86sP9iH+clej15x8KCDc6sR3jgP6y16PWtP4UZz3CiiirJCuI+KYB8P2oIU/6UOp/wBhq7euK+KAz4ftM4/4+h1H+w9RU+FlQ+JHmCBRnAI5wRnNY3iP/kJ2g7BSBx9K2g6jGCOv54NYviDL6lakA4Ktnj6VhRfvG9X4RHH3RnJ4A9qh8thn9DjFWEyeg4Kg5FMckY+VT3rrOUrOnPVc/TpSCPjkKBng+v8A9epDk5+VfyJpxDHkkdc9M4/SgCLGc8jnoKABjsPoTUx28DI9cgf/AFqcCvI3E8YI/wAigCLZxyR0/Ok8te5qfzFyTn8QBR5i/wB7kewOaAIfLX1XFHl9cDtkcdKm3A++fbP9KTnngdPSmBCc8Edjx7VGT1xn86n2f7I/L/61RmM8jrx0HakBHv5Hze4waMj15zzk07y2HTP+fwpChA6mgCPk5Ib8PSkIznJPNSbG9Wz16daMY/i56/5/nQBFwPzz0pD6Z468ipOf73Tvmmkj+99cH/69AEeM89s54FHy5znntjvTj2GfxzTSffHGKAGkE9P4uenWmYbIP90ccdafkevT05oJGPfp9KAGZb3C5zjpSfNjOBx+Gaf8pGPm9Rzmm7AMEZz1yaAGksck4Gf60oQnnseR2pQfqf8AgNGSM4LAH2oAdsOc8+2eaaR1HY9qM9e/4YozjPXPfigBwQ+uR0PFBKjrnn8KBJjs+Tx0pmeuBj3NFwAOOgB9Bg5zT97YOS2M/nTN7HqSce9H5fic0APOTnPp0zj/ACe9Mwwz8xHHXHX/ADxRnHQr0+tGfcc+tAC/NkEEnHtmkwQMZPrjFJvwccHHY07d7GgBMDOQPqCMZowOcKvTGSP8aN/pnpgZNGSR6dutAC4HBO4n69KHKjJxxjpjFJ82fr3FKUcZ56HkUAIJPw/rQJBx156ZOcUgLEdRj0Ip2xuenTjigBAeuB+HFLk/w4/CniHP97pngUGFuo3evIxikBGDnqADnnvmrUZITO3HrgVGIiPTHbIpzlUjAXHHUgYxQBAZBgeuOQe1O3hMcHJ6470oAkPX1Ix3pQ6A4yPUjrigDovCr7NQkA4LWshJJ9v/AK1XpZMP8wHTPXPasnwq+NVkBHztbSjk46Kf8K08eYVYEbcgEYznpXPW3RvT2O9+Erb7nVuMHy4M4+slelV5p8Jhi81YYx+7gwP++69LrWn8KM57hRRRVkhXF/E8D+wrPk8XY4A6/I9dpXD/ABW48PWr9lugTz0+R6ip8LKhujy8nYmSO5PHPemixt7opLdO24cqqH7vrn8hTjHINskiMiNygK4z+Pr/AJ96WPamBk+mTjmuZO2qOhq+jLIttNAVXhR9owC69fypj2WlOwJiyx68sP5GovMXsy8U3OQPnU9+nSjnl3Dkj2LKabpBH+objowLH+tS/wBnaRsGIF4GDneP/ZqpAA8j6cZpwRsZ+b8qOeXcOVdix/Z+l4C/ZwR2YsRj/wAe/ClOk6SU/wBQoJPXzCP61UKNk9evPHWgBgDge3QUc0u4cq7Fn+yNI/54A/8AbVjj9aiOnaYCQtkrcd525/XrUfzHqM/h/wDXpQWB6kY5yRRzy7j5V2EGm6eQQLJTggf65+P/ANfWnDTNPCZ/s/PcfvJTSb2OPmz7j/8AXTPLXj6Y5X/6/SqU5dyXBdh/9naXk5sCnP8ADOw/melP/s7ScH/QWORgYlP9G61DnGfmJPtn+tOB5+82O2SP896TnLuChHsTmx0vP/IOwP8Aru4zTfsOkHINgR9J3FRk9s84556/rQZB0L/gTj+tLnl3K5I9if7Do2P+PF+vT7U/NR/ZtIzgWLf+BTf41E7g5+dcehfrSb/Rh1znJ5o55dw5V2J/sukcFrFuDyPtbH+vSkNro2R/oDD6XTH+tV/MA5yvp1JzSb1P90c+pp8z7sXKuxObbRsHOnSkdBi5YYoe20Ikk6XMfTE5quXGT90fQUm9eny49xRzPuxcq7Exs9D4A0uQEdzOTSfYtF4xpjgDpiZqi8wdOMfSjeuAOPc7aOZ92HKuxKbPRs/8g1wf+upNRmx0ntp7e3zH/Gk3jjlf++abvXjlT2+5RzPuw5V2D7DpR6WI/wDHj/Wk/s7TMn/Q1/8AHh/Wjev+z9dtHmL0yPqBRzS7hyrsIbDS+R9iUn2Lf40fYdK/581/Bn/+KpC4Hcfl0pDIOBx9MdKOeXcOVdhfsGlHH+hY+rPz/wCPUf2dpfQ2Q/76Y4/8epPMHBwo56YoeRSQPlHGOmaOZ9w5Y9hf7N0sH/j1X/vp/wD4qlGmaQRg2yrn/po4x/49TN4HTb/3zTN/0wPajmfcOWPYmGlaRj/ULj3mb/GnjTdI5/0VTjuJ25/Wq/nNwd/P1IzTvNY4yT+Zoc5dw5V2Jxpmj97JvbE7GmvpOmEjy7Tg9Q0rn+tRmQjA3NnPGSRSiYjOSfbJIz+tLnl3HyrsK2maegJNqPoJHP8AWmG204YH2FjjrlmH9aUy+4POMk//AF6AVOfmC45ycD+lUpy6slxXYSOKxPC2Oe4+cnP61K9rZJ109ifqRj9aTemfml9zwTSSyxcfMT6ZGP603OV9GChG2wot7PqNO5/uln/xp5t7McmzC47+Y4qsJY+238x/hUn2gc4cj6Ef0FHO+4uVEv2O0kH/AB6HOevnHn8zTTY2YDZsiuR1EpGPzqM3DGMqsjcjH3v8P/r1W8x3GMAFevajml3DlXYtiztHBxZKe+4SE4pr2dqSF8kqPaQjNV97cfNjsf8APWpUI5OM46nHT9aHOS6jUV2Jo7CyjGNrYznJbp/npR9j06L/AJZkseCwc8/0/lRlsnac4GeB0qF3YHI3Djkg0KbfUHBdi7ZHT9NmM1vbymUqyZeTIwwK+nXB9ackqsDtAUAjvWcjk8liTnBIwP8A69SpKTkhvm789fzpSbe4Ky2PR/hLu/tDWMsCGSEgY5H3/wDGvTa8w+ETLJeaqy4OEjBxzg5b/wCvXp9b0/hRjPcKKKKskKjlhinAWaJJADkB1B/nUlFAFf8As+0/59YP+/Yo+w2v/PtD/wB+xViilZBcg+xW3/PvD/37FL9ltx/ywi/74FTUUWQ7kP2WD/njF/3wKPssH/PGL/vkVNRRYLkP2S3/AOeEX/fAo+yW/wDzwi/74FTUUWFci+ywf88Y/wDvgUfZYP8AnjH/AN8CpaKLDuQ/ZYP+eEX/AHwKPsdt/wA+8P8A3wKmoosguQfYrb/n2h/74FH2K2/59of++BU9FFkFyD7Fbf8APvD/AN+xR9itv+feH/v2KnoosguQfY7f/n3i/wC+BR9itv8An2h/79ip6KLILlf7Da/8+0P/AH7FH9n2n/PrB/37FWKKLILlf+z7P/n0g/79ij+z7P8A59IP+/YqxRRYVyt/Ztmetnb/APfpaT+zbL/nztv+/S1aoosO5V/syx/587b/AL9LR/Zll3s7f/v0tWqKLILlX+zbL/nzt/8Av0tL/Z1n/wA+kH/fsVZooshXZX+wWn/PrB/37FH2G0/59YP+/YqxRRZDuQfYbX/n2h/79ij7Fa/8+0P/AH7FT0UWQrlf7Daf8+sH/fsUfYbX/n2g/wC+BViiiw7lf7Baf8+sP/fsUf2faf8APrB/37FWKKLIVyt/Z1n/AM+kH/fsUf2bZf8APnb/APfpf8Ks0UWQXKh0nTz96wtT9YV/wpP7G03/AKB9p/34X/CrlFFkFyn/AGNpv/QPtP8Avwv+FH9jab/0D7T/AL8L/hVyiiyC5ROiaWeum2Z+sCf4Uw+H9IPXSrA/W2T/AArRoosguZp8N6Keuj6efrbJ/hSf8Izof/QG07/wFT/CtOiiyC5mf8I1og4Gj6d/4Cp/hR/wjWif9AfTv/AVP8K06KLILmZ/wjei/wDQH0//AMBk/wAKD4a0Q9dH07/wGT/CtOiiyC5mf8Izon/QG07/AMBU/wAKX/hHNF/6BGn/APgMn+FaVFFkFyva2FpYhhaWsNuG+8IowmfyqxRRTAKKKKAP/9k=;" vertex="1" parent="1">
          <mxGeometry x="-40" y="250" width="273.91" height="232" as="geometry" />
        </mxCell>
        <mxCell id="D7CyiCbgNfwCUPgvzWG9-5" value="" style="group" vertex="1" connectable="0" parent="1">
          <mxGeometry x="414" y="332" width="237.70000000000005" height="170" as="geometry" />
        </mxCell>
        <mxCell id="D7CyiCbgNfwCUPgvzWG9-6" value="" style="shape=image;verticalLabelPosition=bottom;labelBackgroundColor=#ffffff;verticalAlign=top;aspect=fixed;imageAspect=0;image=data:image/jpeg,/9j/4AAQSkZJRgABAQEAAAAAAAD/4QAuRXhpZgAATU0AKgAAAAgAAkAAAAMAAAABAAAAAEABAAEAAAABAAAAAAAAAAD/2wBDAAoHBwkHBgoJCAkLCwoMDxkQDw4ODx4WFxIZJCAmJSMgIyIoLTkwKCo2KyIjMkQyNjs9QEBAJjBGS0U+Sjk/QD3/2wBDAQsLCw8NDx0QEB09KSMpPT09PT09PT09PT09PT09PT09PT09PT09PT09PT09PT09PT09PT09PT09PT09PT09PT3/wAARCAFTAdoDASIAAhEBAxEB/8QAHwAAAQUBAQEBAQEAAAAAAAAAAAECAwQFBgcICQoL/8QAtRAAAgEDAwIEAwUFBAQAAAF9AQIDAAQRBRIhMUEGE1FhByJxFDKBkaEII0KxwRVS0fAkM2JyggkKFhcYGRolJicoKSo0NTY3ODk6Q0RFRkdISUpTVFVWV1hZWmNkZWZnaGlqc3R1dnd4eXqDhIWGh4iJipKTlJWWl5iZmqKjpKWmp6ipqrKztLW2t7i5usLDxMXGx8jJytLT1NXW19jZ2uHi4+Tl5ufo6erx8vP09fb3+Pn6/8QAHwEAAwEBAQEBAQEBAQAAAAAAAAECAwQFBgcICQoL/8QAtREAAgECBAQDBAcFBAQAAQJ3AAECAxEEBSExBhJBUQdhcRMiMoEIFEKRobHBCSMzUvAVYnLRChYkNOEl8RcYGRomJygpKjU2Nzg5OkNERUZHSElKU1RVVldYWVpjZGVmZ2hpanN0dXZ3eHl6goOEhYaHiImKkpOUlZaXmJmaoqOkpaanqKmqsrO0tba3uLm6wsPExcbHyMnK0tPU1dbX2Nna4uPk5ebn6Onq8vP09fb3+Pn6/9oADAMBAAIRAxEAPwD1p3OTzUA1eyhZkkuEDA8gdvyputO9vp7vCCzsQuAPWuD1nUbiwtjcCMxwQDfLsj+Z+wUAn8c1y1q7g1FLU3pUlNXZ351qxIOJwTjjCmof7XtR/wAtj/3ya4/R9bh1ISfumG0K65HIDdj7itHzVPRR+JFc312fZG31aPdnRR65YqmGn5z/AHTRJr2nlCBPz/umueB9l/8AHaMr32D8j/Sj67Psg+rR7s3BrVkek/6Gp01uxCAGbn/dNc3vX+Fl/Bc/0pd5/vN+CGj67Psg+rw7s6KTW7IrgTHP+6ai/tm0/wCex/75NYg3H+JvxUily3Q8/VM0vrs+yD6vHuzfGv6eAAZzkDn5TTZdesCoxOev9w1gkD0X/v3ShI+6r/3xT+uT7IPq0fM2f7bs/wDnsf8Avg1YGuWR6SOf+AGuaeO3P8aj8KjdIOzR/oaX1yfZB9Wh3Z00usWjEbXbgf3DTRq9tkHe+M/88zXOxG3iAX922O5NP86LswA9A2P6UfXZ9kH1ePmdL/bdn/ff/vg1FJrFqXyHfGP+eZrnzLEer5/4ET/SjfB3I/M/4UfXJ9kH1aPmby61aq4Jd8Dr+7NS/wBvWX9+T/v2a54G1P8AEv50uy29Fo+uT7IPq8fM221u1ZyQ0mP+uZpY9ZtlfJaTGP8AnmaxMW46bfzpd/8AddB9eaPrk+yD6vHzN7+3bL+9J/37NRHWrYkkGTGf+eZrBKSk8XKj2C0eTIfvT5+i0fXKnZB9Xh3ZvprlohJZpMHp+7NO/wCEisP70v8A36b/AArBEK/xOx+lBiiHUt+eaPrlTsg+rw7s1/7dtP703/fo1JF4gswOfO56fumrD2Qf7X4U3ZEPuhz9SaPrlTyH9Xh5nQnX7Ug4E3/fs1D/AG3bDtN/37NY/mP2Ax7qTS/MeuwfVP8A69H1yfkL6vA201+0UYPnZz/zzNK2v2hQgedk/wDTOsPaf70f/fH/ANenBEx8wUn1AxR9cqeQfV4eZrf21bf9Nf8AvipF1+0CgHzsjr+7rDIj7HFJ8v8Az0H6UfXKnkH1eHmbj6/alcDzc5/uVH/blt/01/74rH3n/nt/L/CgOe8ufxo+uVPIf1eBuDxDZqAD5ucf3DTH8Q2bAAGTr/crH35/iX9aaY2fpJj6Zo+uVPIPq8DX/t619ZP++an/AOEhs/8Ab/Kue+zMf+W7D6Cj7OR/y2kNH1yp5B9XgbkviGzOMGTjr8tRjxDZgg5l4P8AcrHw6dCT6EuBSebL32/hIKX1up5B9Xgb/wDwk1j/ANNv+/dMbxDaOcqJsY/551h/aHHVX/BhR9p9fN/MGj65UD6tA3k1y33A7Zv++Km/t23/AOec3/fI/wAa5rzcnIBb/eYCmOZnP/LJV7ANR9cqeQfVoHRvrUJckJNj/dFIuu26NkrLjHoP8a59DIP4lPsST/SpPtLIPmTJ9Qpo+uVPIPq0DcPiW0H8En5D/GoT4jtSSQJOT6D/ABrHN4p6xP8AypPtK/8APF/zNL63U8h/VoG3H4jtVJJWXn2H+NSjxHanpHN/3yP8a57zlP8AywelG1+kbD6kCj63U8hfV4G4dcg/uy/kKcniC3XOY5Tnp0/xrB8pe+B+Kn+lGI06sf8AvgH+lH1up5B9XgdAfEVvg/upenqv+NQf8JBD/wA8pvwANY29R0MZ+seP6Un2lhwPI/Ij+lP63UD6vA3k8SW6jDRTZz/dFPHiK2fK7JUz3KcCuS1KWWWzaNXihVvvSpkMB1wPc9PxrI0PW7i/uEhls/KcKQ6OS+0Dox9z0prF1N9A+rwPT0k3gMrAqwyCOc1PvPrWT4fAlsnXoEbgBcYzz3rZ8oepr0ac+eKkcc1yyaMnxPJs0aV1XzGQhggPLew9T7V59caityAs2jaku05BEe08/j3rvdf/AOPA/wDXRf51z11F+8HH8Kn8q4MXbn1XQ6qCfLdM56HW7Pw7ahDp17DHK27dKu4sT759v0p48eaeekM3/fFVvHUYGn2h/wBoD9DXIxgYoo0YTjdmNavOnKyO4/4Tux/54zf98Uf8J3Yf88Z/++K4rAowK1+qw8zL63PyO2/4Tuw/54z/AIJSHx1Yn/lncj/gA/xrisCjAo+qw8w+tz8js/8AhN7H+7c/98Ck/wCE2sj/AAzn6oK43AowKPqsPMPrc/I7H/hNbD/nlN/37FH/AAm1j/zym/79iuOwKMCj6rT8w+uT8jsh43sf+eEp/wCAClHjqzHS3m/BQK4zAowKPqsPMPrdTyOz/wCE8tP+eE//AHyP8aP+E7tf+eM//fA/xrjMUYFH1an5h9bqeR2X/Cd23/PGf/vkf40n/CdWv/PGf/vkf41x2B6UYFH1WHmH1up5HZf8JzZ/88rgfRRSf8Jvaf3Lr/vkVx2BRgUfVafmH1yp5HY/8Jza/wDPO5P1UUv/AAnVp/zxnP8AwAf41xuBRgUfVafmH1up5HZ/8J1Zj/lhP+QH9aQ+OrM9be4P4D/GuNxRgelH1WAfW5nXnxvZ/wDPnOfwH+NNPjaz/wCfKX8QK5LA9KMCj6rAPrdQ6v8A4TW27Wkn5Cj/AITeAdLWT8h/jXKYFGBR9VgH1uodcPHcQ/5dpfyH+NL/AMJ3b97af8AP8a5DAowKPq0BfW6h13/CcW3/AD7XH6f40n/CcW3/AD7XP6f41yWBRij6rAf1uodZ/wAJzb/8+tx+Y/xpD45i7Wk/4kf41ymKMUfVafYPrdTudX/wnUf/AD6Tf99D/GnDx3F3tZ/wI/xrksUYHpR9WgL63U7nXf8ACdwH/l1n/T/Gk/4Ti3/59bj81rksCjAo+rQ7B9bqHW/8Jxb/APPrc/mtNPjeD/n0n/ErXKYoxT+rU+wfW6nc6r/hNoO1lL+JWk/4TaLtZP8A+O1y2KMUfVodg+tVO51SeOkXpZP+YFO/4T5f+fJ/++hXJ4oxR9Wh2D61U7nWf8J6v/Pk/wCYpP8AhPV/58n/ADFcpijFH1aHYPrVTudV/wAJ2v8Az5P/AN9Un/CdD/nyf/vuuWxRij6tDsL61U7nU/8ACdD/AJ8n/wC/lJ/wnH/Tk/8A38rl8UYo+rU+wfWqnc6r/hPG6fYmP1cGk/4Ts/8APif++hXLYoxR9Wh2D61U7nUf8J03/Pl/48KP+E7f/ny/UVy+KMUfVodg+tVO51P/AAnkv/Pmf++hS/8ACfMF/wCPN/8AvoVytIehp/Vodg+s1O52Vn4pudb8yCDTlcKAGWWUKDn8Pap4hqFk8r22i2cbuFaRluQN2eBn5axvBIzeXX0U/wA67UJ5kchPeOM/rXFUShNpI7qLc4Jtm54UkdrGUXCpHOHxJGhyFP8AvfxeueK38j1Fc9oYw177yg/pW3Xp4d3po5auk2Z/iBFTTC3PDqf1rAugMBvUYFb/AIkYHR5MHJDLXP3T4gHsuf0rgxvx/I68N8PzOV8fcabbj/pqP5GuOj6V2Hj8/wCgW3/XQH9K4+LpW+F/h/M4sX/EHUUUV0nKFFFFABRRRQAUUUUAFFFFABRRRQAUUUUAFFFFABRRRQAUUUUAFFFFABRRRQAUUUUAFFFFABRRRQAUUUUAFFFFABRRRQAUUUUAFFFFABRRRQAUUUUAFFFFABRRRQAUUUUAFB+7RQfu0AdB4FGb+6Hqo/rXcW4xCc/881H61xHgX/kI3P8Aur/Wu6jGLVj/ALP9a8rEfxGevhv4aNnQUD/as5++P5VteUvvWN4fZRHOc9XB/StrevrXp4f+GjlrfGzE8Qf8gmb8Kwbn50kH91P6V0fiRQNGmIHOR/Ouf2bjP9AP0rhxv8T5HVhvh+Zyfjs50y0P+2P5VyEfSut8bj/iU2/tNj9K5KLpW+F/h/M4sX/E+Q6iiiuk5QooooAKKKKACiiigAooooAKKKKACiiigAooooAKKKKACiiigAooooAKKKKACiiigAooooAKKKKACiiigAooooAKKKKACiiigAooooAKKKKACiiigAooooAKKKKACiiigAoP3aKD0NAHQeBf+Qjc/wC6P613w/49WX/ZNcB4G/4/7n/dH9a9AHKOP9g15WI/iM9bDfw0X9A/49pMdMrj8q2qyfDKq1pJkZxt/lW5sX0r08N/CRy1/jZleInVtHmXnOV/nWChAmkB/iK/yra1/wD5BU34Viy/IQ3qQP0rhxnxr0OrDfA/U5Hx1/yDIf8Ar4P9a4+PoK7Dxz/yDIv+vg/1rj4ulb4X4PmceL+P5D6KKK6TlCiiigAooooAKKKKACiiigAooooAKKKKACiiigAooooAKKKKACil5pKACiijmgAoo5o5oAKMGlxSjigBMH1ox70+mnNADfxoxTgKCRQA2ilApcCgBtFKaSgAooooAKKKKACiiigAooooAKKKKACiiigAooooAKD0NFB6GgDf8Ef8f9z/ALo/rXfQ8ySD/ZxXAeCf+P8Auf8AdH9a7+2/18n+6K8vE/xGethv4SNTw0wjt5g2eCB+lbvmrXP6H9y5/wB8fyrar0sN/DRzVvjZS8RqP7GmwBnjt71zdy/EYyeqjFdHr8obSpVx3X+dc1ckmSEY4YqR+dcOM+Neh04b4fmcv46/5BsP/Xcn+dcfH92uv8c86bF/13P9a5GLpW+F+D5nHi/4g6iiiuk5QooooAKKKKACiiigAooooAKKKKACiiigAopQM0+gCOlwaUkUmTQAuKdTRTqAGnpSDFPpuBQAUYFOooAaRmgDFOpueaAHUUUUAFFFFADCaUCjAoyOgoAdTD1p9FADMGkqSmHrQAlFFFABRRRQAUUUUAFFFFABRRRQAUUUUAFFFFABQehooPQ0Ab/gj/kIXJ9FH9a761IM0hHQqprgvAwBv7v2RSP1ruUDJCWVsMwTkdq8vEfxGethv4SNvw6Bi6BAOHHX6Vt4HoKwtAcR/a+MguMflW35o9DXpYb+GjlrfGzJ1sE6fIMdWX+dc+TvFsPU5/Wup1r/AJBrf7y/zrloxzB/sqT+tcON+Neh14b4Gcp4250yM/8ATwf61yMfSuu8a/8AIJj9RP8A41yMfSt8L8HzOLF/H8h1FFFdJyhRRRQAUUUUAFFFFABRRRQAUUUUAFFFFADhxTqKZn0oAXAowPU0CnUAJ0paKbuFADqKZk0lAElFMHFGc0ALnrQBikAp9ABRTScUmTQA+mk02loAME0vSk30ZNAD6KjyfWlBoAfTD1p9MPWgBKKKKACiiigAooooAKKKKACiiigAooooAKKKKACg9DRQehoA6DwL/wAhC7/65r/Ou+Qf6GT/ALFcB4G/5CF17ov8679B+5C+2DXl4j+Iz1sN/DRo6IDi4/3x/Ktqsvw792593/xrbr0sN/CRzV/jZl6xKWsHXH8S/wA65uE4eMf3kb+ddFqwYWTkg43L/OubHE1v7lxXDjPjXodOH+H5nL+NxjSkH/TVT/OuPi6V2Xjv/kGp/wBdE/rXGRdK3wvwfM48X8fyH0UUV0nKFFFFABRRRQAUUUUAFFFFABRRRQAUopKXrQAdfpTsAUCloAbwKTPpSkZoxQAnJo4HXrTulNoAOTQR60lGTQAUoHrRRk0AKSKTJpKKACiiigAooooAKKKKACiiigBc8UlFFABRRRQAUUUUAFFFFABRRRQAUUUUAFFFFABRRRQAUH7tFB+7QBveCTjUrj3Vf/Qq7+M4GewNef8Agn/kJXH+6v8AOu8TJUgdyR+leXif4jPXwv8ACRsaAzRfawefnGPyrb80+grD0XJa6wCfmXp9K2cH0P5V6WG/hI5K/wAbK2tf8g1/95f5iuVuOI7dvSRh/Ouk1qUmwcHGNy/zrm7wj7DG3pJmuLG/GvQ6sN8PzOa8ef8AIPi95F/rXGRdK7Px5j+zYfaQZrjI+lbYX+H8zjxfx/IdRRRXScoUUUUALSUUUAFFFFABRRRQAtJRSgUAAGafRRQAUUUUAFISBSE4ptACk5pKKKACiiigAooooAKKKKAFpKKKAFopKKAFpKKKAClpKKAFpKKKACiiigBaSiigBaKSigApaSigApaSigBaSiigAooooAKD0NFB6GgDe8E/8hO4/wB1f513kP32+p/lXB+Bv+QrP/uD+dd/EMSH3Ga8vE/xGethf4aNbw0ci5P+0v8AKt2ue8PSFY5yMcla2/NPtXo4b+EjmrfGzO1pWGnuSONy/wA65q5ObBR6yDFdXrf/ACC5P95f5iuTvAqRxRr0Bz+dceN+Neh04b4X6nN+O/8AkGp7Sr/KuOj6V2Xjv/kGj/rsP5VxsXStsL8HzOPF/H8h1FFFdJyhRRRQAUUUUAFFFFABRS0vFACDBp9MJ9KMmgB9N9c0A0j0AGTRnikooAKKKKACiiigAooooAKKKKACiiigAooooAKKKKACiiigAoopcE0AJRSkEUgoAKKXNJQAUUUUAFFFFABRRRQAUUUUAFFFFABRRRQAUHoaKD0NAG74JONTuD6Rg16BCckn1rz3wd/x/wB3/wBcq9CiGMfT+teXif4jPWw38NGj4fUmOfAzgjP61ueW3p+tZPhsYW4How/rW5Xo4b+Ejmr/ABsydXZjYSAk4yv865q5QlwfRkH5iun1eIiwkJxjI/nXPAK8jbvVSPrg1x4z416HThvhZy3jv/kG/wDbZa4uPpXa+Ox/xLP+2y1xUfStsL/D+ZyYz4/kOoopa6TkEopaSgAopaSgApaMUUAB60lFFABRRRQAtB60lFABRRRQAUUUUAFFFFABRRRQAUUUUAFFFFABRRRQAUUUUAFLjNJS5NAC4A60hPpSUUAFFFFABRRRQAUUUUAFFFFABRRRQAUUUUAFFFFABRRRQAUHoaWkPQ0AbXg7P9oXQ9YsV6LH2+grzzwV/wAhWYeqAfrXoEP3M+gFeXif4jPWw38NGrorFTc7Tj5hWzvb1NY2hqZWuSMdV/lW15Te1elhv4aOet8bKus/8g2X8P5iuY6TH/gP8yK39YcjTZjk8Y7+9YB7n/ZU/wDjxrixvxr0OjDfCzmfHf8AyCR7yrXEx9K7Xx1/yB4/eVf61xMXStsL8HzOTF/H8h9FFFdJyBRRRQAUUUUAKeaSiigAooooAKKKKACiiigAooooAKKKKACiiigAooooAKKWjBoASlwaMetLgUAGKMCnUwnNABkDoKTrRRQAUUUUAFFFFABRRRQAUUUUAFFFFABRRRQAUUUoFABg0bTS5xTqAI6KcRTaACiiigAoPQ0UH7tAG54J/wCQxL/uj+degwf6s/7prz3wT/yGJf8AdH869Ah+4foa8vE/xGethv4aNfwwcx3B91/lW9XNeGyRDNgkcr0+lb2W/vH869HC/wAJHNX+NlDXYiukXDZ6AfzrEdB9mJ77cVv+IP8AkCXX+6P51g9YXHocVx4z416HRh/hZyHjn/kCw/8AXQf1ri4uldn42/5A8f8A10H8zXGRdK1wvwfM5cX8fyH0UUV1HIFFFFABRRRQAUUUUAFFFFABRRRQAUUUUAFFFFABRRRQAUUtGAOtABRx9aM+gpKAHZozScUZ9BQAZNLnHvTaKAFOaSiigAooooAKKKKACiilAFABgmjAp9FADM+1H4UEYpKACiiigAoopeaAAUu4UYpeKAE69qdTc0mfagB9MNGfakoAKKKKACg/dooPQ0AbXgr/AJC83/XMfzr0GI4z9cV594M/5C0//XMfzrv4zwfrXl4n+Iz1sL/DRqeGoi0c3OMFetb3k+9Y3hn/AFc30X+tb1ejhf4SOav8bMbXP+QVcfQVjRvjzR/tcflW9rcQGlTnJ6D+dc3nMxA/iYn/AMdrjxvxr0OnD/C/U5bxnzoyn0lH/oRrjYuldp4yH/EhH/XVf/QjXFxdK1wvwfM5MX8fyH0UUV1HIFFFFABRRRQAUUUUAFFFFABRRRQAUUUUAFFFFABRRRQAtJRRQAUUUUAFFFFABRRRQAUUUUAFFFKOaAEop2BScdqAEpQcUlFADtwo3Cm0UAKTRSUUAFFFLmgAwaXIHSm9e9FAC5NJRRQAUUUUAFFFFABRRRQAUHoaKD0NAGz4M/5Ctx/1y/rXfA4DexrgvBgzqtwfSIfzrvthCSg/xE4/KvLxPxs9bC/w0a2hjAmHoAP51t1j6BGH8/kjG3+tbnlD1Nejhf4SOet8bKWtEHTJhkZ47+9ctFzOh9QT/wCOiui1b/jwm/D+dYEI+eM/7J/pXHjfjXodGG+FnNeNwBoj46eYn8zXERdK7fxt/wAgRv8Aron864eLpWuE+B+pyYv4/kPooorqOQKKKKACiiigAooooAKKKKACiiigAooooAKKKKACiiigAooooAKKKKACiiloASilwaXFADaKXBpcUANp1FB9zQAhOaMGjPpRk0ALgetJxSUUALn2pKUClwPWgBtFLxRkelACUUUUAFFFFABRRRQAUUUUAFFFFABRRRQAUH7tFB6GgDd8EDOrXA/6ZD/0Ku+7E+gJrgvBH/IXuP8ArkP/AEKu9TPmL6d68vE/Gz1sL/DRseHiA1xkgZI6/jW5uHqPzrntE/5a/Rc/rW3Xo4X+Ejmr/GyrrEajTZiM5AHf3rnkGI4z/s4rodYkU6ZOAecD+dc9JKIoEGMlsD6VyYz416HThvhfqcv4340Yj1dP51w0XSu68dj/AIk//A1/nXCx/drXC/B8zkxfxr0H0UUV0nIFFFFABRRRQAUUUUAFFFFABRRRQAUUUoGaAEpcH0p9FADMGjml3CjNACYNL8opM5pKAFpKKUYoAUCnUwn0pKAHZpMmkowaAFzRk0YNGKADk0YPpRil49aAEwfSil3Ckz7UAJRS0lABRRRQAUUUUAFFFFABRRRQAUUUUAFFFFABRRRQAUUUUAFB+7RQfu0Abvgg41if3i/9mrvRL+7kI6oK8+8FH/idye8eP1rvcf60D+JSf0ry8T/EZ62F/ho3NBUO9xnOBjGD9a3PKX3/ADrD8PkRmYMcHapNbnmL616OF/hI563xsytX/wCQfP8AQfzFYFz98egU10mtoo0i4IAyFHP4iufcB3kX/ZyK5Mb8a9Dow3wv1OY8df8AIG/4GtcLH0Fd146/5Ah/30rhYugrXC/B8zkxfxr0H0UUV0nIFFFFABRRRQAUUUUAFFFFABRzRS5NABj1pdwpAPal4oATJpKUn2pKACiiigAoopaAEpcGjI7UZNABj1peBTaKAHbhSZpKKAFzRk0lFABRRRQAUUUUAFFFFABRRRQAUUUUAFFFFABRRRQAUUUUAFFFFABRRRQAUUUUAFB+7RQfu0AbPgz/AJDcn/XMfzrv4hmf8f6VwHgz/kNyf9cx/Ou/Q4uT7Mf5V5eJ+NnrYT+GjW0d1e5uVB5ULn9a2/xrF8PRg3F2GAJ4J/M10GxfSvRwv8JHPW+NmbrcoOk3IGc7f61gIczn/dP862ta/wCQZc/7v9awov8AXMfY/wA65MZ8a9Dow3ws5vx1/wAgY/8AXRf51wsXSu68df8AIGb/AK6L/OuFi6VphfgfqcmL+P5D6KKK6jkClpKKAF/Cj8KSigBePQ0vA9abRQA7NJSUUAFLSUUALSUUUAFFFFABRRRQAUUUUAFFFFABRRRQAUUUUAFFFFABRRRQAUUUUAFFFFABRRRQAUUUUAFFFFABRRRQAUUUUAFFFFABRRRQAUUUUAFB+7RQfu0AbPgz/kNyf9c/616BsxJn1Oa8/wDBn/Idf/rn/WvQzy49sV5eJ+Nnq4X4Ea2hyBbm4znBVMfrW55q+/5Vz2if66c/7K/1ra/z0r0cL/CRhW+NlfXQP7GujgZ2+nvXPQgfOc85PH41va5JnR7lcdVHf3Fc/b9ZPoP61yY3416G+G+F+pzXjr/kCN/11X+dcLF0ruvHX/IDb/rov864WLpWmF+B+py4v416D6KKK6jkCiiigAooooAKKKKACiiigAooooAKKKKACiiigAooooAKKKKACiiigAooooAKKKKACiiigAooooAKKKKACiiigAooooAKKKKACiiigAooooAKKKKACiiigAooooAKKKKACg9DRQehoA2PBv8AyG5P+uf9a9Dj5A+iV554N/5DMn/XL+tehwH7v+6p/KvLxP8AEZ6uF/ho1vDoBefIB+VOv41vYHoK5/QJBHNOMZ+RD/Ot3zR6V6GG/hIwrfGzL1n/AJBlx/uj+YrFiGHcf7IP866LXMf2RcknGFz9cHp9T0rhIvEbbyTpGqYKgD90vbP+171zYuLc0/I2w7STuUvHP/IDP/XRf51wkXQV2PiWa71rTzBaaXfB9wP7xVA/9Crm4/D2tAc6dN+Y/wAarDSUYtN21OfExcpppX0KtFXf+Ef1r/oHTfmP8aP+Ef1r/oHTfmP8a6PaQ7o5/Zz7MpUVe/4R7Wv+gdN+Y/xpP+Ef1n/oHy/iQP60vaQ7oPZT7MpUVe/4R7Wf+fF/++1/xo/4R7Wf+fFv++1/xo9pDug9lPsyjRV7/hHNZP8Ay4t/32v+NH/CPawOti3/AH0v+NHtId0Hsp9mUaKvf8I9rP8Az4t/30P8aP8AhHNZ/wCfFv8Avof40e0h3Q/Yz7Mo0Vf/AOEb1r/nxb/vof407/hGta/58W/77X/Gj2kO6F7KfZmdRWj/AMI1rX/Pkf8Avtf8aP8AhGda/wCfL/yIv+NHtId0P2M+zM6itH/hGda/58v/AB9f8aP+Ea1r/nz/APIi0e0h3Qexn2ZnUVf/AOEb1j/n1H/fxaP+Ea1k/wDLoP8Av4KPaw7oPYz7MoUVpDwvrR6Wg/7+Cl/4RXXP+fMf9/BR7WHdB7GfZmZRWp/wieuf8+Y/7+Cg+E9cHW0X8ZBR7WHdB7GfZmXRWl/wi+t/8+q/9/FpP+EY1n/n2X/v6tHtYd0HsZ9mZ1FaQ8L60f8Al3T/AL+rR/wi2tf8+8f/AH9FHtYd0HsZ9mZtFaf/AAietf8APsn/AH9FO/4RHXD/AMuqf9/RR7WHdB7GfZmVRWr/AMIjrv8Az6p/39FH/CH67/z6x/8Af0Ue1h3Qexn2ZlUVrf8ACH67/wA+0f8A39FJ/wAIfrn/AD7Rf9/hR7WHdB7GfZmVRWr/AMIfrf8Az7xf9/hSHwlrI6wwj/tqKPaw7oPYz7My6K0/+EW1f/nlD/38FH/CKax/zyh/7+Ue2h3Qexn2ZmUVqf8ACJ6x/wA8of8Av5S/8IjrP/PKH/v5R7WHdB7GfZmVRWt/wiGtf88of+/lH/CIa1/zyh/7+Ue2h3Qexn2Zk0VqnwlrA6pAPrKKT/hE9W/6dv8Av8KPbQ7oPYVOzMuitUeEtX/6dv8Av8KX/hD9XPa2/wC/1L20O6D2FTszJorW/wCEQ1f0tv8Av7R/wh2sf3bf/v7R7aHdD9hU7MyaK1/+EN1g/wANv/39pf8AhDNa/u2//fyj20O6D2FTszHorY/4QzWf7tv/AN/P/rUv/CFaz6W3/fz/AOtR7aHdB7Cp2ZjUHoa2v+EJ1r0t/wDv5/8AWpD4K1jpm2/7+f8A1qPbQ7oPYVOzE8HEDWZPePH6136HYiH1iz/L/GuL0bw3rGj35uTHaS5Xbt8/b/St5rnWMKBp1p8sez/j769P9n2rirWnNtM76CcIJNHVaIQbm4A6iNM/ma3q53wf57/aZrpFinfaDEjb1UDOPm7k/QV1NehhtKaOetrNmbqkx/s+b5c4HYZrmTe9OHX/AIBmuslh8xWRkJVhgjHWsK40i8jci3jiePsTJsNc+LpSk00rmtCaSabKIuSf+Wjf9+x/jUgkJ/jb/vipRpOp/wDPJfwnFL/ZOpHrbj8ZM1x+xqdmdHtId0RnZ1aQfiMU3zrQdZU/Opf7Fve9vED7yCnDSL4dIIfoJBR7Gp2Ye0h3RVN1ajgFW9MGk+0wf88T+VXRpWo9rdB/wOj+y9R/55xD2MtHsanZh7SHdFI3UXaPb9QDUZnUtw0Y+vFaB0i/P/LGIn2lpv8AYt+ettH/AN/KPY1OzH7SHdFFPMJ4lT8DUyRS95cfTNWP7DvT/wAsYR/216U3+wr/ALRRH6S0exqdmL2kO6ESLH3pGP0OKQxMCSJGI9CcU/8AsO/7wJ/38pw0O9H8MA/7af8A1qfsZ9mHtId0VXhlPQge5OaljhUJiTazeoGKn/se/wCwiP0fP9KT+xNQPZR/wPH9KPYz7MPaQ7oj8qL+6KPKi/uj8Kk/sK9/vRf9/TSf2Ff9vLPuJDR7Gp2Ye0h3GhFHQkfQCk2f9NG/IVINE1D0jHuXP+FB0S/PB+zEe7//AFqPY1OzF7SHciwO8rfiBR+5HUqfqak/sK9/552x9wc/0pRoV53jtR7k/wD1qXsKnZj9rDuRb7f1T86YfJPQr+HNWv7Eu/S1/wC+v/rU06LqP8IhA9if8KPYVOzD2sO5TMUXUSKP+A0eWvaSM/Vat/2JqZ6tCv1Y0v8AYeo/89bf/vs0ewqdmHtYdyqFlPRoT/wGnhH7qn4AVMdC1A/eEJ/E0Dw/eH73kj6yNzR7Cp2Ye1h3Iwh74H0ApDEv95vw4qb/AIR64/6YH/to1A0C8HSOH8yaPYVOzD2sO5X8vHQsfq5phEvY/mxNXP7Dvx0a2T2JP+FH9iaj2ltifQMf8KfsJ9mL2sO5RxL3VT+dGG7on5kVe/sTU/70P5n/AApRoeod5rcH0JP+FH1ep2Ye2h3KOxf4kj/76ozCOqR/nV46HqHaWBj6An/Cj+w9R/vR/wDfR/wo+r1Owe2h3KQkt/7ifqakEsfREX8iKs/2HfkDM1t9CTxSHw/e9pLdvoTR9Xqdh+1h3KxMpP8AqwB7HNNPmjoP0xVr/hH731h/Wnf8I9dd5bb8SaX1ep2Ye2h3KP749d34MRSOshHDOp/3utXj4euextm+gJx+lOGgXg/59x+B/wAKf1ep2D20O5mIkwxudjzziSpkwOrn6eZmrx0G6P8Ay1tf1pp0C87Pbt7jcaPq9TsL20O5AZVPRVP4g0wu/wDzwTHr1q0PD953aAD1O6nf2Dd/897b82o+rVX0D20O5TyO6xD2INGfRIj9Aauf2Be9pYCPUbqP7Cve8sA9yGo+rVOwe2h3KmWH8CL7gZqMyN/eH4IP8a0P7Auv+e1r/wCPU3+wbztJAR6gNzT+rVew/bQ7mfv92/74WlTaersPqgrQGg3neW3X6g0v9g3X/PxbfkaPq1XsL20O5QxEOsp/EAf0pweAfxK31YVc/wCEfu/71uf+AGmjw7cH70lqv1QjNH1ep2D20O5W8yLsgP0INMeRcfLEfxq8PD1yvKz2wPsCKX+wrz/ntH+Ro+r1Owe2h3Mx5P8Apgp+rf8A1qqybi/+pUZ9HI/kK3hoN0etxGD6EGlXQLnPN1ER3wpJprDVOwOtDuN8MlkNydgAIUZ3E+vrXQ+YfSqltaC1hEaKxHcnnNWNp/u/pXp0Y8kEmcNRqUros1FIoyOKKK0EtxgUbxwKnoooERSKNw4pEUbhxRRT6DJqhdRvPFFFJCCJRvPFT0UUMCuyjceKfEAM8UUUASVX2j0FFFAEsQGDx3px6H6UUUAQbR6VNF92iigp7A/3D9Kh2j0oopMSJo/uCkk+5RRQHUi2j0FTp9wfSiigQ2UDA471FtHoKKKGBZqKVRxxRRQwGBRvXgdasUUUICGRRvHFIijeOKKKoCeoHUbzxRRSAWNRu6VNRRQBXZRvPHenxAZPHaiigCWq20c8CiigB8I4b61Keh+lFFAFfaPQVNF9z8aKKYCv9w/SoNo9KKKQE0f3BSSD5DRRQBFtHoKnT7g+lFFADZAMDjvUW0egoooAs1FMBxxRRQAwKNw4HWrFFFAEMijcOO1JGo3DgUUUAT02iigD/9k=;" vertex="1" parent="D7CyiCbgNfwCUPgvzWG9-5">
          <mxGeometry width="237.7" height="170" as="geometry" />
        </mxCell>
        <mxCell id="D7CyiCbgNfwCUPgvzWG9-7" value="去" style="text;html=1;strokeColor=none;fillColor=none;align=center;verticalAlign=middle;whiteSpace=wrap;rounded=0;rotation=-15;fontSize=32;fontStyle=1;fontColor=#FFFFFF;" vertex="1" parent="D7CyiCbgNfwCUPgvzWG9-5">
          <mxGeometry x="76" y="58" width="40" height="20" as="geometry" />
        </mxCell>
        <mxCell id="D7CyiCbgNfwCUPgvzWG9-8" value="网" style="text;html=1;strokeColor=none;fillColor=none;align=center;verticalAlign=middle;whiteSpace=wrap;rounded=0;rotation=15;fontSize=32;fontStyle=1;fontColor=#FFFFFF;" vertex="1" parent="D7CyiCbgNfwCUPgvzWG9-5">
          <mxGeometry x="76" y="98" width="40" height="20" as="geometry" />
        </mxCell>
        <mxCell id="D7CyiCbgNfwCUPgvzWG9-9" value="盘" style="text;html=1;strokeColor=none;fillColor=none;align=center;verticalAlign=middle;whiteSpace=wrap;rounded=0;rotation=0;fontSize=32;fontStyle=1;fontColor=#FFFFFF;" vertex="1" parent="D7CyiCbgNfwCUPgvzWG9-5">
          <mxGeometry x="116" y="58" width="40" height="20" as="geometry" />
        </mxCell>
        <mxCell id="D7CyiCbgNfwCUPgvzWG9-10" value="下" style="text;html=1;strokeColor=none;fillColor=none;align=center;verticalAlign=middle;whiteSpace=wrap;rounded=0;rotation=-15;fontSize=32;fontStyle=1;fontColor=#FFFFFF;" vertex="1" parent="D7CyiCbgNfwCUPgvzWG9-5">
          <mxGeometry x="116" y="98" width="40" height="20" as="geometry" />
        </mxCell>
        <mxCell id="D7CyiCbgNfwCUPgvzWG9-11" value="x" style="shape=image;verticalLabelPosition=bottom;labelBackgroundColor=#ffffff;verticalAlign=top;aspect=fixed;imageAspect=0;image=data:image/jpeg,/9j/4AAQSkZJRgABAQEAAAAAAAD/4QAuRXhpZgAATU0AKgAAAAgAAkAAAAMAAAABAAAAAEABAAEAAAABAAAAAAAAAAD/2wBDAAoHBwkHBgoJCAkLCwoMDxkQDw4ODx4WFxIZJCAmJSMgIyIoLTkwKCo2KyIjMkQyNjs9QEBAJjBGS0U+Sjk/QD3/2wBDAQsLCw8NDx0QEB09KSMpPT09PT09PT09PT09PT09PT09PT09PT09PT09PT09PT09PT09PT09PT09PT09PT09PT3/wAARCAFTAdoDASIAAhEBAxEB/8QAHwAAAQUBAQEBAQEAAAAAAAAAAAECAwQFBgcICQoL/8QAtRAAAgEDAwIEAwUFBAQAAAF9AQIDAAQRBRIhMUEGE1FhByJxFDKBkaEII0KxwRVS0fAkM2JyggkKFhcYGRolJicoKSo0NTY3ODk6Q0RFRkdISUpTVFVWV1hZWmNkZWZnaGlqc3R1dnd4eXqDhIWGh4iJipKTlJWWl5iZmqKjpKWmp6ipqrKztLW2t7i5usLDxMXGx8jJytLT1NXW19jZ2uHi4+Tl5ufo6erx8vP09fb3+Pn6/8QAHwEAAwEBAQEBAQEBAQAAAAAAAAECAwQFBgcICQoL/8QAtREAAgECBAQDBAcFBAQAAQJ3AAECAxEEBSExBhJBUQdhcRMiMoEIFEKRobHBCSMzUvAVYnLRChYkNOEl8RcYGRomJygpKjU2Nzg5OkNERUZHSElKU1RVVldYWVpjZGVmZ2hpanN0dXZ3eHl6goOEhYaHiImKkpOUlZaXmJmaoqOkpaanqKmqsrO0tba3uLm6wsPExcbHyMnK0tPU1dbX2Nna4uPk5ebn6Onq8vP09fb3+Pn6/9oADAMBAAIRAxEAPwD1p3OTzUA1eyhZkkuEDA8gdvyputO9vp7vCCzsQuAPWuD1nUbiwtjcCMxwQDfLsj+Z+wUAn8c1y1q7g1FLU3pUlNXZ351qxIOJwTjjCmof7XtR/wAtj/3ya4/R9bh1ISfumG0K65HIDdj7itHzVPRR+JFc312fZG31aPdnRR65YqmGn5z/AHTRJr2nlCBPz/umueB9l/8AHaMr32D8j/Sj67Psg+rR7s3BrVkek/6Gp01uxCAGbn/dNc3vX+Fl/Bc/0pd5/vN+CGj67Psg+rw7s6KTW7IrgTHP+6ai/tm0/wCex/75NYg3H+JvxUily3Q8/VM0vrs+yD6vHuzfGv6eAAZzkDn5TTZdesCoxOev9w1gkD0X/v3ShI+6r/3xT+uT7IPq0fM2f7bs/wDnsf8Avg1YGuWR6SOf+AGuaeO3P8aj8KjdIOzR/oaX1yfZB9Wh3Z00usWjEbXbgf3DTRq9tkHe+M/88zXOxG3iAX922O5NP86LswA9A2P6UfXZ9kH1ePmdL/bdn/ff/vg1FJrFqXyHfGP+eZrnzLEer5/4ET/SjfB3I/M/4UfXJ9kH1aPmby61aq4Jd8Dr+7NS/wBvWX9+T/v2a54G1P8AEv50uy29Fo+uT7IPq8fM221u1ZyQ0mP+uZpY9ZtlfJaTGP8AnmaxMW46bfzpd/8AddB9eaPrk+yD6vHzN7+3bL+9J/37NRHWrYkkGTGf+eZrBKSk8XKj2C0eTIfvT5+i0fXKnZB9Xh3ZvprlohJZpMHp+7NO/wCEisP70v8A36b/AArBEK/xOx+lBiiHUt+eaPrlTsg+rw7s1/7dtP703/fo1JF4gswOfO56fumrD2Qf7X4U3ZEPuhz9SaPrlTyH9Xh5nQnX7Ug4E3/fs1D/AG3bDtN/37NY/mP2Ax7qTS/MeuwfVP8A69H1yfkL6vA201+0UYPnZz/zzNK2v2hQgedk/wDTOsPaf70f/fH/ANenBEx8wUn1AxR9cqeQfV4eZrf21bf9Nf8AvipF1+0CgHzsjr+7rDIj7HFJ8v8Az0H6UfXKnkH1eHmbj6/alcDzc5/uVH/blt/01/74rH3n/nt/L/CgOe8ufxo+uVPIf1eBuDxDZqAD5ucf3DTH8Q2bAAGTr/crH35/iX9aaY2fpJj6Zo+uVPIPq8DX/t619ZP++an/AOEhs/8Ab/Kue+zMf+W7D6Cj7OR/y2kNH1yp5B9XgbkviGzOMGTjr8tRjxDZgg5l4P8AcrHw6dCT6EuBSebL32/hIKX1up5B9Xgb/wDwk1j/ANNv+/dMbxDaOcqJsY/551h/aHHVX/BhR9p9fN/MGj65UD6tA3k1y33A7Zv++Km/t23/AOec3/fI/wAa5rzcnIBb/eYCmOZnP/LJV7ANR9cqeQfVoHRvrUJckJNj/dFIuu26NkrLjHoP8a59DIP4lPsST/SpPtLIPmTJ9Qpo+uVPIPq0DcPiW0H8En5D/GoT4jtSSQJOT6D/ABrHN4p6xP8AypPtK/8APF/zNL63U8h/VoG3H4jtVJJWXn2H+NSjxHanpHN/3yP8a57zlP8AywelG1+kbD6kCj63U8hfV4G4dcg/uy/kKcniC3XOY5Tnp0/xrB8pe+B+Kn+lGI06sf8AvgH+lH1up5B9XgdAfEVvg/upenqv+NQf8JBD/wA8pvwANY29R0MZ+seP6Un2lhwPI/Ij+lP63UD6vA3k8SW6jDRTZz/dFPHiK2fK7JUz3KcCuS1KWWWzaNXihVvvSpkMB1wPc9PxrI0PW7i/uEhls/KcKQ6OS+0Dox9z0prF1N9A+rwPT0k3gMrAqwyCOc1PvPrWT4fAlsnXoEbgBcYzz3rZ8oepr0ac+eKkcc1yyaMnxPJs0aV1XzGQhggPLew9T7V59caityAs2jaku05BEe08/j3rvdf/AOPA/wDXRf51z11F+8HH8Kn8q4MXbn1XQ6qCfLdM56HW7Pw7ahDp17DHK27dKu4sT759v0p48eaeekM3/fFVvHUYGn2h/wBoD9DXIxgYoo0YTjdmNavOnKyO4/4Tux/54zf98Uf8J3Yf88Z/++K4rAowK1+qw8zL63PyO2/4Tuw/54z/AIJSHx1Yn/lncj/gA/xrisCjAo+qw8w+tz8js/8AhN7H+7c/98Ck/wCE2sj/AAzn6oK43AowKPqsPMPrc/I7H/hNbD/nlN/37FH/AAm1j/zym/79iuOwKMCj6rT8w+uT8jsh43sf+eEp/wCAClHjqzHS3m/BQK4zAowKPqsPMPrdTyOz/wCE8tP+eE//AHyP8aP+E7tf+eM//fA/xrjMUYFH1an5h9bqeR2X/Cd23/PGf/vkf40n/CdWv/PGf/vkf41x2B6UYFH1WHmH1up5HZf8JzZ/88rgfRRSf8Jvaf3Lr/vkVx2BRgUfVafmH1yp5HY/8Jza/wDPO5P1UUv/AAnVp/zxnP8AwAf41xuBRgUfVafmH1up5HZ/8J1Zj/lhP+QH9aQ+OrM9be4P4D/GuNxRgelH1WAfW5nXnxvZ/wDPnOfwH+NNPjaz/wCfKX8QK5LA9KMCj6rAPrdQ6v8A4TW27Wkn5Cj/AITeAdLWT8h/jXKYFGBR9VgH1uodcPHcQ/5dpfyH+NL/AMJ3b97af8AP8a5DAowKPq0BfW6h13/CcW3/AD7XH6f40n/CcW3/AD7XP6f41yWBRij6rAf1uodZ/wAJzb/8+tx+Y/xpD45i7Wk/4kf41ymKMUfVafYPrdTudX/wnUf/AD6Tf99D/GnDx3F3tZ/wI/xrksUYHpR9WgL63U7nXf8ACdwH/l1n/T/Gk/4Ti3/59bj81rksCjAo+rQ7B9bqHW/8Jxb/APPrc/mtNPjeD/n0n/ErXKYoxT+rU+wfW6nc6r/hNoO1lL+JWk/4TaLtZP8A+O1y2KMUfVodg+tVO51SeOkXpZP+YFO/4T5f+fJ/++hXJ4oxR9Wh2D61U7nWf8J6v/Pk/wCYpP8AhPV/58n/ADFcpijFH1aHYPrVTudV/wAJ2v8Az5P/AN9Un/CdD/nyf/vuuWxRij6tDsL61U7nU/8ACdD/AJ8n/wC/lJ/wnH/Tk/8A38rl8UYo+rU+wfWqnc6r/hPG6fYmP1cGk/4Ts/8APif++hXLYoxR9Wh2D61U7nUf8J03/Pl/48KP+E7f/ny/UVy+KMUfVodg+tVO51P/AAnkv/Pmf++hS/8ACfMF/wCPN/8AvoVytIehp/Vodg+s1O52Vn4pudb8yCDTlcKAGWWUKDn8Pap4hqFk8r22i2cbuFaRluQN2eBn5axvBIzeXX0U/wA67UJ5kchPeOM/rXFUShNpI7qLc4Jtm54UkdrGUXCpHOHxJGhyFP8AvfxeueK38j1Fc9oYw177yg/pW3Xp4d3po5auk2Z/iBFTTC3PDqf1rAugMBvUYFb/AIkYHR5MHJDLXP3T4gHsuf0rgxvx/I68N8PzOV8fcabbj/pqP5GuOj6V2Hj8/wCgW3/XQH9K4+LpW+F/h/M4sX/EHUUUV0nKFFFFABRRRQAUUUUAFFFFABRRRQAUUUUAFFFFABRRRQAUUUUAFFFFABRRRQAUUUUAFFFFABRRRQAUUUUAFFFFABRRRQAUUUUAFFFFABRRRQAUUUUAFFFFABRRRQAUUUUAFB+7RQfu0AdB4FGb+6Hqo/rXcW4xCc/881H61xHgX/kI3P8Aur/Wu6jGLVj/ALP9a8rEfxGevhv4aNnQUD/as5++P5VteUvvWN4fZRHOc9XB/StrevrXp4f+GjlrfGzE8Qf8gmb8Kwbn50kH91P6V0fiRQNGmIHOR/Ouf2bjP9AP0rhxv8T5HVhvh+Zyfjs50y0P+2P5VyEfSut8bj/iU2/tNj9K5KLpW+F/h/M4sX/E+Q6iiiuk5QooooAKKKKACiiigAooooAKKKKACiiigAooooAKKKKACiiigAooooAKKKKACiiigAooooAKKKKACiiigAooooAKKKKACiiigAooooAKKKKACiiigAooooAKKKKACiiigAoP3aKD0NAHQeBf+Qjc/wC6P613w/49WX/ZNcB4G/4/7n/dH9a9AHKOP9g15WI/iM9bDfw0X9A/49pMdMrj8q2qyfDKq1pJkZxt/lW5sX0r08N/CRy1/jZleInVtHmXnOV/nWChAmkB/iK/yra1/wD5BU34Viy/IQ3qQP0rhxnxr0OrDfA/U5Hx1/yDIf8Ar4P9a4+PoK7Dxz/yDIv+vg/1rj4ulb4X4PmceL+P5D6KKK6TlCiiigAooooAKKKKACiiigAooooAKKKKACiiigAooooAKKKKACil5pKACiijmgAoo5o5oAKMGlxSjigBMH1ox70+mnNADfxoxTgKCRQA2ilApcCgBtFKaSgAooooAKKKKACiiigAooooAKKKKACiiigAooooAKD0NFB6GgDf8Ef8f9z/ALo/rXfQ8ySD/ZxXAeCf+P8Auf8AdH9a7+2/18n+6K8vE/xGethv4SNTw0wjt5g2eCB+lbvmrXP6H9y5/wB8fyrar0sN/DRzVvjZS8RqP7GmwBnjt71zdy/EYyeqjFdHr8obSpVx3X+dc1ckmSEY4YqR+dcOM+Neh04b4fmcv46/5BsP/Xcn+dcfH92uv8c86bF/13P9a5GLpW+F+D5nHi/4g6iiiuk5QooooAKKKKACiiigAooooAKKKKACiiigAopQM0+gCOlwaUkUmTQAuKdTRTqAGnpSDFPpuBQAUYFOooAaRmgDFOpueaAHUUUUAFFFFADCaUCjAoyOgoAdTD1p9FADMGkqSmHrQAlFFFABRRRQAUUUUAFFFFABRRRQAUUUUAFFFFABQehooPQ0Ab/gj/kIXJ9FH9a761IM0hHQqprgvAwBv7v2RSP1ruUDJCWVsMwTkdq8vEfxGethv4SNvw6Bi6BAOHHX6Vt4HoKwtAcR/a+MguMflW35o9DXpYb+GjlrfGzJ1sE6fIMdWX+dc+TvFsPU5/Wup1r/AJBrf7y/zrloxzB/sqT+tcON+Neh14b4Gcp4250yM/8ATwf61yMfSuu8a/8AIJj9RP8A41yMfSt8L8HzOLF/H8h1FFFdJyhRRRQAUUUUAFFFFABRRRQAUUUUAFFFFADhxTqKZn0oAXAowPU0CnUAJ0paKbuFADqKZk0lAElFMHFGc0ALnrQBikAp9ABRTScUmTQA+mk02loAME0vSk30ZNAD6KjyfWlBoAfTD1p9MPWgBKKKKACiiigAooooAKKKKACiiigAooooAKKKKACg9DRQehoA6DwL/wAhC7/65r/Ou+Qf6GT/ALFcB4G/5CF17ov8679B+5C+2DXl4j+Iz1sN/DRo6IDi4/3x/Ktqsvw792593/xrbr0sN/CRzV/jZl6xKWsHXH8S/wA65uE4eMf3kb+ddFqwYWTkg43L/OubHE1v7lxXDjPjXodOH+H5nL+NxjSkH/TVT/OuPi6V2Xjv/kGp/wBdE/rXGRdK3wvwfM48X8fyH0UUV0nKFFFFABRRRQAUUUUAFFFFABRRRQAUopKXrQAdfpTsAUCloAbwKTPpSkZoxQAnJo4HXrTulNoAOTQR60lGTQAUoHrRRk0AKSKTJpKKACiiigAooooAKKKKACiiigBc8UlFFABRRRQAUUUUAFFFFABRRRQAUUUUAFFFFABRRRQAUH7tFB+7QBveCTjUrj3Vf/Qq7+M4GewNef8Agn/kJXH+6v8AOu8TJUgdyR+leXif4jPXwv8ACRsaAzRfawefnGPyrb80+grD0XJa6wCfmXp9K2cH0P5V6WG/hI5K/wAbK2tf8g1/95f5iuVuOI7dvSRh/Ouk1qUmwcHGNy/zrm7wj7DG3pJmuLG/GvQ6sN8PzOa8ef8AIPi95F/rXGRdK7Px5j+zYfaQZrjI+lbYX+H8zjxfx/IdRRRXScoUUUUALSUUUAFFFFABRRRQAtJRSgUAAGafRRQAUUUUAFISBSE4ptACk5pKKKACiiigAooooAKKKKAFpKKKAFopKKAFpKKKAClpKKAFpKKKACiiigBaSiigBaKSigApaSigApaSigBaSiigAooooAKD0NFB6GgDe8E/8hO4/wB1f513kP32+p/lXB+Bv+QrP/uD+dd/EMSH3Ga8vE/xGethf4aNbw0ci5P+0v8AKt2ue8PSFY5yMcla2/NPtXo4b+EjmrfGzO1pWGnuSONy/wA65q5ObBR6yDFdXrf/ACC5P95f5iuTvAqRxRr0Bz+dceN+Neh04b4X6nN+O/8AkGp7Sr/KuOj6V2Xjv/kGj/rsP5VxsXStsL8HzOPF/H8h1FFFdJyhRRRQAUUUUAFFFFABRS0vFACDBp9MJ9KMmgB9N9c0A0j0AGTRnikooAKKKKACiiigAooooAKKKKACiiigAooooAKKKKACiiigAoopcE0AJRSkEUgoAKKXNJQAUUUUAFFFFABRRRQAUUUUAFFFFABRRRQAUHoaKD0NAG74JONTuD6Rg16BCckn1rz3wd/x/wB3/wBcq9CiGMfT+teXif4jPWw38NGj4fUmOfAzgjP61ueW3p+tZPhsYW4How/rW5Xo4b+Ejmr/ABsydXZjYSAk4yv865q5QlwfRkH5iun1eIiwkJxjI/nXPAK8jbvVSPrg1x4z416HThvhZy3jv/kG/wDbZa4uPpXa+Ox/xLP+2y1xUfStsL/D+ZyYz4/kOoopa6TkEopaSgAopaSgApaMUUAB60lFFABRRRQAtB60lFABRRRQAUUUUAFFFFABRRRQAUUUUAFFFFABRRRQAUUUUAFLjNJS5NAC4A60hPpSUUAFFFFABRRRQAUUUUAFFFFABRRRQAUUUUAFFFFABRRRQAUHoaWkPQ0AbXg7P9oXQ9YsV6LH2+grzzwV/wAhWYeqAfrXoEP3M+gFeXif4jPWw38NGrorFTc7Tj5hWzvb1NY2hqZWuSMdV/lW15Te1elhv4aOet8bKus/8g2X8P5iuY6TH/gP8yK39YcjTZjk8Y7+9YB7n/ZU/wDjxrixvxr0OjDfCzmfHf8AyCR7yrXEx9K7Xx1/yB4/eVf61xMXStsL8HzOTF/H8h9FFFdJyBRRRQAUUUUAKeaSiigAooooAKKKKACiiigAooooAKKKKACiiigAooooAKKWjBoASlwaMetLgUAGKMCnUwnNABkDoKTrRRQAUUUUAFFFFABRRRQAUUUUAFFFFABRRRQAUUUoFABg0bTS5xTqAI6KcRTaACiiigAoPQ0UH7tAG54J/wCQxL/uj+degwf6s/7prz3wT/yGJf8AdH869Ah+4foa8vE/xGethv4aNfwwcx3B91/lW9XNeGyRDNgkcr0+lb2W/vH869HC/wAJHNX+NlDXYiukXDZ6AfzrEdB9mJ77cVv+IP8AkCXX+6P51g9YXHocVx4z416HRh/hZyHjn/kCw/8AXQf1ri4uldn42/5A8f8A10H8zXGRdK1wvwfM5cX8fyH0UUV1HIFFFFABRRRQAUUUUAFFFFABRRRQAUUUUAFFFFABRRRQAUUtGAOtABRx9aM+gpKAHZozScUZ9BQAZNLnHvTaKAFOaSiigAooooAKKKKACiilAFABgmjAp9FADM+1H4UEYpKACiiigAoopeaAAUu4UYpeKAE69qdTc0mfagB9MNGfakoAKKKKACg/dooPQ0AbXgr/AJC83/XMfzr0GI4z9cV594M/5C0//XMfzrv4zwfrXl4n+Iz1sL/DRqeGoi0c3OMFetb3k+9Y3hn/AFc30X+tb1ejhf4SOav8bMbXP+QVcfQVjRvjzR/tcflW9rcQGlTnJ6D+dc3nMxA/iYn/AMdrjxvxr0OnD/C/U5bxnzoyn0lH/oRrjYuldp4yH/EhH/XVf/QjXFxdK1wvwfM5MX8fyH0UUV1HIFFFFABRRRQAUUUUAFFFFABRRRQAUUUUAFFFFABRRRQAtJRRQAUUUUAFFFFABRRRQAUUUUAFFFKOaAEop2BScdqAEpQcUlFADtwo3Cm0UAKTRSUUAFFFLmgAwaXIHSm9e9FAC5NJRRQAUUUUAFFFFABRRRQAUHoaKD0NAGz4M/5Ctx/1y/rXfA4DexrgvBgzqtwfSIfzrvthCSg/xE4/KvLxPxs9bC/w0a2hjAmHoAP51t1j6BGH8/kjG3+tbnlD1Nejhf4SOet8bKWtEHTJhkZ47+9ctFzOh9QT/wCOiui1b/jwm/D+dYEI+eM/7J/pXHjfjXodGG+FnNeNwBoj46eYn8zXERdK7fxt/wAgRv8Aron864eLpWuE+B+pyYv4/kPooorqOQKKKKACiiigAooooAKKKKACiiigAooooAKKKKACiiigAooooAKKKKACiiloASilwaXFADaKXBpcUANp1FB9zQAhOaMGjPpRk0ALgetJxSUUALn2pKUClwPWgBtFLxRkelACUUUUAFFFFABRRRQAUUUUAFFFFABRRRQAUH7tFB6GgDd8EDOrXA/6ZD/0Ku+7E+gJrgvBH/IXuP8ArkP/AEKu9TPmL6d68vE/Gz1sL/DRseHiA1xkgZI6/jW5uHqPzrntE/5a/Rc/rW3Xo4X+Ejmr/GyrrEajTZiM5AHf3rnkGI4z/s4rodYkU6ZOAecD+dc9JKIoEGMlsD6VyYz416HThvhfqcv4340Yj1dP51w0XSu68dj/AIk//A1/nXCx/drXC/B8zkxfxr0H0UUV0nIFFFFABRRRQAUUUUAFFFFABRRRQAUUUoGaAEpcH0p9FADMGjml3CjNACYNL8opM5pKAFpKKUYoAUCnUwn0pKAHZpMmkowaAFzRk0YNGKADk0YPpRil49aAEwfSil3Ckz7UAJRS0lABRRRQAUUUUAFFFFABRRRQAUUUUAFFFFABRRRQAUUUUAFB+7RQfu0Abvgg41if3i/9mrvRL+7kI6oK8+8FH/idye8eP1rvcf60D+JSf0ry8T/EZ62F/ho3NBUO9xnOBjGD9a3PKX3/ADrD8PkRmYMcHapNbnmL616OF/hI563xsytX/wCQfP8AQfzFYFz98egU10mtoo0i4IAyFHP4iufcB3kX/ZyK5Mb8a9Dow3wv1OY8df8AIG/4GtcLH0Fd146/5Ah/30rhYugrXC/B8zkxfxr0H0UUV0nIFFFFABRRRQAUUUUAFFFFABRzRS5NABj1pdwpAPal4oATJpKUn2pKACiiigAoopaAEpcGjI7UZNABj1peBTaKAHbhSZpKKAFzRk0lFABRRRQAUUUUAFFFFABRRRQAUUUUAFFFFABRRRQAUUUUAFFFFABRRRQAUUUUAFB+7RQfu0AbPgz/AJDcn/XMfzrv4hmf8f6VwHgz/kNyf9cx/Ou/Q4uT7Mf5V5eJ+NnrYT+GjW0d1e5uVB5ULn9a2/xrF8PRg3F2GAJ4J/M10GxfSvRwv8JHPW+NmbrcoOk3IGc7f61gIczn/dP862ta/wCQZc/7v9awov8AXMfY/wA65MZ8a9Dow3ws5vx1/wAgY/8AXRf51wsXSu68df8AIGb/AK6L/OuFi6VphfgfqcmL+P5D6KKK6jkClpKKAF/Cj8KSigBePQ0vA9abRQA7NJSUUAFLSUUALSUUUAFFFFABRRRQAUUUUAFFFFABRRRQAUUUUAFFFFABRRRQAUUUUAFFFFABRRRQAUUUUAFFFFABRRRQAUUUUAFFFFABRRRQAUUUUAFB+7RQfu0AbPgz/kNyf9c/616BsxJn1Oa8/wDBn/Idf/rn/WvQzy49sV5eJ+Nnq4X4Ea2hyBbm4znBVMfrW55q+/5Vz2if66c/7K/1ra/z0r0cL/CRhW+NlfXQP7GujgZ2+nvXPQgfOc85PH41va5JnR7lcdVHf3Fc/b9ZPoP61yY3416G+G+F+pzXjr/kCN/11X+dcLF0ruvHX/IDb/rov864WLpWmF+B+py4v416D6KKK6jkCiiigAooooAKKKKACiiigAooooAKKKKACiiigAooooAKKKKACiiigAooooAKKKKACiiigAooooAKKKKACiiigAooooAKKKKACiiigAooooAKKKKACiiigAooooAKKKKACg9DRQehoA2PBv8AyG5P+uf9a9Dj5A+iV554N/5DMn/XL+tehwH7v+6p/KvLxP8AEZ6uF/ho1vDoBefIB+VOv41vYHoK5/QJBHNOMZ+RD/Ot3zR6V6GG/hIwrfGzL1n/AJBlx/uj+YrFiGHcf7IP866LXMf2RcknGFz9cHp9T0rhIvEbbyTpGqYKgD90vbP+171zYuLc0/I2w7STuUvHP/IDP/XRf51wkXQV2PiWa71rTzBaaXfB9wP7xVA/9Crm4/D2tAc6dN+Y/wAarDSUYtN21OfExcpppX0KtFXf+Ef1r/oHTfmP8aP+Ef1r/oHTfmP8a6PaQ7o5/Zz7MpUVe/4R7Wv+gdN+Y/xpP+Ef1n/oHy/iQP60vaQ7oPZT7MpUVe/4R7Wf+fF/++1/xo/4R7Wf+fFv++1/xo9pDug9lPsyjRV7/hHNZP8Ay4t/32v+NH/CPawOti3/AH0v+NHtId0Hsp9mUaKvf8I9rP8Az4t/30P8aP8AhHNZ/wCfFv8Avof40e0h3Q/Yz7Mo0Vf/AOEb1r/nxb/vof407/hGta/58W/77X/Gj2kO6F7KfZmdRWj/AMI1rX/Pkf8Avtf8aP8AhGda/wCfL/yIv+NHtId0P2M+zM6itH/hGda/58v/AB9f8aP+Ea1r/nz/APIi0e0h3Qexn2ZnUVf/AOEb1j/n1H/fxaP+Ea1k/wDLoP8Av4KPaw7oPYz7MoUVpDwvrR6Wg/7+Cl/4RXXP+fMf9/BR7WHdB7GfZmZRWp/wieuf8+Y/7+Cg+E9cHW0X8ZBR7WHdB7GfZmXRWl/wi+t/8+q/9/FpP+EY1n/n2X/v6tHtYd0HsZ9mZ1FaQ8L60f8Al3T/AL+rR/wi2tf8+8f/AH9FHtYd0HsZ9mZtFaf/AAietf8APsn/AH9FO/4RHXD/AMuqf9/RR7WHdB7GfZmVRWr/AMIjrv8Az6p/39FH/CH67/z6x/8Af0Ue1h3Qexn2ZlUVrf8ACH67/wA+0f8A39FJ/wAIfrn/AD7Rf9/hR7WHdB7GfZmVRWr/AMIfrf8Az7xf9/hSHwlrI6wwj/tqKPaw7oPYz7My6K0/+EW1f/nlD/38FH/CKax/zyh/7+Ue2h3Qexn2ZmUVqf8ACJ6x/wA8of8Av5S/8IjrP/PKH/v5R7WHdB7GfZmVRWt/wiGtf88of+/lH/CIa1/zyh/7+Ue2h3Qexn2Zk0VqnwlrA6pAPrKKT/hE9W/6dv8Av8KPbQ7oPYVOzMuitUeEtX/6dv8Av8KX/hD9XPa2/wC/1L20O6D2FTszJorW/wCEQ1f0tv8Av7R/wh2sf3bf/v7R7aHdD9hU7MyaK1/+EN1g/wANv/39pf8AhDNa/u2//fyj20O6D2FTszHorY/4QzWf7tv/AN/P/rUv/CFaz6W3/fz/AOtR7aHdB7Cp2ZjUHoa2v+EJ1r0t/wDv5/8AWpD4K1jpm2/7+f8A1qPbQ7oPYVOzE8HEDWZPePH6136HYiH1iz/L/GuL0bw3rGj35uTHaS5Xbt8/b/St5rnWMKBp1p8sez/j769P9n2rirWnNtM76CcIJNHVaIQbm4A6iNM/ma3q53wf57/aZrpFinfaDEjb1UDOPm7k/QV1NehhtKaOetrNmbqkx/s+b5c4HYZrmTe9OHX/AIBmuslh8xWRkJVhgjHWsK40i8jci3jiePsTJsNc+LpSk00rmtCaSabKIuSf+Wjf9+x/jUgkJ/jb/vipRpOp/wDPJfwnFL/ZOpHrbj8ZM1x+xqdmdHtId0RnZ1aQfiMU3zrQdZU/Opf7Fve9vED7yCnDSL4dIIfoJBR7Gp2Ye0h3RVN1ajgFW9MGk+0wf88T+VXRpWo9rdB/wOj+y9R/55xD2MtHsanZh7SHdFI3UXaPb9QDUZnUtw0Y+vFaB0i/P/LGIn2lpv8AYt+ettH/AN/KPY1OzH7SHdFFPMJ4lT8DUyRS95cfTNWP7DvT/wAsYR/216U3+wr/ALRRH6S0exqdmL2kO6ESLH3pGP0OKQxMCSJGI9CcU/8AsO/7wJ/38pw0O9H8MA/7af8A1qfsZ9mHtId0VXhlPQge5OaljhUJiTazeoGKn/se/wCwiP0fP9KT+xNQPZR/wPH9KPYz7MPaQ7oj8qL+6KPKi/uj8Kk/sK9/vRf9/TSf2Ff9vLPuJDR7Gp2Ye0h3GhFHQkfQCk2f9NG/IVINE1D0jHuXP+FB0S/PB+zEe7//AFqPY1OzF7SHciwO8rfiBR+5HUqfqak/sK9/552x9wc/0pRoV53jtR7k/wD1qXsKnZj9rDuRb7f1T86YfJPQr+HNWv7Eu/S1/wC+v/rU06LqP8IhA9if8KPYVOzD2sO5TMUXUSKP+A0eWvaSM/Vat/2JqZ6tCv1Y0v8AYeo/89bf/vs0ewqdmHtYdyqFlPRoT/wGnhH7qn4AVMdC1A/eEJ/E0Dw/eH73kj6yNzR7Cp2Ye1h3Iwh74H0ApDEv95vw4qb/AIR64/6YH/to1A0C8HSOH8yaPYVOzD2sO5X8vHQsfq5phEvY/mxNXP7Dvx0a2T2JP+FH9iaj2ltifQMf8KfsJ9mL2sO5RxL3VT+dGG7on5kVe/sTU/70P5n/AApRoeod5rcH0JP+FH1ep2Ye2h3KOxf4kj/76ozCOqR/nV46HqHaWBj6An/Cj+w9R/vR/wDfR/wo+r1Owe2h3KQkt/7ifqakEsfREX8iKs/2HfkDM1t9CTxSHw/e9pLdvoTR9Xqdh+1h3KxMpP8AqwB7HNNPmjoP0xVr/hH731h/Wnf8I9dd5bb8SaX1ep2Ye2h3KP749d34MRSOshHDOp/3utXj4euextm+gJx+lOGgXg/59x+B/wAKf1ep2D20O5mIkwxudjzziSpkwOrn6eZmrx0G6P8Ay1tf1pp0C87Pbt7jcaPq9TsL20O5AZVPRVP4g0wu/wDzwTHr1q0PD953aAD1O6nf2Dd/897b82o+rVX0D20O5TyO6xD2INGfRIj9Aauf2Be9pYCPUbqP7Cve8sA9yGo+rVOwe2h3KmWH8CL7gZqMyN/eH4IP8a0P7Auv+e1r/wCPU3+wbztJAR6gNzT+rVew/bQ7mfv92/74WlTaersPqgrQGg3neW3X6g0v9g3X/PxbfkaPq1XsL20O5QxEOsp/EAf0pweAfxK31YVc/wCEfu/71uf+AGmjw7cH70lqv1QjNH1ep2D20O5W8yLsgP0INMeRcfLEfxq8PD1yvKz2wPsCKX+wrz/ntH+Ro+r1Owe2h3Mx5P8Apgp+rf8A1qqybi/+pUZ9HI/kK3hoN0etxGD6EGlXQLnPN1ER3wpJprDVOwOtDuN8MlkNydgAIUZ3E+vrXQ+YfSqltaC1hEaKxHcnnNWNp/u/pXp0Y8kEmcNRqUros1FIoyOKKK0EtxgUbxwKnoooERSKNw4pEUbhxRRT6DJqhdRvPFFFJCCJRvPFT0UUMCuyjceKfEAM8UUUASVX2j0FFFAEsQGDx3px6H6UUUAQbR6VNF92iigp7A/3D9Kh2j0oopMSJo/uCkk+5RRQHUi2j0FTp9wfSiigQ2UDA471FtHoKKKGBZqKVRxxRRQwGBRvXgdasUUUICGRRvHFIijeOKKKoCeoHUbzxRRSAWNRu6VNRRQBXZRvPHenxAZPHaiigCWq20c8CiigB8I4b61Keh+lFFAFfaPQVNF9z8aKKYCv9w/SoNo9KKKQE0f3BSSD5DRRQBFtHoKnT7g+lFFADZAMDjvUW0egoooAs1FMBxxRRQAwKNw4HWrFFFAEMijcOO1JGo3DgUUUAT02iigD/9k=;" vertex="1" parent="1">
          <mxGeometry x="-59.99999999999999" y="670" width="643.19" height="460" as="geometry" />
        </mxCell>
        <mxCell id="D7CyiCbgNfwCUPgvzWG9-12" value="大" style="text;html=1;strokeColor=none;fillColor=none;align=center;verticalAlign=middle;whiteSpace=wrap;rounded=0;rotation=30;fontStyle=1;fontSize=72;fontFamily=Comic Sans MS;fontColor=#FFFFFF;" vertex="1" parent="1">
          <mxGeometry x="51.59000000000004" y="890" width="40" height="20" as="geometry" />
        </mxCell>
        <mxCell id="D7CyiCbgNfwCUPgvzWG9-13" value="写" style="text;html=1;strokeColor=none;fillColor=none;align=center;verticalAlign=middle;whiteSpace=wrap;rounded=0;rotation=0;fontStyle=1;fontSize=72;fontFamily=Comic Sans MS;fontColor=#FFFFFF;" vertex="1" parent="1">
          <mxGeometry x="146.59" y="890" width="40" height="20" as="geometry" />
        </mxCell>
        <mxCell id="D7CyiCbgNfwCUPgvzWG9-14" value="的" style="text;html=1;strokeColor=none;fillColor=none;align=center;verticalAlign=middle;whiteSpace=wrap;rounded=0;rotation=-30;fontStyle=1;fontSize=72;fontFamily=Comic Sans MS;fontColor=#FFFFFF;" vertex="1" parent="1">
          <mxGeometry x="241.58999999999997" y="890" width="40" height="20" as="geometry" />
        </mxCell>
        <mxCell id="D7CyiCbgNfwCUPgvzWG9-15" value="爬&lt;br style=&quot;font-size: 72px;&quot;&gt;" style="text;html=1;strokeColor=none;fillColor=none;align=center;verticalAlign=middle;whiteSpace=wrap;rounded=0;rotation=30;fontStyle=1;fontSize=72;fontFamily=Comic Sans MS;fontColor=#FFFFFF;" vertex="1" parent="1">
          <mxGeometry x="336.59" y="890" width="40" height="20" as="geometry" />
        </mxCell>
        <mxCell id="D7CyiCbgNfwCUPgvzWG9-16" value="虫" style="text;html=1;strokeColor=none;fillColor=none;align=center;verticalAlign=middle;whiteSpace=wrap;rounded=0;fontStyle=1;fontSize=72;fontFamily=Comic Sans MS;fontColor=#FFFFFF;" vertex="1" parent="1">
          <mxGeometry x="431.59000000000003" y="890" width="40" height="20" as="geometry" />
        </mxCell>
        <mxCell id="D7CyiCbgNfwCUPgvzWG9-19" value="&lt;b&gt;&lt;font style=&quot;font-size: 24px&quot;&gt;By 3941&lt;/font&gt;&lt;/b&gt;" style="text;html=1;strokeColor=none;fillColor=none;align=center;verticalAlign=middle;whiteSpace=wrap;rounded=0;fontFamily=Comic Sans MS;fontSize=12;fontColor=#FFFFFF;" vertex="1" parent="1">
          <mxGeometry x="383.15" y="1060" width="149.45" height="20" as="geometry" />
        </mxCell>
        <mxCell id="D7CyiCbgNfwCUPgvzWG9-32" value="" style="group" vertex="1" connectable="0" parent="1">
          <mxGeometry x="730" y="640" width="685.1399999999999" height="490" as="geometry" />
        </mxCell>
        <mxCell id="D7CyiCbgNfwCUPgvzWG9-25" value="" style="shape=image;verticalLabelPosition=bottom;labelBackgroundColor=#ffffff;verticalAlign=top;aspect=fixed;imageAspect=0;image=data:image/jpeg,/9j/4AAQSkZJRgABAQEAAAAAAAD/4QAuRXhpZgAATU0AKgAAAAgAAkAAAAMAAAABAAAAAEABAAEAAAABAAAAAAAAAAD/2wBDAAoHBwkHBgoJCAkLCwoMDxkQDw4ODx4WFxIZJCAmJSMgIyIoLTkwKCo2KyIjMkQyNjs9QEBAJjBGS0U+Sjk/QD3/2wBDAQsLCw8NDx0QEB09KSMpPT09PT09PT09PT09PT09PT09PT09PT09PT09PT09PT09PT09PT09PT09PT09PT09PT3/wAARCAFTAdoDASIAAhEBAxEB/8QAHwAAAQUBAQEBAQEAAAAAAAAAAAECAwQFBgcICQoL/8QAtRAAAgEDAwIEAwUFBAQAAAF9AQIDAAQRBRIhMUEGE1FhByJxFDKBkaEII0KxwRVS0fAkM2JyggkKFhcYGRolJicoKSo0NTY3ODk6Q0RFRkdISUpTVFVWV1hZWmNkZWZnaGlqc3R1dnd4eXqDhIWGh4iJipKTlJWWl5iZmqKjpKWmp6ipqrKztLW2t7i5usLDxMXGx8jJytLT1NXW19jZ2uHi4+Tl5ufo6erx8vP09fb3+Pn6/8QAHwEAAwEBAQEBAQEBAQAAAAAAAAECAwQFBgcICQoL/8QAtREAAgECBAQDBAcFBAQAAQJ3AAECAxEEBSExBhJBUQdhcRMiMoEIFEKRobHBCSMzUvAVYnLRChYkNOEl8RcYGRomJygpKjU2Nzg5OkNERUZHSElKU1RVVldYWVpjZGVmZ2hpanN0dXZ3eHl6goOEhYaHiImKkpOUlZaXmJmaoqOkpaanqKmqsrO0tba3uLm6wsPExcbHyMnK0tPU1dbX2Nna4uPk5ebn6Onq8vP09fb3+Pn6/9oADAMBAAIRAxEAPwD1p3OTzUA1eyhZkkuEDA8gdvyputO9vp7vCCzsQuAPWuD1nUbiwtjcCMxwQDfLsj+Z+wUAn8c1y1q7g1FLU3pUlNXZ351qxIOJwTjjCmof7XtR/wAtj/3ya4/R9bh1ISfumG0K65HIDdj7itHzVPRR+JFc312fZG31aPdnRR65YqmGn5z/AHTRJr2nlCBPz/umueB9l/8AHaMr32D8j/Sj67Psg+rR7s3BrVkek/6Gp01uxCAGbn/dNc3vX+Fl/Bc/0pd5/vN+CGj67Psg+rw7s6KTW7IrgTHP+6ai/tm0/wCex/75NYg3H+JvxUily3Q8/VM0vrs+yD6vHuzfGv6eAAZzkDn5TTZdesCoxOev9w1gkD0X/v3ShI+6r/3xT+uT7IPq0fM2f7bs/wDnsf8Avg1YGuWR6SOf+AGuaeO3P8aj8KjdIOzR/oaX1yfZB9Wh3Z00usWjEbXbgf3DTRq9tkHe+M/88zXOxG3iAX922O5NP86LswA9A2P6UfXZ9kH1ePmdL/bdn/ff/vg1FJrFqXyHfGP+eZrnzLEer5/4ET/SjfB3I/M/4UfXJ9kH1aPmby61aq4Jd8Dr+7NS/wBvWX9+T/v2a54G1P8AEv50uy29Fo+uT7IPq8fM221u1ZyQ0mP+uZpY9ZtlfJaTGP8AnmaxMW46bfzpd/8AddB9eaPrk+yD6vHzN7+3bL+9J/37NRHWrYkkGTGf+eZrBKSk8XKj2C0eTIfvT5+i0fXKnZB9Xh3ZvprlohJZpMHp+7NO/wCEisP70v8A36b/AArBEK/xOx+lBiiHUt+eaPrlTsg+rw7s1/7dtP703/fo1JF4gswOfO56fumrD2Qf7X4U3ZEPuhz9SaPrlTyH9Xh5nQnX7Ug4E3/fs1D/AG3bDtN/37NY/mP2Ax7qTS/MeuwfVP8A69H1yfkL6vA201+0UYPnZz/zzNK2v2hQgedk/wDTOsPaf70f/fH/ANenBEx8wUn1AxR9cqeQfV4eZrf21bf9Nf8AvipF1+0CgHzsjr+7rDIj7HFJ8v8Az0H6UfXKnkH1eHmbj6/alcDzc5/uVH/blt/01/74rH3n/nt/L/CgOe8ufxo+uVPIf1eBuDxDZqAD5ucf3DTH8Q2bAAGTr/crH35/iX9aaY2fpJj6Zo+uVPIPq8DX/t619ZP++an/AOEhs/8Ab/Kue+zMf+W7D6Cj7OR/y2kNH1yp5B9XgbkviGzOMGTjr8tRjxDZgg5l4P8AcrHw6dCT6EuBSebL32/hIKX1up5B9Xgb/wDwk1j/ANNv+/dMbxDaOcqJsY/551h/aHHVX/BhR9p9fN/MGj65UD6tA3k1y33A7Zv++Km/t23/AOec3/fI/wAa5rzcnIBb/eYCmOZnP/LJV7ANR9cqeQfVoHRvrUJckJNj/dFIuu26NkrLjHoP8a59DIP4lPsST/SpPtLIPmTJ9Qpo+uVPIPq0DcPiW0H8En5D/GoT4jtSSQJOT6D/ABrHN4p6xP8AypPtK/8APF/zNL63U8h/VoG3H4jtVJJWXn2H+NSjxHanpHN/3yP8a57zlP8AywelG1+kbD6kCj63U8hfV4G4dcg/uy/kKcniC3XOY5Tnp0/xrB8pe+B+Kn+lGI06sf8AvgH+lH1up5B9XgdAfEVvg/upenqv+NQf8JBD/wA8pvwANY29R0MZ+seP6Un2lhwPI/Ij+lP63UD6vA3k8SW6jDRTZz/dFPHiK2fK7JUz3KcCuS1KWWWzaNXihVvvSpkMB1wPc9PxrI0PW7i/uEhls/KcKQ6OS+0Dox9z0prF1N9A+rwPT0k3gMrAqwyCOc1PvPrWT4fAlsnXoEbgBcYzz3rZ8oepr0ac+eKkcc1yyaMnxPJs0aV1XzGQhggPLew9T7V59caityAs2jaku05BEe08/j3rvdf/AOPA/wDXRf51z11F+8HH8Kn8q4MXbn1XQ6qCfLdM56HW7Pw7ahDp17DHK27dKu4sT759v0p48eaeekM3/fFVvHUYGn2h/wBoD9DXIxgYoo0YTjdmNavOnKyO4/4Tux/54zf98Uf8J3Yf88Z/++K4rAowK1+qw8zL63PyO2/4Tuw/54z/AIJSHx1Yn/lncj/gA/xrisCjAo+qw8w+tz8js/8AhN7H+7c/98Ck/wCE2sj/AAzn6oK43AowKPqsPMPrc/I7H/hNbD/nlN/37FH/AAm1j/zym/79iuOwKMCj6rT8w+uT8jsh43sf+eEp/wCAClHjqzHS3m/BQK4zAowKPqsPMPrdTyOz/wCE8tP+eE//AHyP8aP+E7tf+eM//fA/xrjMUYFH1an5h9bqeR2X/Cd23/PGf/vkf40n/CdWv/PGf/vkf41x2B6UYFH1WHmH1up5HZf8JzZ/88rgfRRSf8Jvaf3Lr/vkVx2BRgUfVafmH1yp5HY/8Jza/wDPO5P1UUv/AAnVp/zxnP8AwAf41xuBRgUfVafmH1up5HZ/8J1Zj/lhP+QH9aQ+OrM9be4P4D/GuNxRgelH1WAfW5nXnxvZ/wDPnOfwH+NNPjaz/wCfKX8QK5LA9KMCj6rAPrdQ6v8A4TW27Wkn5Cj/AITeAdLWT8h/jXKYFGBR9VgH1uodcPHcQ/5dpfyH+NL/AMJ3b97af8AP8a5DAowKPq0BfW6h13/CcW3/AD7XH6f40n/CcW3/AD7XP6f41yWBRij6rAf1uodZ/wAJzb/8+tx+Y/xpD45i7Wk/4kf41ymKMUfVafYPrdTudX/wnUf/AD6Tf99D/GnDx3F3tZ/wI/xrksUYHpR9WgL63U7nXf8ACdwH/l1n/T/Gk/4Ti3/59bj81rksCjAo+rQ7B9bqHW/8Jxb/APPrc/mtNPjeD/n0n/ErXKYoxT+rU+wfW6nc6r/hNoO1lL+JWk/4TaLtZP8A+O1y2KMUfVodg+tVO51SeOkXpZP+YFO/4T5f+fJ/++hXJ4oxR9Wh2D61U7nWf8J6v/Pk/wCYpP8AhPV/58n/ADFcpijFH1aHYPrVTudV/wAJ2v8Az5P/AN9Un/CdD/nyf/vuuWxRij6tDsL61U7nU/8ACdD/AJ8n/wC/lJ/wnH/Tk/8A38rl8UYo+rU+wfWqnc6r/hPG6fYmP1cGk/4Ts/8APif++hXLYoxR9Wh2D61U7nUf8J03/Pl/48KP+E7f/ny/UVy+KMUfVodg+tVO51P/AAnkv/Pmf++hS/8ACfMF/wCPN/8AvoVytIehp/Vodg+s1O52Vn4pudb8yCDTlcKAGWWUKDn8Pap4hqFk8r22i2cbuFaRluQN2eBn5axvBIzeXX0U/wA67UJ5kchPeOM/rXFUShNpI7qLc4Jtm54UkdrGUXCpHOHxJGhyFP8AvfxeueK38j1Fc9oYw177yg/pW3Xp4d3po5auk2Z/iBFTTC3PDqf1rAugMBvUYFb/AIkYHR5MHJDLXP3T4gHsuf0rgxvx/I68N8PzOV8fcabbj/pqP5GuOj6V2Hj8/wCgW3/XQH9K4+LpW+F/h/M4sX/EHUUUV0nKFFFFABRRRQAUUUUAFFFFABRRRQAUUUUAFFFFABRRRQAUUUUAFFFFABRRRQAUUUUAFFFFABRRRQAUUUUAFFFFABRRRQAUUUUAFFFFABRRRQAUUUUAFFFFABRRRQAUUUUAFB+7RQfu0AdB4FGb+6Hqo/rXcW4xCc/881H61xHgX/kI3P8Aur/Wu6jGLVj/ALP9a8rEfxGevhv4aNnQUD/as5++P5VteUvvWN4fZRHOc9XB/StrevrXp4f+GjlrfGzE8Qf8gmb8Kwbn50kH91P6V0fiRQNGmIHOR/Ouf2bjP9AP0rhxv8T5HVhvh+Zyfjs50y0P+2P5VyEfSut8bj/iU2/tNj9K5KLpW+F/h/M4sX/E+Q6iiiuk5QooooAKKKKACiiigAooooAKKKKACiiigAooooAKKKKACiiigAooooAKKKKACiiigAooooAKKKKACiiigAooooAKKKKACiiigAooooAKKKKACiiigAooooAKKKKACiiigAoP3aKD0NAHQeBf+Qjc/wC6P613w/49WX/ZNcB4G/4/7n/dH9a9AHKOP9g15WI/iM9bDfw0X9A/49pMdMrj8q2qyfDKq1pJkZxt/lW5sX0r08N/CRy1/jZleInVtHmXnOV/nWChAmkB/iK/yra1/wD5BU34Viy/IQ3qQP0rhxnxr0OrDfA/U5Hx1/yDIf8Ar4P9a4+PoK7Dxz/yDIv+vg/1rj4ulb4X4PmceL+P5D6KKK6TlCiiigAooooAKKKKACiiigAooooAKKKKACiiigAooooAKKKKACil5pKACiijmgAoo5o5oAKMGlxSjigBMH1ox70+mnNADfxoxTgKCRQA2ilApcCgBtFKaSgAooooAKKKKACiiigAooooAKKKKACiiigAooooAKD0NFB6GgDf8Ef8f9z/ALo/rXfQ8ySD/ZxXAeCf+P8Auf8AdH9a7+2/18n+6K8vE/xGethv4SNTw0wjt5g2eCB+lbvmrXP6H9y5/wB8fyrar0sN/DRzVvjZS8RqP7GmwBnjt71zdy/EYyeqjFdHr8obSpVx3X+dc1ckmSEY4YqR+dcOM+Neh04b4fmcv46/5BsP/Xcn+dcfH92uv8c86bF/13P9a5GLpW+F+D5nHi/4g6iiiuk5QooooAKKKKACiiigAooooAKKKKACiiigAopQM0+gCOlwaUkUmTQAuKdTRTqAGnpSDFPpuBQAUYFOooAaRmgDFOpueaAHUUUUAFFFFADCaUCjAoyOgoAdTD1p9FADMGkqSmHrQAlFFFABRRRQAUUUUAFFFFABRRRQAUUUUAFFFFABQehooPQ0Ab/gj/kIXJ9FH9a761IM0hHQqprgvAwBv7v2RSP1ruUDJCWVsMwTkdq8vEfxGethv4SNvw6Bi6BAOHHX6Vt4HoKwtAcR/a+MguMflW35o9DXpYb+GjlrfGzJ1sE6fIMdWX+dc+TvFsPU5/Wup1r/AJBrf7y/zrloxzB/sqT+tcON+Neh14b4Gcp4250yM/8ATwf61yMfSuu8a/8AIJj9RP8A41yMfSt8L8HzOLF/H8h1FFFdJyhRRRQAUUUUAFFFFABRRRQAUUUUAFFFFADhxTqKZn0oAXAowPU0CnUAJ0paKbuFADqKZk0lAElFMHFGc0ALnrQBikAp9ABRTScUmTQA+mk02loAME0vSk30ZNAD6KjyfWlBoAfTD1p9MPWgBKKKKACiiigAooooAKKKKACiiigAooooAKKKKACg9DRQehoA6DwL/wAhC7/65r/Ou+Qf6GT/ALFcB4G/5CF17ov8679B+5C+2DXl4j+Iz1sN/DRo6IDi4/3x/Ktqsvw792593/xrbr0sN/CRzV/jZl6xKWsHXH8S/wA65uE4eMf3kb+ddFqwYWTkg43L/OubHE1v7lxXDjPjXodOH+H5nL+NxjSkH/TVT/OuPi6V2Xjv/kGp/wBdE/rXGRdK3wvwfM48X8fyH0UUV0nKFFFFABRRRQAUUUUAFFFFABRRRQAUopKXrQAdfpTsAUCloAbwKTPpSkZoxQAnJo4HXrTulNoAOTQR60lGTQAUoHrRRk0AKSKTJpKKACiiigAooooAKKKKACiiigBc8UlFFABRRRQAUUUUAFFFFABRRRQAUUUUAFFFFABRRRQAUH7tFB+7QBveCTjUrj3Vf/Qq7+M4GewNef8Agn/kJXH+6v8AOu8TJUgdyR+leXif4jPXwv8ACRsaAzRfawefnGPyrb80+grD0XJa6wCfmXp9K2cH0P5V6WG/hI5K/wAbK2tf8g1/95f5iuVuOI7dvSRh/Ouk1qUmwcHGNy/zrm7wj7DG3pJmuLG/GvQ6sN8PzOa8ef8AIPi95F/rXGRdK7Px5j+zYfaQZrjI+lbYX+H8zjxfx/IdRRRXScoUUUUALSUUUAFFFFABRRRQAtJRSgUAAGafRRQAUUUUAFISBSE4ptACk5pKKKACiiigAooooAKKKKAFpKKKAFopKKAFpKKKAClpKKAFpKKKACiiigBaSiigBaKSigApaSigApaSigBaSiigAooooAKD0NFB6GgDe8E/8hO4/wB1f513kP32+p/lXB+Bv+QrP/uD+dd/EMSH3Ga8vE/xGethf4aNbw0ci5P+0v8AKt2ue8PSFY5yMcla2/NPtXo4b+EjmrfGzO1pWGnuSONy/wA65q5ObBR6yDFdXrf/ACC5P95f5iuTvAqRxRr0Bz+dceN+Neh04b4X6nN+O/8AkGp7Sr/KuOj6V2Xjv/kGj/rsP5VxsXStsL8HzOPF/H8h1FFFdJyhRRRQAUUUUAFFFFABRS0vFACDBp9MJ9KMmgB9N9c0A0j0AGTRnikooAKKKKACiiigAooooAKKKKACiiigAooooAKKKKACiiigAoopcE0AJRSkEUgoAKKXNJQAUUUUAFFFFABRRRQAUUUUAFFFFABRRRQAUHoaKD0NAG74JONTuD6Rg16BCckn1rz3wd/x/wB3/wBcq9CiGMfT+teXif4jPWw38NGj4fUmOfAzgjP61ueW3p+tZPhsYW4How/rW5Xo4b+Ejmr/ABsydXZjYSAk4yv865q5QlwfRkH5iun1eIiwkJxjI/nXPAK8jbvVSPrg1x4z416HThvhZy3jv/kG/wDbZa4uPpXa+Ox/xLP+2y1xUfStsL/D+ZyYz4/kOoopa6TkEopaSgAopaSgApaMUUAB60lFFABRRRQAtB60lFABRRRQAUUUUAFFFFABRRRQAUUUUAFFFFABRRRQAUUUUAFLjNJS5NAC4A60hPpSUUAFFFFABRRRQAUUUUAFFFFABRRRQAUUUUAFFFFABRRRQAUHoaWkPQ0AbXg7P9oXQ9YsV6LH2+grzzwV/wAhWYeqAfrXoEP3M+gFeXif4jPWw38NGrorFTc7Tj5hWzvb1NY2hqZWuSMdV/lW15Te1elhv4aOet8bKus/8g2X8P5iuY6TH/gP8yK39YcjTZjk8Y7+9YB7n/ZU/wDjxrixvxr0OjDfCzmfHf8AyCR7yrXEx9K7Xx1/yB4/eVf61xMXStsL8HzOTF/H8h9FFFdJyBRRRQAUUUUAKeaSiigAooooAKKKKACiiigAooooAKKKKACiiigAooooAKKWjBoASlwaMetLgUAGKMCnUwnNABkDoKTrRRQAUUUUAFFFFABRRRQAUUUUAFFFFABRRRQAUUUoFABg0bTS5xTqAI6KcRTaACiiigAoPQ0UH7tAG54J/wCQxL/uj+degwf6s/7prz3wT/yGJf8AdH869Ah+4foa8vE/xGethv4aNfwwcx3B91/lW9XNeGyRDNgkcr0+lb2W/vH869HC/wAJHNX+NlDXYiukXDZ6AfzrEdB9mJ77cVv+IP8AkCXX+6P51g9YXHocVx4z416HRh/hZyHjn/kCw/8AXQf1ri4uldn42/5A8f8A10H8zXGRdK1wvwfM5cX8fyH0UUV1HIFFFFABRRRQAUUUUAFFFFABRRRQAUUUUAFFFFABRRRQAUUtGAOtABRx9aM+gpKAHZozScUZ9BQAZNLnHvTaKAFOaSiigAooooAKKKKACiilAFABgmjAp9FADM+1H4UEYpKACiiigAoopeaAAUu4UYpeKAE69qdTc0mfagB9MNGfakoAKKKKACg/dooPQ0AbXgr/AJC83/XMfzr0GI4z9cV594M/5C0//XMfzrv4zwfrXl4n+Iz1sL/DRqeGoi0c3OMFetb3k+9Y3hn/AFc30X+tb1ejhf4SOav8bMbXP+QVcfQVjRvjzR/tcflW9rcQGlTnJ6D+dc3nMxA/iYn/AMdrjxvxr0OnD/C/U5bxnzoyn0lH/oRrjYuldp4yH/EhH/XVf/QjXFxdK1wvwfM5MX8fyH0UUV1HIFFFFABRRRQAUUUUAFFFFABRRRQAUUUUAFFFFABRRRQAtJRRQAUUUUAFFFFABRRRQAUUUUAFFFKOaAEop2BScdqAEpQcUlFADtwo3Cm0UAKTRSUUAFFFLmgAwaXIHSm9e9FAC5NJRRQAUUUUAFFFFABRRRQAUHoaKD0NAGz4M/5Ctx/1y/rXfA4DexrgvBgzqtwfSIfzrvthCSg/xE4/KvLxPxs9bC/w0a2hjAmHoAP51t1j6BGH8/kjG3+tbnlD1Nejhf4SOet8bKWtEHTJhkZ47+9ctFzOh9QT/wCOiui1b/jwm/D+dYEI+eM/7J/pXHjfjXodGG+FnNeNwBoj46eYn8zXERdK7fxt/wAgRv8Aron864eLpWuE+B+pyYv4/kPooorqOQKKKKACiiigAooooAKKKKACiiigAooooAKKKKACiiigAooooAKKKKACiiloASilwaXFADaKXBpcUANp1FB9zQAhOaMGjPpRk0ALgetJxSUUALn2pKUClwPWgBtFLxRkelACUUUUAFFFFABRRRQAUUUUAFFFFABRRRQAUH7tFB6GgDd8EDOrXA/6ZD/0Ku+7E+gJrgvBH/IXuP8ArkP/AEKu9TPmL6d68vE/Gz1sL/DRseHiA1xkgZI6/jW5uHqPzrntE/5a/Rc/rW3Xo4X+Ejmr/GyrrEajTZiM5AHf3rnkGI4z/s4rodYkU6ZOAecD+dc9JKIoEGMlsD6VyYz416HThvhfqcv4340Yj1dP51w0XSu68dj/AIk//A1/nXCx/drXC/B8zkxfxr0H0UUV0nIFFFFABRRRQAUUUUAFFFFABRRRQAUUUoGaAEpcH0p9FADMGjml3CjNACYNL8opM5pKAFpKKUYoAUCnUwn0pKAHZpMmkowaAFzRk0YNGKADk0YPpRil49aAEwfSil3Ckz7UAJRS0lABRRRQAUUUUAFFFFABRRRQAUUUUAFFFFABRRRQAUUUUAFB+7RQfu0Abvgg41if3i/9mrvRL+7kI6oK8+8FH/idye8eP1rvcf60D+JSf0ry8T/EZ62F/ho3NBUO9xnOBjGD9a3PKX3/ADrD8PkRmYMcHapNbnmL616OF/hI563xsytX/wCQfP8AQfzFYFz98egU10mtoo0i4IAyFHP4iufcB3kX/ZyK5Mb8a9Dow3wv1OY8df8AIG/4GtcLH0Fd146/5Ah/30rhYugrXC/B8zkxfxr0H0UUV0nIFFFFABRRRQAUUUUAFFFFABRzRS5NABj1pdwpAPal4oATJpKUn2pKACiiigAoopaAEpcGjI7UZNABj1peBTaKAHbhSZpKKAFzRk0lFABRRRQAUUUUAFFFFABRRRQAUUUUAFFFFABRRRQAUUUUAFFFFABRRRQAUUUUAFB+7RQfu0AbPgz/AJDcn/XMfzrv4hmf8f6VwHgz/kNyf9cx/Ou/Q4uT7Mf5V5eJ+NnrYT+GjW0d1e5uVB5ULn9a2/xrF8PRg3F2GAJ4J/M10GxfSvRwv8JHPW+NmbrcoOk3IGc7f61gIczn/dP862ta/wCQZc/7v9awov8AXMfY/wA65MZ8a9Dow3ws5vx1/wAgY/8AXRf51wsXSu68df8AIGb/AK6L/OuFi6VphfgfqcmL+P5D6KKK6jkClpKKAF/Cj8KSigBePQ0vA9abRQA7NJSUUAFLSUUALSUUUAFFFFABRRRQAUUUUAFFFFABRRRQAUUUUAFFFFABRRRQAUUUUAFFFFABRRRQAUUUUAFFFFABRRRQAUUUUAFFFFABRRRQAUUUUAFB+7RQfu0AbPgz/kNyf9c/616BsxJn1Oa8/wDBn/Idf/rn/WvQzy49sV5eJ+Nnq4X4Ea2hyBbm4znBVMfrW55q+/5Vz2if66c/7K/1ra/z0r0cL/CRhW+NlfXQP7GujgZ2+nvXPQgfOc85PH41va5JnR7lcdVHf3Fc/b9ZPoP61yY3416G+G+F+pzXjr/kCN/11X+dcLF0ruvHX/IDb/rov864WLpWmF+B+py4v416D6KKK6jkCiiigAooooAKKKKACiiigAooooAKKKKACiiigAooooAKKKKACiiigAooooAKKKKACiiigAooooAKKKKACiiigAooooAKKKKACiiigAooooAKKKKACiiigAooooAKKKKACg9DRQehoA2PBv8AyG5P+uf9a9Dj5A+iV554N/5DMn/XL+tehwH7v+6p/KvLxP8AEZ6uF/ho1vDoBefIB+VOv41vYHoK5/QJBHNOMZ+RD/Ot3zR6V6GG/hIwrfGzL1n/AJBlx/uj+YrFiGHcf7IP866LXMf2RcknGFz9cHp9T0rhIvEbbyTpGqYKgD90vbP+171zYuLc0/I2w7STuUvHP/IDP/XRf51wkXQV2PiWa71rTzBaaXfB9wP7xVA/9Crm4/D2tAc6dN+Y/wAarDSUYtN21OfExcpppX0KtFXf+Ef1r/oHTfmP8aP+Ef1r/oHTfmP8a6PaQ7o5/Zz7MpUVe/4R7Wv+gdN+Y/xpP+Ef1n/oHy/iQP60vaQ7oPZT7MpUVe/4R7Wf+fF/++1/xo/4R7Wf+fFv++1/xo9pDug9lPsyjRV7/hHNZP8Ay4t/32v+NH/CPawOti3/AH0v+NHtId0Hsp9mUaKvf8I9rP8Az4t/30P8aP8AhHNZ/wCfFv8Avof40e0h3Q/Yz7Mo0Vf/AOEb1r/nxb/vof407/hGta/58W/77X/Gj2kO6F7KfZmdRWj/AMI1rX/Pkf8Avtf8aP8AhGda/wCfL/yIv+NHtId0P2M+zM6itH/hGda/58v/AB9f8aP+Ea1r/nz/APIi0e0h3Qexn2ZnUVf/AOEb1j/n1H/fxaP+Ea1k/wDLoP8Av4KPaw7oPYz7MoUVpDwvrR6Wg/7+Cl/4RXXP+fMf9/BR7WHdB7GfZmZRWp/wieuf8+Y/7+Cg+E9cHW0X8ZBR7WHdB7GfZmXRWl/wi+t/8+q/9/FpP+EY1n/n2X/v6tHtYd0HsZ9mZ1FaQ8L60f8Al3T/AL+rR/wi2tf8+8f/AH9FHtYd0HsZ9mZtFaf/AAietf8APsn/AH9FO/4RHXD/AMuqf9/RR7WHdB7GfZmVRWr/AMIjrv8Az6p/39FH/CH67/z6x/8Af0Ue1h3Qexn2ZlUVrf8ACH67/wA+0f8A39FJ/wAIfrn/AD7Rf9/hR7WHdB7GfZmVRWr/AMIfrf8Az7xf9/hSHwlrI6wwj/tqKPaw7oPYz7My6K0/+EW1f/nlD/38FH/CKax/zyh/7+Ue2h3Qexn2ZmUVqf8ACJ6x/wA8of8Av5S/8IjrP/PKH/v5R7WHdB7GfZmVRWt/wiGtf88of+/lH/CIa1/zyh/7+Ue2h3Qexn2Zk0VqnwlrA6pAPrKKT/hE9W/6dv8Av8KPbQ7oPYVOzMuitUeEtX/6dv8Av8KX/hD9XPa2/wC/1L20O6D2FTszJorW/wCEQ1f0tv8Av7R/wh2sf3bf/v7R7aHdD9hU7MyaK1/+EN1g/wANv/39pf8AhDNa/u2//fyj20O6D2FTszHorY/4QzWf7tv/AN/P/rUv/CFaz6W3/fz/AOtR7aHdB7Cp2ZjUHoa2v+EJ1r0t/wDv5/8AWpD4K1jpm2/7+f8A1qPbQ7oPYVOzE8HEDWZPePH6136HYiH1iz/L/GuL0bw3rGj35uTHaS5Xbt8/b/St5rnWMKBp1p8sez/j769P9n2rirWnNtM76CcIJNHVaIQbm4A6iNM/ma3q53wf57/aZrpFinfaDEjb1UDOPm7k/QV1NehhtKaOetrNmbqkx/s+b5c4HYZrmTe9OHX/AIBmuslh8xWRkJVhgjHWsK40i8jci3jiePsTJsNc+LpSk00rmtCaSabKIuSf+Wjf9+x/jUgkJ/jb/vipRpOp/wDPJfwnFL/ZOpHrbj8ZM1x+xqdmdHtId0RnZ1aQfiMU3zrQdZU/Opf7Fve9vED7yCnDSL4dIIfoJBR7Gp2Ye0h3RVN1ajgFW9MGk+0wf88T+VXRpWo9rdB/wOj+y9R/55xD2MtHsanZh7SHdFI3UXaPb9QDUZnUtw0Y+vFaB0i/P/LGIn2lpv8AYt+ettH/AN/KPY1OzH7SHdFFPMJ4lT8DUyRS95cfTNWP7DvT/wAsYR/216U3+wr/ALRRH6S0exqdmL2kO6ESLH3pGP0OKQxMCSJGI9CcU/8AsO/7wJ/38pw0O9H8MA/7af8A1qfsZ9mHtId0VXhlPQge5OaljhUJiTazeoGKn/se/wCwiP0fP9KT+xNQPZR/wPH9KPYz7MPaQ7oj8qL+6KPKi/uj8Kk/sK9/vRf9/TSf2Ff9vLPuJDR7Gp2Ye0h3GhFHQkfQCk2f9NG/IVINE1D0jHuXP+FB0S/PB+zEe7//AFqPY1OzF7SHciwO8rfiBR+5HUqfqak/sK9/552x9wc/0pRoV53jtR7k/wD1qXsKnZj9rDuRb7f1T86YfJPQr+HNWv7Eu/S1/wC+v/rU06LqP8IhA9if8KPYVOzD2sO5TMUXUSKP+A0eWvaSM/Vat/2JqZ6tCv1Y0v8AYeo/89bf/vs0ewqdmHtYdyqFlPRoT/wGnhH7qn4AVMdC1A/eEJ/E0Dw/eH73kj6yNzR7Cp2Ye1h3Iwh74H0ApDEv95vw4qb/AIR64/6YH/to1A0C8HSOH8yaPYVOzD2sO5X8vHQsfq5phEvY/mxNXP7Dvx0a2T2JP+FH9iaj2ltifQMf8KfsJ9mL2sO5RxL3VT+dGG7on5kVe/sTU/70P5n/AApRoeod5rcH0JP+FH1ep2Ye2h3KOxf4kj/76ozCOqR/nV46HqHaWBj6An/Cj+w9R/vR/wDfR/wo+r1Owe2h3KQkt/7ifqakEsfREX8iKs/2HfkDM1t9CTxSHw/e9pLdvoTR9Xqdh+1h3KxMpP8AqwB7HNNPmjoP0xVr/hH731h/Wnf8I9dd5bb8SaX1ep2Ye2h3KP749d34MRSOshHDOp/3utXj4euextm+gJx+lOGgXg/59x+B/wAKf1ep2D20O5mIkwxudjzziSpkwOrn6eZmrx0G6P8Ay1tf1pp0C87Pbt7jcaPq9TsL20O5AZVPRVP4g0wu/wDzwTHr1q0PD953aAD1O6nf2Dd/897b82o+rVX0D20O5TyO6xD2INGfRIj9Aauf2Be9pYCPUbqP7Cve8sA9yGo+rVOwe2h3KmWH8CL7gZqMyN/eH4IP8a0P7Auv+e1r/wCPU3+wbztJAR6gNzT+rVew/bQ7mfv92/74WlTaersPqgrQGg3neW3X6g0v9g3X/PxbfkaPq1XsL20O5QxEOsp/EAf0pweAfxK31YVc/wCEfu/71uf+AGmjw7cH70lqv1QjNH1ep2D20O5W8yLsgP0INMeRcfLEfxq8PD1yvKz2wPsCKX+wrz/ntH+Ro+r1Owe2h3Mx5P8Apgp+rf8A1qqybi/+pUZ9HI/kK3hoN0etxGD6EGlXQLnPN1ER3wpJprDVOwOtDuN8MlkNydgAIUZ3E+vrXQ+YfSqltaC1hEaKxHcnnNWNp/u/pXp0Y8kEmcNRqUros1FIoyOKKK0EtxgUbxwKnoooERSKNw4pEUbhxRRT6DJqhdRvPFFFJCCJRvPFT0UUMCuyjceKfEAM8UUUASVX2j0FFFAEsQGDx3px6H6UUUAQbR6VNF92iigp7A/3D9Kh2j0oopMSJo/uCkk+5RRQHUi2j0FTp9wfSiigQ2UDA471FtHoKKKGBZqKVRxxRRQwGBRvXgdasUUUICGRRvHFIijeOKKKoCeoHUbzxRRSAWNRu6VNRRQBXZRvPHenxAZPHaiigCWq20c8CiigB8I4b61Keh+lFFAFfaPQVNF9z8aKKYCv9w/SoNo9KKKQE0f3BSSD5DRRQBFtHoKnT7g+lFFADZAMDjvUW0egoooAs1FMBxxRRQAwKNw4HWrFFFAEMijcOO1JGo3DgUUUAT02iigD/9k=;" vertex="1" parent="D7CyiCbgNfwCUPgvzWG9-32">
          <mxGeometry width="685.14" height="490" as="geometry" />
        </mxCell>
        <mxCell id="D7CyiCbgNfwCUPgvzWG9-26" value="&lt;b&gt;&lt;font style=&quot;font-size: 24px&quot;&gt;By 3941&lt;/font&gt;&lt;/b&gt;" style="text;html=1;strokeColor=none;fillColor=none;align=center;verticalAlign=middle;whiteSpace=wrap;rounded=0;fontFamily=Comic Sans MS;fontSize=12;fontColor=#FFFFFF;" vertex="1" parent="D7CyiCbgNfwCUPgvzWG9-32">
          <mxGeometry x="500" y="420" width="149.45" height="20" as="geometry" />
        </mxCell>
        <mxCell id="D7CyiCbgNfwCUPgvzWG9-27" value="大" style="text;html=1;strokeColor=none;fillColor=none;align=center;verticalAlign=middle;whiteSpace=wrap;rounded=0;rotation=30;fontStyle=1;fontSize=72;fontFamily=Comic Sans MS;fontColor=#FFFFFF;" vertex="1" parent="D7CyiCbgNfwCUPgvzWG9-32">
          <mxGeometry x="132.56999999999994" y="230" width="40" height="20" as="geometry" />
        </mxCell>
        <mxCell id="D7CyiCbgNfwCUPgvzWG9-28" value="写" style="text;html=1;strokeColor=none;fillColor=none;align=center;verticalAlign=middle;whiteSpace=wrap;rounded=0;rotation=0;fontStyle=1;fontSize=72;fontFamily=Comic Sans MS;fontColor=#FFFFFF;" vertex="1" parent="D7CyiCbgNfwCUPgvzWG9-32">
          <mxGeometry x="227.56999999999994" y="230" width="40" height="20" as="geometry" />
        </mxCell>
        <mxCell id="D7CyiCbgNfwCUPgvzWG9-29" value="的" style="text;html=1;strokeColor=none;fillColor=none;align=center;verticalAlign=middle;whiteSpace=wrap;rounded=0;rotation=-30;fontStyle=1;fontSize=72;fontFamily=Comic Sans MS;fontColor=#FFFFFF;" vertex="1" parent="D7CyiCbgNfwCUPgvzWG9-32">
          <mxGeometry x="322.56999999999994" y="230" width="40" height="20" as="geometry" />
        </mxCell>
        <mxCell id="D7CyiCbgNfwCUPgvzWG9-30" value="爬&lt;br style=&quot;font-size: 72px;&quot;&gt;" style="text;html=1;strokeColor=none;fillColor=none;align=center;verticalAlign=middle;whiteSpace=wrap;rounded=0;rotation=30;fontStyle=1;fontSize=72;fontFamily=Comic Sans MS;fontColor=#FFFFFF;" vertex="1" parent="D7CyiCbgNfwCUPgvzWG9-32">
          <mxGeometry x="417.56999999999994" y="230" width="40" height="20" as="geometry" />
        </mxCell>
        <mxCell id="D7CyiCbgNfwCUPgvzWG9-31" value="虫" style="text;html=1;strokeColor=none;fillColor=none;align=center;verticalAlign=middle;whiteSpace=wrap;rounded=0;fontStyle=1;fontSize=72;fontFamily=Comic Sans MS;fontColor=#FFFFFF;" vertex="1" parent="D7CyiCbgNfwCUPgvzWG9-32">
          <mxGeometry x="512.5699999999999" y="230" width="40" height="20" as="geometry" />
        </mxCell>
      </root>
    </mxGraphModel>
  </diagram>
  <diagram id="YgjAlHeSN11oO8HT0NMA" name="标题">
    <mxGraphModel dx="946" dy="646" grid="1" gridSize="10" guides="1" tooltips="1" connect="1" arrows="1" fold="1" page="1" pageScale="1" pageWidth="827" pageHeight="1169" math="0" shadow="0">
      <root>
        <mxCell id="x-Ot3oWnZm1fxhLSLb2y-0" />
        <mxCell id="x-Ot3oWnZm1fxhLSLb2y-1" parent="x-Ot3oWnZm1fxhLSLb2y-0" />
        <mxCell id="ycv_TVzEEXSWOvAgOOkN-12" value="" style="rounded=0;whiteSpace=wrap;html=1;fontFamily=Helvetica;fontSize=32;" vertex="1" parent="x-Ot3oWnZm1fxhLSLb2y-1">
          <mxGeometry x="520" y="195" width="640" height="190" as="geometry" />
        </mxCell>
        <mxCell id="ycv_TVzEEXSWOvAgOOkN-1" value="爬虫 &amp;amp; 代码" style="rounded=0;whiteSpace=wrap;html=1;fontFamily=Helvetica;fontSize=64;fontStyle=1;fontColor=#FFFFFF;strokeColor=#250128114;fillColor=#FA8072;" vertex="1" parent="x-Ot3oWnZm1fxhLSLb2y-1">
          <mxGeometry x="70" y="670" width="400" height="100" as="geometry" />
        </mxCell>
        <mxCell id="ycv_TVzEEXSWOvAgOOkN-2" value="爬虫 &amp;amp; 软件" style="rounded=0;whiteSpace=wrap;html=1;fontFamily=Helvetica;fontSize=64;fontStyle=1;fontColor=#FFFFFF;strokeColor=#250128114;fillColor=#FA8072;" vertex="1" parent="x-Ot3oWnZm1fxhLSLb2y-1">
          <mxGeometry x="70" y="10" width="400" height="100" as="geometry" />
        </mxCell>
        <mxCell id="ycv_TVzEEXSWOvAgOOkN-3" value="爬虫 &amp;amp; 法律" style="rounded=0;whiteSpace=wrap;html=1;fontFamily=Helvetica;fontSize=64;fontStyle=1;fontColor=#FFFFFF;strokeColor=#250128114;fillColor=#FA8072;" vertex="1" parent="x-Ot3oWnZm1fxhLSLb2y-1">
          <mxGeometry x="80" y="860" width="400" height="100" as="geometry" />
        </mxCell>
        <mxCell id="ycv_TVzEEXSWOvAgOOkN-4" value="EXCEL" style="rounded=0;whiteSpace=wrap;html=1;fontFamily=Helvetica;fontSize=48;fontStyle=1;fontColor=#FFFFFF;fillColor=#97D077;strokeColor=none;" vertex="1" parent="x-Ot3oWnZm1fxhLSLb2y-1">
          <mxGeometry x="70" y="180" width="400" height="80" as="geometry" />
        </mxCell>
        <mxCell id="ycv_TVzEEXSWOvAgOOkN-5" value="八爪鱼" style="rounded=0;whiteSpace=wrap;html=1;fontFamily=Helvetica;fontSize=48;fontStyle=1;fontColor=#FFFFFF;fillColor=#97D077;strokeColor=none;" vertex="1" parent="x-Ot3oWnZm1fxhLSLb2y-1">
          <mxGeometry x="70" y="300" width="400" height="80" as="geometry" />
        </mxCell>
        <mxCell id="ycv_TVzEEXSWOvAgOOkN-6" value="Web Scraper" style="rounded=0;whiteSpace=wrap;html=1;fontFamily=Helvetica;fontSize=48;fontStyle=1;fontColor=#FFFFFF;fillColor=#97D077;strokeColor=none;" vertex="1" parent="x-Ot3oWnZm1fxhLSLb2y-1">
          <mxGeometry x="70" y="410" width="400" height="80" as="geometry" />
        </mxCell>
        <mxCell id="ycv_TVzEEXSWOvAgOOkN-7" value="You-get" style="rounded=0;whiteSpace=wrap;html=1;fontFamily=Helvetica;fontSize=48;fontStyle=1;fontColor=#FFFFFF;fillColor=#97D077;strokeColor=none;" vertex="1" parent="x-Ot3oWnZm1fxhLSLb2y-1">
          <mxGeometry x="70" y="530" width="400" height="80" as="geometry" />
        </mxCell>
        <mxCell id="ycv_TVzEEXSWOvAgOOkN-8" value="无障碍" style="rounded=0;whiteSpace=wrap;html=1;fontFamily=Helvetica;fontSize=32;fontStyle=1;fillColor=#000000;fontColor=#FFFFFF;" vertex="1" parent="x-Ot3oWnZm1fxhLSLb2y-1">
          <mxGeometry x="560" y="220" width="120" height="40" as="geometry" />
        </mxCell>
        <mxCell id="ycv_TVzEEXSWOvAgOOkN-10" value="一键" style="rounded=0;whiteSpace=wrap;html=1;fontFamily=Helvetica;fontSize=32;fontStyle=1;fillColor=#000000;fontColor=#FFFFFF;" vertex="1" parent="x-Ot3oWnZm1fxhLSLb2y-1">
          <mxGeometry x="560" y="270" width="90" height="40" as="geometry" />
        </mxCell>
        <mxCell id="ycv_TVzEEXSWOvAgOOkN-11" value="获取音频和视频" style="rounded=0;whiteSpace=wrap;html=1;fontFamily=Helvetica;fontSize=32;fontStyle=1;fillColor=#000000;fontColor=#FFFFFF;" vertex="1" parent="x-Ot3oWnZm1fxhLSLb2y-1">
          <mxGeometry x="560" y="320" width="250" height="40" as="geometry" />
        </mxCell>
      </root>
    </mxGraphModel>
  </diagram>
</mxfile>
